<svg width="269" height="265" viewBox="0 0 269 265" fill="none" xmlns="http://www.w3.org/2000/svg">
<g filter="url(#filter0_f_14222_43413)" style="mix-blend-mode:multiply">
<ellipse cx="134.21" cy="132.463" rx="64.0242" ry="62.2781" fill="#808080"/>
</g>
<path d="M131.758 40.4087C136.174 37.9362 141.558 37.9362 145.975 40.4087L147.14 41.061C150.162 42.7529 153.688 43.3114 157.085 42.6362L158.395 42.3758C163.359 41.3891 168.479 43.0528 171.915 46.7689L172.822 47.7495C175.173 50.2924 178.354 51.9132 181.794 52.3207L183.12 52.4779C188.146 53.0734 192.502 56.238 194.621 60.8341L195.18 62.0468C196.631 65.1918 199.155 67.7164 202.3 69.1667L203.513 69.726C208.109 71.8456 211.274 76.2012 211.869 81.2274L212.026 82.5535C212.434 85.9928 214.055 89.1739 216.598 91.5252L217.578 92.4318C221.294 95.8679 222.958 100.988 221.971 105.952L221.711 107.262C221.036 110.659 221.594 114.185 223.286 117.207L223.939 118.373C226.411 122.789 226.411 128.173 223.939 132.589L223.286 133.754C221.594 136.776 221.036 140.303 221.711 143.7L221.971 145.009C222.958 149.974 221.294 155.094 217.578 158.53L216.598 159.437C214.055 161.788 212.434 164.969 212.026 168.408L211.869 169.734C211.274 174.761 208.109 179.116 203.513 181.236L202.3 181.795C199.155 183.245 196.631 185.77 195.18 188.915L194.621 190.128C192.502 194.724 188.146 197.888 183.12 198.484L181.794 198.641C178.354 199.049 175.173 200.669 172.822 203.212L171.915 204.193C168.479 207.909 163.359 209.573 158.395 208.586L157.085 208.326C153.688 207.65 150.162 208.209 147.14 209.901L145.975 210.553C141.558 213.026 136.174 213.026 131.758 210.553L130.593 209.901C127.571 208.209 124.045 207.65 120.648 208.326L119.338 208.586C114.374 209.573 109.253 207.909 105.817 204.193L104.911 203.212C102.559 200.669 99.3782 199.049 95.9389 198.641L94.6127 198.484C89.5866 197.888 85.231 194.724 83.1114 190.128L82.5521 188.915C81.1018 185.77 78.5772 183.245 75.4322 181.795L74.2195 181.236C69.6234 179.116 66.4588 174.761 65.8633 169.734L65.7061 168.408C65.2986 164.969 63.6777 161.788 61.1349 159.437L60.1543 158.53C56.4381 155.094 54.7744 149.974 55.7612 145.009L56.0216 143.7C56.6968 140.303 56.1383 136.776 54.4464 133.754L53.794 132.589C51.3215 128.173 51.3215 122.789 53.794 118.373L54.4464 117.207C56.1383 114.185 56.6968 110.659 56.0216 107.262L55.7612 105.952C54.7744 100.988 56.4381 95.8679 60.1543 92.4318L61.1349 91.5252C63.6777 89.1739 65.2986 85.9928 65.7061 82.5536L65.8633 81.2274C66.4588 76.2012 69.6234 71.8456 74.2195 69.726L75.4322 69.1667C78.5772 67.7164 81.1018 65.1918 82.5521 62.0468L83.1114 60.8341C85.231 56.238 89.5866 53.0734 94.6127 52.4779L95.9389 52.3207C99.3782 51.9132 102.559 50.2924 104.911 47.7495L105.817 46.769C109.253 43.0528 114.374 41.3891 119.338 42.3758L120.648 42.6362C124.045 43.3114 127.571 42.7529 130.593 41.061L131.758 40.4087Z" fill="url(#paint0_linear_14222_43413)"/>
<path d="M131.415 42.4531C135.831 39.9806 141.215 39.9806 145.631 42.4531L146.449 42.9109C149.471 44.6028 152.997 45.1613 156.394 44.4861L157.313 44.3034C162.277 43.3166 167.398 44.9803 170.834 48.6965L171.47 49.3846C173.821 51.9275 177.003 53.5484 180.442 53.9559L181.373 54.0662C186.399 54.6617 190.754 57.8263 192.874 62.4224L193.266 63.2735C194.717 66.4185 197.241 68.9431 200.386 70.3934L201.237 70.7859C205.834 72.9055 208.998 77.2611 209.594 82.2873L209.704 83.218C210.111 86.6573 211.732 89.8384 214.275 92.1896L214.963 92.8259C218.68 96.262 220.343 101.382 219.356 106.347L219.174 107.266C218.499 110.663 219.057 114.189 220.749 117.211L221.207 118.029C223.679 122.445 223.679 127.829 221.207 132.245L220.749 133.063C219.057 136.085 218.499 139.611 219.174 143.008L219.356 143.927C220.343 148.892 218.68 154.012 214.963 157.448L214.275 158.084C211.732 160.436 210.111 163.617 209.704 167.056L209.594 167.987C208.998 173.013 205.834 177.368 201.237 179.488L200.386 179.881C197.241 181.331 194.717 183.855 193.266 187L192.874 187.852C190.754 192.448 186.399 195.612 181.373 196.208L180.442 196.318C177.003 196.726 173.821 198.346 171.47 200.889L170.834 201.577C167.398 205.294 162.277 206.957 157.313 205.971L156.394 205.788C152.997 205.113 149.471 205.671 146.449 207.363L145.631 207.821C141.215 210.293 135.831 210.293 131.415 207.821L130.597 207.363C127.575 205.671 124.049 205.113 120.652 205.788L119.732 205.971C114.768 206.957 109.648 205.294 106.212 201.577L105.575 200.889C103.224 198.346 100.043 196.726 96.6039 196.318L95.6731 196.208C90.647 195.612 86.2914 192.448 84.1718 187.852L83.7793 187C82.3289 183.855 79.8044 181.331 76.6594 179.881L75.8083 179.488C71.2121 177.368 68.0476 173.013 67.452 167.987L67.3418 167.056C66.9342 163.617 65.3134 160.436 62.7705 158.084L62.0823 157.448C58.3662 154.012 56.7025 148.892 57.6892 143.927L57.8719 143.008C58.5472 139.611 57.9886 136.085 56.2968 133.063L55.8389 132.245C53.3665 127.829 53.3665 122.445 55.8389 118.029L56.2968 117.211C57.9886 114.189 58.5472 110.663 57.8719 107.266L57.6892 106.347C56.7025 101.382 58.3662 96.262 62.0824 92.8259L62.7705 92.1896C65.3134 89.8384 66.9342 86.6573 67.3418 83.218L67.4521 82.2873C68.0476 77.2611 71.2121 72.9055 75.8083 70.7859L76.6594 70.3934C79.8044 68.9431 82.3289 66.4185 83.7793 63.2735L84.1718 62.4224C86.2914 57.8263 90.647 54.6617 95.6731 54.0662L96.6039 53.9559C100.043 53.5484 103.224 51.9275 105.575 49.3846L106.212 48.6965C109.648 44.9803 114.768 43.3166 119.732 44.3034L120.652 44.4861C124.049 45.1613 127.575 44.6028 130.597 42.9109L131.415 42.4531Z" fill="url(#paint1_linear_14222_43413)"/>
<path d="M132.03 54.7353C136.064 52.4765 140.983 52.4765 145.018 54.7353C147.778 56.281 151 56.7912 154.103 56.1743C158.639 55.2728 163.316 56.7928 166.456 60.1879C168.604 62.511 171.51 63.9918 174.652 64.3641C179.244 64.9082 183.223 67.7993 185.16 71.9983C186.485 74.8715 188.791 77.1779 191.664 78.5029C195.863 80.4394 198.754 84.4186 199.298 89.0104C199.671 92.1525 201.151 95.0587 203.475 97.2068C206.87 100.346 208.39 105.024 207.488 109.559C206.871 112.662 207.382 115.884 208.927 118.645C211.186 122.68 211.186 127.598 208.927 131.633C207.382 134.394 206.871 137.615 207.488 140.719C208.39 145.254 206.87 149.932 203.475 153.071C201.151 155.219 199.671 158.125 199.298 161.267C198.754 165.859 195.863 169.838 191.664 171.775C188.791 173.1 186.485 175.406 185.16 178.279C183.223 182.478 179.244 185.37 174.652 185.914C171.51 186.286 168.604 187.767 166.456 190.09C163.316 193.485 158.639 195.005 154.103 194.103C151 193.486 147.778 193.997 145.018 195.542C140.983 197.801 136.064 197.801 132.03 195.542C129.269 193.997 126.047 193.486 122.944 194.103C118.409 195.005 113.731 193.485 110.592 190.09C108.444 187.767 105.537 186.286 102.395 185.914C97.8034 185.37 93.8241 182.478 91.8877 178.279C90.5627 175.406 88.2563 173.1 85.383 171.775C81.1841 169.838 78.293 165.859 77.7489 161.267C77.3766 158.125 75.8958 155.219 73.5726 153.071C70.1775 149.932 68.6576 145.254 69.5591 140.719C70.176 137.615 69.6657 134.394 68.1201 131.633C65.8612 127.598 65.8612 122.68 68.1201 118.645C69.6657 115.884 70.176 112.662 69.5591 109.559C68.6576 105.024 70.1775 100.346 73.5726 97.2068C75.8958 95.0587 77.3766 92.1525 77.7489 89.0104C78.293 84.4186 81.1841 80.4394 85.383 78.5029C88.2563 77.1779 90.5627 74.8715 91.8877 71.9983C93.8241 67.7993 97.8034 64.9082 102.395 64.3641C105.537 63.9918 108.444 62.511 110.592 60.1879C113.731 56.7928 118.409 55.2728 122.944 56.1743C126.047 56.7912 129.269 56.281 132.03 54.7353Z" fill="url(#paint2_linear_14222_43413)"/>
<path d="M132.239 57.0054C136.144 54.8194 140.904 54.8194 144.808 57.0054C147.48 58.5011 150.598 58.9949 153.601 58.398C157.99 57.5256 162.517 58.9965 165.555 62.282C167.634 64.5302 170.446 65.9633 173.487 66.3236C177.931 66.8501 181.782 69.6479 183.655 73.7114C184.938 76.492 187.17 78.724 189.95 80.0063C194.014 81.8802 196.812 85.7311 197.338 90.1748C197.699 93.2155 199.132 96.028 201.38 98.1068C204.665 101.145 206.136 105.672 205.264 110.061C204.667 113.064 205.161 116.182 206.656 118.853C208.842 122.758 208.842 127.518 206.656 131.422C205.161 134.094 204.667 137.212 205.264 140.215C206.136 144.604 204.665 149.131 201.38 152.169C199.132 154.248 197.699 157.06 197.338 160.101C196.812 164.545 194.014 168.395 189.95 170.269C187.17 171.552 184.938 173.784 183.655 176.564C181.782 180.628 177.931 183.426 173.487 183.952C170.446 184.312 167.634 185.745 165.555 187.994C162.517 191.279 157.99 192.75 153.601 191.878C150.598 191.281 147.48 191.775 144.808 193.27C140.904 195.456 136.144 195.456 132.239 193.27C129.568 191.775 126.45 191.281 123.447 191.878C119.058 192.75 114.531 191.279 111.493 187.994C109.414 185.745 106.602 184.312 103.561 183.952C99.1172 183.426 95.2664 180.628 93.3924 176.564C92.1101 173.784 89.8781 171.552 87.0976 170.269C83.034 168.395 80.2362 164.545 79.7097 160.101C79.3494 157.06 77.9163 154.248 75.6681 152.169C72.3826 149.131 70.9117 144.604 71.7841 140.215C72.381 137.212 71.8873 134.094 70.3915 131.422C68.2055 127.518 68.2055 122.758 70.3915 118.853C71.8873 116.182 72.381 113.064 71.7841 110.061C70.9117 105.672 72.3826 101.145 75.6681 98.1068C77.9163 96.028 79.3494 93.2155 79.7097 90.1748C80.2362 85.7311 83.034 81.8802 87.0976 80.0063C89.8781 78.724 92.1101 76.492 93.3924 73.7114C95.2664 69.6479 99.1172 66.8501 103.561 66.3236C106.602 65.9633 109.414 64.5302 111.493 62.282C114.531 58.9965 119.058 57.5256 123.447 58.398C126.45 58.9949 129.568 58.5011 132.239 57.0054Z" fill="url(#paint3_linear_14222_43413)"/>
<g clip-path="url(#clip0_14222_43413)">
<path fill-rule="evenodd" clip-rule="evenodd" d="M133.459 110.506C131.702 110.506 130.017 111.187 128.774 112.4L122.777 118.25V120.928C122.777 122.82 123.61 124.522 124.938 125.704C123.61 126.886 122.777 128.588 122.777 130.48V133.158L128.774 139.008C130.017 140.221 131.702 140.902 133.459 140.902C135.399 140.902 137.143 140.089 138.355 138.794C139.567 140.089 141.311 140.902 143.251 140.902C145.008 140.902 146.694 140.221 147.936 139.008L153.933 133.158V130.48C153.933 128.588 153.1 126.886 151.772 125.704C153.1 124.522 153.933 122.82 153.933 120.928V118.25L147.936 112.4C146.694 111.187 145.008 110.506 143.251 110.506C141.311 110.506 139.567 111.319 138.355 112.614C137.143 111.319 135.399 110.506 133.459 110.506ZM142.84 125.704C142.766 125.637 142.692 125.569 142.621 125.499L138.355 121.337L134.089 125.499C134.018 125.569 133.944 125.637 133.87 125.704C133.944 125.77 134.018 125.839 134.089 125.909L138.355 130.07L142.621 125.909C142.692 125.839 142.766 125.77 142.84 125.704ZM140.086 133.158V134.437C140.086 136.142 141.503 137.524 143.251 137.524C144.09 137.524 144.895 137.199 145.488 136.62L150.471 131.759V130.48C150.471 128.775 149.054 127.393 147.306 127.393C146.467 127.393 145.662 127.718 145.068 128.297L140.086 133.158ZM136.624 133.158L131.642 128.297C131.048 127.718 130.243 127.393 129.404 127.393C127.656 127.393 126.239 128.775 126.239 130.48V131.759L131.222 136.62C131.815 137.199 132.62 137.524 133.459 137.524C135.207 137.524 136.624 136.142 136.624 134.437V133.158ZM136.624 116.971V118.25L131.642 123.111C131.048 123.69 130.243 124.015 129.404 124.015C127.656 124.015 126.239 122.633 126.239 120.928V119.649L131.222 114.788C131.815 114.209 132.62 113.884 133.459 113.884C135.207 113.884 136.624 115.266 136.624 116.971ZM145.068 123.111L140.086 118.25V116.971C140.086 115.266 141.503 113.884 143.251 113.884C144.09 113.884 144.895 114.209 145.488 114.788L150.471 119.649V120.928C150.471 122.633 149.054 124.015 147.306 124.015C146.467 124.015 145.662 123.69 145.068 123.111Z" fill="#F5F5F3"/>
</g>
<path d="M150.035 75.1002C150.401 75.4385 151.694 76.4606 152.219 75.849C152.758 75.2209 151.49 74.1421 151.074 73.8413C150.322 73.2964 149.47 72.9088 148.606 72.5934C148.862 73.5332 149.318 74.4392 150.035 75.1002ZM125.479 73.9574C125.066 74.2618 123.807 75.3516 124.353 75.9751C124.883 76.5813 126.167 75.5482 126.53 75.2063C127.242 74.5379 127.689 73.6301 127.937 72.6866C127.073 73.0084 126.226 73.4061 125.479 73.9574ZM155.685 76.0346C156.082 76.7275 157.421 78.4061 158.386 78.0194C159.403 77.6089 158.011 75.9386 157.621 75.5509C156.857 74.7939 155.879 74.2253 154.941 73.7197C155.055 74.5169 155.286 75.3361 155.685 76.0346ZM118.949 75.7255C118.561 76.1178 117.185 77.7999 118.205 78.2004C119.174 78.5789 120.498 76.8875 120.888 76.1927C121.281 75.4906 121.505 74.6696 121.61 73.8715C120.678 74.3853 119.706 74.9612 118.949 75.7255ZM132.048 74.2829C131.622 74.3231 128.101 74.6806 128.167 75.5354C128.262 76.7714 136.496 74.8799 137.383 74.6641C136.039 74.42 134.656 74.2271 133.28 74.2271C132.869 74.2271 132.457 74.2436 132.048 74.2829ZM139.177 74.7528C140.052 74.9576 148.426 76.6581 148.377 75.5134C148.362 75.1633 147.433 74.911 147.211 74.8387C146.263 74.5279 145.233 74.3606 144.239 74.303C143.968 74.2875 143.696 74.2792 143.425 74.2792C141.999 74.2792 140.572 74.4849 139.177 74.7528ZM162.19 78.6346C162.547 79.5023 163.614 81.2439 164.718 81.2192C166.008 81.189 164.905 79.0744 164.579 78.6017C163.837 77.522 162.725 76.6535 161.67 75.913C161.689 76.8318 161.843 77.7862 162.19 78.6346ZM112.018 78.8404C111.698 79.3148 110.613 81.4404 111.902 81.4578C113.008 81.4734 114.057 79.7226 114.407 78.8504C114.748 77.9993 114.892 77.043 114.903 76.1241C113.855 76.8747 112.751 77.7533 112.018 78.8404ZM149.749 76.5712C148.831 76.8619 148.116 77.5732 147.605 78.3878C148.441 78.3677 149.324 78.3357 150.142 78.151C150.611 78.0459 152.082 77.64 151.952 76.8921C151.88 76.4871 151.458 76.3673 150.994 76.3673C150.51 76.3673 149.979 76.4981 149.749 76.5712ZM124.63 77.0165C124.505 77.7643 125.98 78.1583 126.449 78.2589C127.269 78.4353 128.152 78.4591 128.99 78.471C128.471 77.6628 127.75 76.9579 126.829 76.6745C126.604 76.605 126.085 76.4825 125.608 76.4825C125.133 76.4825 124.699 76.6032 124.63 77.0165ZM154.727 78.6886C154.078 79.0159 153.496 79.5333 153.032 80.0983C154.158 80.2428 155.429 80.3589 156.545 80.1166C157.085 79.9978 158.672 79.4675 157.893 78.6868C157.573 78.3677 157.091 78.2479 156.581 78.2479C155.909 78.2479 155.188 78.4564 154.727 78.6886ZM118.705 78.865C117.932 79.6513 119.525 80.1687 120.066 80.2812C121.183 80.5143 122.454 80.3863 123.577 80.2327C123.108 79.6696 122.522 79.1594 121.87 78.8367C121.414 78.6118 120.707 78.4134 120.043 78.4134C119.522 78.4134 119.028 78.5359 118.705 78.865ZM168.79 82.5448C169.056 83.4893 170.066 85.7977 171.299 85.6615C172.519 85.5253 171.615 83.257 171.334 82.7003C170.683 81.4121 169.634 80.3068 168.601 79.3304C168.475 80.3854 168.499 81.52 168.79 82.5448ZM105.301 82.9983C105.024 83.5587 104.141 85.8361 105.361 85.9595C106.597 86.0848 107.585 83.7663 107.843 82.8209C108.124 81.7952 108.139 80.6588 108.003 79.6047C106.979 80.5902 105.939 81.7056 105.301 82.9983ZM160.97 81.2859C160.097 81.5117 159.276 82.0667 158.627 82.6902C159.788 82.938 160.965 83.2397 162.161 83.2369C162.704 83.2351 164.852 83.044 164.283 81.9808C163.941 81.3417 163.031 81.1451 162.195 81.1451C161.726 81.1451 161.281 81.2064 160.97 81.2859ZM112.344 82.2157C111.785 83.2835 113.935 83.4573 114.476 83.4536C115.673 83.4445 116.847 83.1327 118.008 82.874C117.351 82.2559 116.526 81.7083 115.652 81.4916C115.35 81.4176 114.924 81.3609 114.473 81.3609C113.623 81.3609 112.687 81.5611 112.344 82.2157ZM137.744 88.2625H132.053L136.657 91.6918L134.898 97.2385L139.503 93.8092L144.106 97.2385L142.347 91.6918L146.952 88.2625H141.261L139.503 82.7149L137.744 88.2625ZM175.47 89.0039C175.705 89.7271 176.455 91.7311 177.528 91.4925C178.712 91.2283 178.062 88.7891 177.815 88.1071C177.3 86.6964 176.444 85.2875 175.478 84.1475C175.042 85.7483 174.952 87.4141 175.47 89.0039ZM98.8693 88.4645C98.6279 89.1484 97.9998 91.594 99.1865 91.8472C100.261 92.0758 100.993 90.0654 101.222 89.3413C101.725 87.745 101.621 86.082 101.169 84.4839C100.214 85.6331 99.3712 87.0484 98.8693 88.4645ZM167.022 85.0928C166.025 85.1916 165.032 85.6706 164.221 86.2557C165.443 86.7092 166.68 87.2294 167.975 87.4269C168.555 87.5155 170.672 87.6801 170.561 86.5849C170.444 85.4229 168.471 85.0773 167.387 85.0773C167.249 85.0773 167.125 85.0828 167.022 85.0928ZM106.108 86.8774C106.009 87.9736 108.123 87.7898 108.702 87.6957C109.996 87.4863 111.227 86.9551 112.446 86.4898C111.628 85.912 110.633 85.4421 109.634 85.3534C109.541 85.3451 109.432 85.3406 109.312 85.3406C108.237 85.3406 106.217 85.6981 106.108 86.8774ZM169.597 90.8955C170.889 91.5958 172.17 92.457 173.595 92.8538C174.231 93.0293 176.387 93.5212 176.363 92.2943C176.339 91.1478 174.594 90.5015 173.734 90.2729C173.348 90.1705 172.953 90.1239 172.556 90.1239C171.534 90.1239 170.503 90.4347 169.597 90.8955ZM102.97 90.5929C102.111 90.8297 100.372 91.4907 100.359 92.638C100.345 93.8658 102.496 93.3548 103.131 93.1729C104.553 92.7633 105.826 91.8911 107.111 91.178C106.215 90.7327 105.198 90.4338 104.19 90.4338C103.779 90.4338 103.369 90.4832 102.97 90.5929ZM181.067 95.3606C181.181 96.2858 181.503 98.5888 182.735 98.757C184.068 98.9408 183.945 96.2447 183.848 95.5124C183.608 93.7388 182.788 92.0575 181.966 90.5005C181.277 91.9999 180.864 93.704 181.067 95.3606ZM92.9038 95.9238C92.8115 96.6579 92.7146 99.3549 94.0448 99.1584C95.2763 98.9783 95.578 96.6735 95.6831 95.7473C95.8715 94.0889 95.4436 92.3884 94.7387 90.8955C93.9315 92.4598 93.1269 94.1483 92.9038 95.9238ZM154.104 95.5023H150.12L153.343 97.9022L152.112 101.786L155.335 99.386L158.558 101.786L157.327 97.9022L160.55 95.5023H156.566L155.335 91.6187L154.104 95.5023ZM122.438 95.5023H118.455L121.678 97.9022L120.447 101.786L123.67 99.386L126.892 101.786L125.662 97.9022L128.884 95.5023H124.9L123.67 91.6187L122.438 95.5023ZM174.483 96.6726C175.662 97.6535 176.882 98.6757 178.238 99.3933C178.865 99.7252 181.288 100.778 181.477 99.397C181.643 98.1701 179.864 97.1178 178.985 96.7329C178.287 96.4275 177.544 96.2959 176.794 96.2959C176.014 96.2959 175.228 96.4385 174.483 96.6726ZM97.7767 97.1004C96.9018 97.4926 95.1309 98.5614 95.3101 99.7874C95.5104 101.166 97.9239 100.091 98.5474 99.7535C99.8969 99.0249 101.109 97.9909 102.278 96.9989C101.549 96.7777 100.783 96.6433 100.021 96.6433C99.2523 96.6433 98.4899 96.7795 97.7767 97.1004ZM185.81 103.562C185.76 104.478 185.751 107.596 187.266 107.436C188.645 107.29 188.79 104.416 188.742 103.466C188.654 101.766 188.259 100.037 187.692 98.4361C186.652 99.9574 185.91 101.697 185.81 103.562ZM88.0822 103.922C88.0429 104.872 88.212 107.744 89.5934 107.878C91.1092 108.025 91.0717 104.908 91.0141 103.992C90.8971 102.127 90.1401 100.395 89.086 98.8832C88.532 100.489 88.1535 102.22 88.0822 103.922ZM178.589 103.56C179.62 104.776 180.663 106.035 181.899 107.044C182.493 107.529 184.891 109.256 185.448 107.885C186.014 106.491 183.956 104.827 182.986 104.253C182.045 103.697 180.895 103.481 179.777 103.481C179.373 103.481 178.974 103.509 178.589 103.56ZM93.8437 104.657C92.8792 105.238 90.8358 106.923 91.4155 108.311C91.9841 109.677 94.3666 107.928 94.9563 107.438C96.1823 106.417 97.2145 105.149 98.2339 103.923C97.8755 103.879 97.5025 103.855 97.1249 103.855C95.983 103.855 94.8027 104.079 93.8437 104.657ZM189.154 113.042C188.918 114.007 188.314 117.073 189.832 117.359C191.249 117.627 192.068 114.767 192.228 113.816C192.55 111.915 192.511 109.837 192.17 107.939C190.753 109.357 189.636 111.069 189.154 113.042ZM84.6894 114.303C84.8586 115.252 85.7015 118.104 87.1167 117.825C88.6325 117.524 87.9999 114.462 87.7558 113.502C87.2566 111.533 86.1239 109.829 84.6949 108.425C84.3695 110.326 84.3502 112.405 84.6894 114.303ZM184.325 115.793C184.871 116.448 186.802 118.587 187.796 117.583C188.965 116.4 186.981 113.976 186.166 113.207C184.952 112.064 183.169 111.577 181.554 111.482C182.416 112.948 183.235 114.485 184.325 115.793ZM90.7453 113.639C89.9372 114.415 87.9752 116.855 89.1555 118.029C90.1575 119.025 92.0701 116.867 92.6095 116.208C93.6883 114.89 94.4919 113.346 95.3421 111.872C93.7267 111.983 91.9485 112.485 90.7453 113.639ZM190.89 123.117C190.395 124.074 188.796 127.577 190.472 128.204C191.972 128.763 193.455 125.824 193.832 124.787C194.512 122.918 194.884 120.81 194.918 118.815C193.277 119.911 191.808 121.341 190.89 123.117ZM83.1837 125.289C83.5704 126.321 85.0807 129.247 86.5746 128.673C88.2449 128.032 86.6157 124.544 86.112 123.592C85.1767 121.825 83.6947 120.408 82.0445 119.327C82.0957 121.321 82.487 123.425 83.1837 125.289ZM185.178 125.573C185.602 126.342 187.207 128.918 188.373 127.883C189.66 126.741 188.247 124.063 187.517 123.027C186.493 121.572 184.723 120.686 183.059 120.244C183.691 122.044 184.256 123.899 185.178 125.573ZM89.4819 123.472C88.7633 124.513 87.3727 127.204 88.6718 128.334C89.8466 129.358 91.4283 126.769 91.8442 125.996C92.7521 124.314 93.2997 122.453 93.9159 120.648C92.2557 121.104 90.4939 122.007 89.4819 123.472ZM183.604 134.736C183.843 135.735 185.233 139.908 186.839 138.559C188.265 137.361 187.324 134.148 186.542 132.852C185.683 131.428 184.258 130.297 182.799 129.565C182.942 131.282 183.204 133.061 183.604 134.736ZM90.5479 133.287C89.7762 134.589 88.8648 137.811 90.3019 138.996C91.9201 140.33 93.2714 136.146 93.5018 135.145C93.8867 133.466 94.1326 131.684 94.2606 129.965C92.8079 130.711 91.3944 131.855 90.5479 133.287ZM190.659 133.933C189.909 134.801 189.191 135.731 188.745 136.804C188.448 137.519 187.944 138.959 188.764 139.51C189.574 140.056 190.837 139.132 191.429 138.619C192.268 137.895 192.893 136.952 193.434 135.989C194.362 134.346 194.96 132.536 195.461 130.716C193.678 131.418 191.928 132.462 190.659 133.933ZM83.6828 136.487C84.2341 137.444 84.8668 138.381 85.7116 139.098C86.3095 139.605 87.5803 140.518 88.3857 139.964C89.2003 139.407 88.6828 137.97 88.3793 137.258C87.924 136.19 87.1981 135.266 86.4411 134.405C85.1584 132.945 83.3976 131.917 81.6094 131.232C82.1268 133.047 82.7412 134.85 83.6828 136.487ZM180.2 144.068C180.163 145.247 180.406 149.686 182.342 149.333C184.266 148.981 184.107 145.26 183.814 143.909C183.388 141.947 182.066 140.223 180.541 138.992C180.436 140.687 180.252 142.369 180.2 144.068ZM93.3747 144.32C93.094 145.672 92.9688 149.395 94.8969 149.728C96.836 150.065 97.038 145.623 96.9914 144.445C96.9228 142.746 96.7245 141.065 96.6038 139.373C95.0898 140.618 93.7834 142.352 93.3747 144.32ZM187.239 145.692C186.329 146.451 185.403 147.223 184.762 148.244C184.352 148.897 183.708 150.196 184.521 150.808C185.32 151.413 186.72 150.766 187.453 150.351C188.459 149.781 189.309 149.014 190.092 148.162C191.4 146.733 192.557 144.946 193.382 143.183C191.219 143.54 188.955 144.264 187.239 145.692ZM87.1368 148.628C87.9267 149.473 88.7834 150.231 89.7945 150.793C90.5305 151.201 91.9375 151.834 92.7311 151.224C93.5383 150.604 92.8819 149.311 92.4659 148.662C91.8159 147.645 90.8834 146.882 89.9655 146.132C88.2376 144.718 85.9675 144.016 83.8008 143.679C84.6428 145.433 85.8139 147.212 87.1368 148.628ZM152.814 150.037L156.25 153.473L159.689 150.037L156.25 146.6L152.814 150.037ZM135.098 150.037L138.534 153.473L141.973 150.037L138.534 146.6L135.098 150.037ZM117.382 150.037L120.819 153.473L124.257 150.037L120.819 146.6L117.382 150.037ZM174.328 154.049C174.115 155.174 173.64 159.329 175.673 159.043C177.647 158.767 178.291 155.34 178.294 153.742C178.296 151.665 177.346 149.611 176.092 148.012C175.495 150.016 174.718 151.984 174.328 154.049ZM98.9844 154.1C99.0018 155.699 99.6765 159.119 101.653 159.378C103.688 159.645 103.176 155.495 102.953 154.373C102.544 152.311 101.749 150.351 101.134 148.352C99.895 149.963 98.9625 152.023 98.9844 154.1ZM181.745 156.395C180.667 156.885 179.563 157.425 178.638 158.185C177.973 158.733 176.722 159.913 177.178 160.91C177.627 161.891 179.266 161.687 180.086 161.513C181.209 161.276 182.258 160.757 183.224 160.143C185.12 158.937 186.911 157.283 188.303 155.503C187.826 155.469 187.336 155.45 186.842 155.45C185.101 155.45 183.295 155.692 181.745 156.395ZM88.9918 155.954C90.3998 157.72 92.2054 159.357 94.1106 160.545C95.0843 161.152 96.1366 161.66 97.2629 161.889C98.0839 162.054 99.7241 162.244 100.165 161.258C100.611 160.258 99.352 159.089 98.6791 158.547C97.7475 157.796 96.6394 157.265 95.557 156.786C94.0512 156.118 92.3105 155.886 90.6237 155.886C90.0706 155.886 89.523 155.911 88.9918 155.954ZM165.952 162.273C165.581 163.273 164.289 166.718 166.114 167.148C167.101 167.383 168.121 166.456 168.674 165.74C169.413 164.784 169.999 163.643 170.306 162.466C170.847 160.399 170.352 157.945 169.465 156.043C168.321 158.123 166.787 160.021 165.952 162.273ZM107.05 162.752C107.369 163.927 107.964 165.063 108.712 166.011C109.271 166.723 110.3 167.64 111.285 167.397C113.105 166.948 111.783 163.517 111.402 162.519C110.547 160.275 108.996 158.392 107.834 156.323C106.964 158.233 106.491 160.69 107.05 162.752ZM156.093 167.237C155.351 168.133 152.744 171.568 154.428 172.712C155.344 173.334 156.731 172.564 157.497 172.046C158.472 171.384 159.246 170.386 159.866 169.384C161.11 167.374 161.229 164.695 160.813 162.403C159.142 163.885 157.52 165.513 156.093 167.237ZM117.553 169.574C118.181 170.571 118.964 171.564 119.947 172.215C120.717 172.727 122.11 173.484 123.021 172.854C124.694 171.696 122.056 168.285 121.306 167.394C119.863 165.684 118.227 164.07 116.542 162.604C116.147 164.899 116.292 167.576 117.553 169.574ZM173.582 166.009C171.698 166.264 169.138 166.734 167.79 168.251C166.776 169.392 167.657 170.356 168.864 170.666C170.99 171.214 173.131 170.568 175.098 169.759C176.812 169.055 178.671 168.033 180.112 166.841C178.474 166.325 176.694 165.92 174.949 165.92C174.49 165.92 174.033 165.948 173.582 166.009ZM97.2858 167.216C98.7358 168.394 100.605 169.4 102.324 170.089C104.3 170.879 106.446 171.507 108.567 170.94C109.77 170.618 110.643 169.645 109.62 168.514C108.257 167.009 105.693 166.563 103.808 166.324C103.39 166.271 102.967 166.247 102.543 166.247C100.764 166.247 98.9506 166.674 97.2858 167.216ZM143.595 171.064H139.517L142.817 173.462L141.556 177.34L144.856 174.944L148.156 177.34L146.895 173.462L150.195 171.064H146.116L144.856 167.186L143.595 171.064ZM130.954 171.064H126.875L130.175 173.462L128.915 177.34L132.214 174.944L135.515 177.34L134.254 173.462L137.553 171.064H133.475L132.214 167.186L130.954 171.064ZM158.579 173.587C157.605 173.683 156.509 173.831 155.73 174.496C154.566 175.49 155.439 176.623 156.515 177.177C160.314 179.134 165.145 177.658 168.872 176.239C166.887 174.955 164.594 173.944 162.255 173.618C161.626 173.532 160.998 173.493 160.371 173.493C159.774 173.493 159.178 173.528 158.579 173.587ZM115.203 173.831C112.865 174.178 110.583 175.21 108.61 176.511C112.35 177.896 117.192 179.33 120.974 177.338C122.046 176.773 122.908 175.633 121.734 174.651C120.95 173.992 119.852 173.853 118.878 173.767C118.327 173.717 117.777 173.689 117.228 173.689C116.552 173.689 115.878 173.732 115.203 173.831Z" fill="url(#paint4_linear_14222_43413)"/>
<path d="M150.035 75.1002C150.401 75.4385 151.694 76.4606 152.219 75.849C152.758 75.2209 151.49 74.1421 151.074 73.8413C150.322 73.2964 149.47 72.9088 148.606 72.5934C148.862 73.5332 149.318 74.4392 150.035 75.1002ZM125.479 73.9574C125.066 74.2618 123.807 75.3516 124.353 75.9751C124.883 76.5813 126.167 75.5482 126.53 75.2063C127.242 74.5379 127.689 73.6301 127.937 72.6866C127.073 73.0084 126.226 73.4061 125.479 73.9574ZM155.685 76.0346C156.082 76.7275 157.421 78.4061 158.386 78.0194C159.403 77.6089 158.011 75.9386 157.621 75.5509C156.857 74.7939 155.879 74.2253 154.941 73.7197C155.055 74.5169 155.286 75.3361 155.685 76.0346ZM118.949 75.7255C118.561 76.1178 117.185 77.7999 118.205 78.2004C119.174 78.5789 120.498 76.8875 120.888 76.1927C121.281 75.4906 121.505 74.6696 121.61 73.8715C120.678 74.3853 119.706 74.9612 118.949 75.7255ZM132.048 74.2829C131.622 74.3231 128.101 74.6806 128.167 75.5354C128.262 76.7714 136.496 74.8799 137.383 74.6641C136.039 74.42 134.656 74.2271 133.28 74.2271C132.869 74.2271 132.457 74.2436 132.048 74.2829ZM139.177 74.7528C140.052 74.9576 148.426 76.6581 148.377 75.5134C148.362 75.1633 147.433 74.911 147.211 74.8387C146.263 74.5279 145.233 74.3606 144.239 74.303C143.968 74.2875 143.696 74.2792 143.425 74.2792C141.999 74.2792 140.572 74.4849 139.177 74.7528ZM162.19 78.6346C162.547 79.5023 163.614 81.2439 164.718 81.2192C166.008 81.189 164.905 79.0744 164.579 78.6017C163.837 77.522 162.725 76.6535 161.67 75.913C161.689 76.8318 161.843 77.7862 162.19 78.6346ZM112.018 78.8404C111.698 79.3148 110.613 81.4404 111.902 81.4578C113.008 81.4734 114.057 79.7226 114.407 78.8504C114.748 77.9993 114.892 77.043 114.903 76.1241C113.855 76.8747 112.751 77.7533 112.018 78.8404ZM149.749 76.5712C148.831 76.8619 148.116 77.5732 147.605 78.3878C148.441 78.3677 149.324 78.3357 150.142 78.151C150.611 78.0459 152.082 77.64 151.952 76.8921C151.88 76.4871 151.458 76.3673 150.994 76.3673C150.51 76.3673 149.979 76.4981 149.749 76.5712ZM124.63 77.0165C124.505 77.7643 125.98 78.1583 126.449 78.2589C127.269 78.4353 128.152 78.4591 128.99 78.471C128.471 77.6628 127.75 76.9579 126.829 76.6745C126.604 76.605 126.085 76.4825 125.608 76.4825C125.133 76.4825 124.699 76.6032 124.63 77.0165ZM154.727 78.6886C154.078 79.0159 153.496 79.5333 153.032 80.0983C154.158 80.2428 155.429 80.3589 156.545 80.1166C157.085 79.9978 158.672 79.4675 157.893 78.6868C157.573 78.3677 157.091 78.2479 156.581 78.2479C155.909 78.2479 155.188 78.4564 154.727 78.6886ZM118.705 78.865C117.932 79.6513 119.525 80.1687 120.066 80.2812C121.183 80.5143 122.454 80.3863 123.577 80.2327C123.108 79.6696 122.522 79.1594 121.87 78.8367C121.414 78.6118 120.707 78.4134 120.043 78.4134C119.522 78.4134 119.028 78.5359 118.705 78.865ZM168.79 82.5448C169.056 83.4893 170.066 85.7977 171.299 85.6615C172.519 85.5253 171.615 83.257 171.334 82.7003C170.683 81.4121 169.634 80.3068 168.601 79.3304C168.475 80.3854 168.499 81.52 168.79 82.5448ZM105.301 82.9983C105.024 83.5587 104.141 85.8361 105.361 85.9595C106.597 86.0848 107.585 83.7663 107.843 82.8209C108.124 81.7952 108.139 80.6588 108.003 79.6047C106.979 80.5902 105.939 81.7056 105.301 82.9983ZM160.97 81.2859C160.097 81.5117 159.276 82.0667 158.627 82.6902C159.788 82.938 160.965 83.2397 162.161 83.2369C162.704 83.2351 164.852 83.044 164.283 81.9808C163.941 81.3417 163.031 81.1451 162.195 81.1451C161.726 81.1451 161.281 81.2064 160.97 81.2859ZM112.344 82.2157C111.785 83.2835 113.935 83.4573 114.476 83.4536C115.673 83.4445 116.847 83.1327 118.008 82.874C117.351 82.2559 116.526 81.7083 115.652 81.4916C115.35 81.4176 114.924 81.3609 114.473 81.3609C113.623 81.3609 112.687 81.5611 112.344 82.2157ZM137.744 88.2625H132.053L136.657 91.6918L134.898 97.2385L139.503 93.8092L144.106 97.2385L142.347 91.6918L146.952 88.2625H141.261L139.503 82.7149L137.744 88.2625ZM175.47 89.0039C175.705 89.7271 176.455 91.7311 177.528 91.4925C178.712 91.2283 178.062 88.7891 177.815 88.1071C177.3 86.6964 176.444 85.2875 175.478 84.1475C175.042 85.7483 174.952 87.4141 175.47 89.0039ZM98.8693 88.4645C98.6279 89.1484 97.9998 91.594 99.1865 91.8472C100.261 92.0758 100.993 90.0654 101.222 89.3413C101.725 87.745 101.621 86.082 101.169 84.4839C100.214 85.6331 99.3712 87.0484 98.8693 88.4645ZM167.022 85.0928C166.025 85.1916 165.032 85.6706 164.221 86.2557C165.443 86.7092 166.68 87.2294 167.975 87.4269C168.555 87.5155 170.672 87.6801 170.561 86.5849C170.444 85.4229 168.471 85.0773 167.387 85.0773C167.249 85.0773 167.125 85.0828 167.022 85.0928ZM106.108 86.8774C106.009 87.9736 108.123 87.7898 108.702 87.6957C109.996 87.4863 111.227 86.9551 112.446 86.4898C111.628 85.912 110.633 85.4421 109.634 85.3534C109.541 85.3451 109.432 85.3406 109.312 85.3406C108.237 85.3406 106.217 85.6981 106.108 86.8774ZM169.597 90.8955C170.889 91.5958 172.17 92.457 173.595 92.8538C174.231 93.0293 176.387 93.5212 176.363 92.2943C176.339 91.1478 174.594 90.5015 173.734 90.2729C173.348 90.1705 172.953 90.1239 172.556 90.1239C171.534 90.1239 170.503 90.4347 169.597 90.8955ZM102.97 90.5929C102.111 90.8297 100.372 91.4907 100.359 92.638C100.345 93.8658 102.496 93.3548 103.131 93.1729C104.553 92.7633 105.826 91.8911 107.111 91.178C106.215 90.7327 105.198 90.4338 104.19 90.4338C103.779 90.4338 103.369 90.4832 102.97 90.5929ZM181.067 95.3606C181.181 96.2858 181.503 98.5888 182.735 98.757C184.068 98.9408 183.945 96.2447 183.848 95.5124C183.608 93.7388 182.788 92.0575 181.966 90.5005C181.277 91.9999 180.864 93.704 181.067 95.3606ZM92.9038 95.9238C92.8115 96.6579 92.7146 99.3549 94.0448 99.1584C95.2763 98.9783 95.578 96.6735 95.6831 95.7473C95.8715 94.0889 95.4436 92.3884 94.7387 90.8955C93.9315 92.4598 93.1269 94.1483 92.9038 95.9238ZM154.104 95.5023H150.12L153.343 97.9022L152.112 101.786L155.335 99.386L158.558 101.786L157.327 97.9022L160.55 95.5023H156.566L155.335 91.6187L154.104 95.5023ZM122.438 95.5023H118.455L121.678 97.9022L120.447 101.786L123.67 99.386L126.892 101.786L125.662 97.9022L128.884 95.5023H124.9L123.67 91.6187L122.438 95.5023ZM174.483 96.6726C175.662 97.6535 176.882 98.6757 178.238 99.3933C178.865 99.7252 181.288 100.778 181.477 99.397C181.643 98.1701 179.864 97.1178 178.985 96.7329C178.287 96.4275 177.544 96.2959 176.794 96.2959C176.014 96.2959 175.228 96.4385 174.483 96.6726ZM97.7767 97.1004C96.9018 97.4926 95.1309 98.5614 95.3101 99.7874C95.5104 101.166 97.9239 100.091 98.5474 99.7535C99.8969 99.0249 101.109 97.9909 102.278 96.9989C101.549 96.7777 100.783 96.6433 100.021 96.6433C99.2523 96.6433 98.4899 96.7795 97.7767 97.1004ZM185.81 103.562C185.76 104.478 185.751 107.596 187.266 107.436C188.645 107.29 188.79 104.416 188.742 103.466C188.654 101.766 188.259 100.037 187.692 98.4361C186.652 99.9574 185.91 101.697 185.81 103.562ZM88.0822 103.922C88.0429 104.872 88.212 107.744 89.5934 107.878C91.1092 108.025 91.0717 104.908 91.0141 103.992C90.8971 102.127 90.1401 100.395 89.086 98.8832C88.532 100.489 88.1535 102.22 88.0822 103.922ZM178.589 103.56C179.62 104.776 180.663 106.035 181.899 107.044C182.493 107.529 184.891 109.256 185.448 107.885C186.014 106.491 183.956 104.827 182.986 104.253C182.045 103.697 180.895 103.481 179.777 103.481C179.373 103.481 178.974 103.509 178.589 103.56ZM93.8437 104.657C92.8792 105.238 90.8358 106.923 91.4155 108.311C91.9841 109.677 94.3666 107.928 94.9563 107.438C96.1823 106.417 97.2145 105.149 98.2339 103.923C97.8755 103.879 97.5025 103.855 97.1249 103.855C95.983 103.855 94.8027 104.079 93.8437 104.657ZM189.154 113.042C188.918 114.007 188.314 117.073 189.832 117.359C191.249 117.627 192.068 114.767 192.228 113.816C192.55 111.915 192.511 109.837 192.17 107.939C190.753 109.357 189.636 111.069 189.154 113.042ZM84.6894 114.303C84.8586 115.252 85.7015 118.104 87.1167 117.825C88.6325 117.524 87.9999 114.462 87.7558 113.502C87.2566 111.533 86.1239 109.829 84.6949 108.425C84.3695 110.326 84.3502 112.405 84.6894 114.303ZM184.325 115.793C184.871 116.448 186.802 118.587 187.796 117.583C188.965 116.4 186.981 113.976 186.166 113.207C184.952 112.064 183.169 111.577 181.554 111.482C182.416 112.948 183.235 114.485 184.325 115.793ZM90.7453 113.639C89.9372 114.415 87.9752 116.855 89.1555 118.029C90.1575 119.025 92.0701 116.867 92.6095 116.208C93.6883 114.89 94.4919 113.346 95.3421 111.872C93.7267 111.983 91.9485 112.485 90.7453 113.639ZM190.89 123.117C190.395 124.074 188.796 127.577 190.472 128.204C191.972 128.763 193.455 125.824 193.832 124.787C194.512 122.918 194.884 120.81 194.918 118.815C193.277 119.911 191.808 121.341 190.89 123.117ZM83.1837 125.289C83.5704 126.321 85.0807 129.247 86.5746 128.673C88.2449 128.032 86.6157 124.544 86.112 123.592C85.1767 121.825 83.6947 120.408 82.0445 119.327C82.0957 121.321 82.487 123.425 83.1837 125.289ZM185.178 125.573C185.602 126.342 187.207 128.918 188.373 127.883C189.66 126.741 188.247 124.063 187.517 123.027C186.493 121.572 184.723 120.686 183.059 120.244C183.691 122.044 184.256 123.899 185.178 125.573ZM89.4819 123.472C88.7633 124.513 87.3727 127.204 88.6718 128.334C89.8466 129.358 91.4283 126.769 91.8442 125.996C92.7521 124.314 93.2997 122.453 93.9159 120.648C92.2557 121.104 90.4939 122.007 89.4819 123.472ZM183.604 134.736C183.843 135.735 185.233 139.908 186.839 138.559C188.265 137.361 187.324 134.148 186.542 132.852C185.683 131.428 184.258 130.297 182.799 129.565C182.942 131.282 183.204 133.061 183.604 134.736ZM90.5479 133.287C89.7762 134.589 88.8648 137.811 90.3019 138.996C91.9201 140.33 93.2714 136.146 93.5018 135.145C93.8867 133.466 94.1326 131.684 94.2606 129.965C92.8079 130.711 91.3944 131.855 90.5479 133.287ZM190.659 133.933C189.909 134.801 189.191 135.731 188.745 136.804C188.448 137.519 187.944 138.959 188.764 139.51C189.574 140.056 190.837 139.132 191.429 138.619C192.268 137.895 192.893 136.952 193.434 135.989C194.362 134.346 194.96 132.536 195.461 130.716C193.678 131.418 191.928 132.462 190.659 133.933ZM83.6828 136.487C84.2341 137.444 84.8668 138.381 85.7116 139.098C86.3095 139.605 87.5803 140.518 88.3857 139.964C89.2003 139.407 88.6828 137.97 88.3793 137.258C87.924 136.19 87.1981 135.266 86.4411 134.405C85.1584 132.945 83.3976 131.917 81.6094 131.232C82.1268 133.047 82.7412 134.85 83.6828 136.487ZM180.2 144.068C180.163 145.247 180.406 149.686 182.342 149.333C184.266 148.981 184.107 145.26 183.814 143.909C183.388 141.947 182.066 140.223 180.541 138.992C180.436 140.687 180.252 142.369 180.2 144.068ZM93.3747 144.32C93.094 145.672 92.9688 149.395 94.8969 149.728C96.836 150.065 97.038 145.623 96.9914 144.445C96.9228 142.746 96.7245 141.065 96.6038 139.373C95.0898 140.618 93.7834 142.352 93.3747 144.32ZM187.239 145.692C186.329 146.451 185.403 147.223 184.762 148.244C184.352 148.897 183.708 150.196 184.521 150.808C185.32 151.413 186.72 150.766 187.453 150.351C188.459 149.781 189.309 149.014 190.092 148.162C191.4 146.733 192.557 144.946 193.382 143.183C191.219 143.54 188.955 144.264 187.239 145.692ZM87.1368 148.628C87.9267 149.473 88.7834 150.231 89.7945 150.793C90.5305 151.201 91.9375 151.834 92.7311 151.224C93.5383 150.604 92.8819 149.311 92.4659 148.662C91.8159 147.645 90.8834 146.882 89.9655 146.132C88.2376 144.718 85.9675 144.016 83.8008 143.679C84.6428 145.433 85.8139 147.212 87.1368 148.628ZM152.814 150.037L156.25 153.473L159.689 150.037L156.25 146.6L152.814 150.037ZM135.098 150.037L138.534 153.473L141.973 150.037L138.534 146.6L135.098 150.037ZM117.382 150.037L120.819 153.473L124.257 150.037L120.819 146.6L117.382 150.037ZM174.328 154.049C174.115 155.174 173.64 159.329 175.673 159.043C177.647 158.767 178.291 155.34 178.294 153.742C178.296 151.665 177.346 149.611 176.092 148.012C175.495 150.016 174.718 151.984 174.328 154.049ZM98.9844 154.1C99.0018 155.699 99.6765 159.119 101.653 159.378C103.688 159.645 103.176 155.495 102.953 154.373C102.544 152.311 101.749 150.351 101.134 148.352C99.895 149.963 98.9625 152.023 98.9844 154.1ZM181.745 156.395C180.667 156.885 179.563 157.425 178.638 158.185C177.973 158.733 176.722 159.913 177.178 160.91C177.627 161.891 179.266 161.687 180.086 161.513C181.209 161.276 182.258 160.757 183.224 160.143C185.12 158.937 186.911 157.283 188.303 155.503C187.826 155.469 187.336 155.45 186.842 155.45C185.101 155.45 183.295 155.692 181.745 156.395ZM88.9918 155.954C90.3998 157.72 92.2054 159.357 94.1106 160.545C95.0843 161.152 96.1366 161.66 97.2629 161.889C98.0839 162.054 99.7241 162.244 100.165 161.258C100.611 160.258 99.352 159.089 98.6791 158.547C97.7475 157.796 96.6394 157.265 95.557 156.786C94.0512 156.118 92.3105 155.886 90.6237 155.886C90.0706 155.886 89.523 155.911 88.9918 155.954ZM165.952 162.273C165.581 163.273 164.289 166.718 166.114 167.148C167.101 167.383 168.121 166.456 168.674 165.74C169.413 164.784 169.999 163.643 170.306 162.466C170.847 160.399 170.352 157.945 169.465 156.043C168.321 158.123 166.787 160.021 165.952 162.273ZM107.05 162.752C107.369 163.927 107.964 165.063 108.712 166.011C109.271 166.723 110.3 167.64 111.285 167.397C113.105 166.948 111.783 163.517 111.402 162.519C110.547 160.275 108.996 158.392 107.834 156.323C106.964 158.233 106.491 160.69 107.05 162.752ZM156.093 167.237C155.351 168.133 152.744 171.568 154.428 172.712C155.344 173.334 156.731 172.564 157.497 172.046C158.472 171.384 159.246 170.386 159.866 169.384C161.11 167.374 161.229 164.695 160.813 162.403C159.142 163.885 157.52 165.513 156.093 167.237ZM117.553 169.574C118.181 170.571 118.964 171.564 119.947 172.215C120.717 172.727 122.11 173.484 123.021 172.854C124.694 171.696 122.056 168.285 121.306 167.394C119.863 165.684 118.227 164.07 116.542 162.604C116.147 164.899 116.292 167.576 117.553 169.574ZM173.582 166.009C171.698 166.264 169.138 166.734 167.79 168.251C166.776 169.392 167.657 170.356 168.864 170.666C170.99 171.214 173.131 170.568 175.098 169.759C176.812 169.055 178.671 168.033 180.112 166.841C178.474 166.325 176.694 165.92 174.949 165.92C174.49 165.92 174.033 165.948 173.582 166.009ZM97.2858 167.216C98.7358 168.394 100.605 169.4 102.324 170.089C104.3 170.879 106.446 171.507 108.567 170.94C109.77 170.618 110.643 169.645 109.62 168.514C108.257 167.009 105.693 166.563 103.808 166.324C103.39 166.271 102.967 166.247 102.543 166.247C100.764 166.247 98.9506 166.674 97.2858 167.216ZM143.595 171.064H139.517L142.817 173.462L141.556 177.34L144.856 174.944L148.156 177.34L146.895 173.462L150.195 171.064H146.116L144.856 167.186L143.595 171.064ZM130.954 171.064H126.875L130.175 173.462L128.915 177.34L132.214 174.944L135.515 177.34L134.254 173.462L137.553 171.064H133.475L132.214 167.186L130.954 171.064ZM158.579 173.587C157.605 173.683 156.509 173.831 155.73 174.496C154.566 175.49 155.439 176.623 156.515 177.177C160.314 179.134 165.145 177.658 168.872 176.239C166.887 174.955 164.594 173.944 162.255 173.618C161.626 173.532 160.998 173.493 160.371 173.493C159.774 173.493 159.178 173.528 158.579 173.587ZM115.203 173.831C112.865 174.178 110.583 175.21 108.61 176.511C112.35 177.896 117.192 179.33 120.974 177.338C122.046 176.773 122.908 175.633 121.734 174.651C120.95 173.992 119.852 173.853 118.878 173.767C118.327 173.717 117.777 173.689 117.228 173.689C116.552 173.689 115.878 173.732 115.203 173.831Z" fill="white"/>
<defs>
<filter id="filter0_f_14222_43413" x="0.000312805" y="-5.34058e-05" width="268.419" height="264.927" filterUnits="userSpaceOnUse" color-interpolation-filters="sRGB">
<feFlood flood-opacity="0" result="BackgroundImageFix"/>
<feBlend mode="normal" in="SourceGraphic" in2="BackgroundImageFix" result="shape"/>
<feGaussianBlur stdDeviation="35.0926" result="effect1_foregroundBlur_14222_43413"/>
</filter>
<linearGradient id="paint0_linear_14222_43413" x1="138.867" y1="310.714" x2="138.867" y2="-18.5562" gradientUnits="userSpaceOnUse">
<stop stop-color="#C59158"/>
<stop offset="0.192458" stop-color="#C59158"/>
<stop offset="0.402404" stop-color="#FFF5E6"/>
<stop offset="0.614201" stop-color="#F5DEAF"/>
<stop offset="0.807016" stop-color="#C59158"/>
<stop offset="1" stop-color="#C59158"/>
</linearGradient>
<linearGradient id="paint1_linear_14222_43413" x1="198.523" y1="183.536" x2="77.6045" y2="48.9402" gradientUnits="userSpaceOnUse">
<stop stop-color="#9B6220"/>
<stop offset="0.155" stop-color="#CE8F45"/>
<stop offset="0.315" stop-color="#F9D190"/>
<stop offset="0.435" stop-color="#E7BC60"/>
<stop offset="0.807016" stop-color="#D59347"/>
<stop offset="1" stop-color="#9B6220"/>
</linearGradient>
<linearGradient id="paint2_linear_14222_43413" x1="138.524" y1="54.27" x2="138.524" y2="208.053" gradientUnits="userSpaceOnUse">
<stop stop-color="#625534"/>
<stop offset="0.994647" stop-color="#4B361A"/>
</linearGradient>
<linearGradient id="paint3_linear_14222_43413" x1="140.477" y1="205.908" x2="136.916" y2="58.7163" gradientUnits="userSpaceOnUse">
<stop stop-color="#5C472B"/>
<stop offset="1" stop-color="#51401E"/>
</linearGradient>
<linearGradient id="paint4_linear_14222_43413" x1="53.6138" y1="402.266" x2="56.932" y2="-125.204" gradientUnits="userSpaceOnUse">
<stop stop-color="#835B2D"/>
<stop offset="0.001155" stop-color="#835B2D"/>
<stop offset="1" stop-color="#F9E07E"/>
</linearGradient>
<clipPath id="clip0_14222_43413">
<rect width="31.1553" height="31.1553" fill="white" transform="translate(122.777 110.114)"/>
</clipPath>
</defs>
</svg>
