<svg width="319" height="261" viewBox="0 0 319 261" fill="none" xmlns="http://www.w3.org/2000/svg">
<g clip-path="url(#clip0_234_5470)">
<g clip-path="url(#clip1_234_5470)">
<path fill-rule="evenodd" clip-rule="evenodd" d="M154.329 -178.67C128.945 -178.67 104.601 -168.833 86.6516 -151.322L0.0400391 -66.8282V-28.1523C0.0400391 -0.82782 12.0712 23.7551 31.2477 40.83C12.0712 57.9049 0.0400391 82.4878 0.0400391 109.812V148.488L86.6516 232.983C104.601 250.493 128.945 260.33 154.329 260.33C182.338 260.33 207.537 248.593 225.04 229.885C242.543 248.593 267.742 260.33 295.751 260.33C321.135 260.33 345.479 250.493 363.429 232.983L450.04 148.488V109.812C450.04 82.4878 438.009 57.9049 418.833 40.83C438.009 23.7551 450.04 -0.82782 450.04 -28.1523V-66.8282L363.429 -151.322C345.479 -168.833 321.135 -178.67 295.751 -178.67C267.742 -178.67 242.543 -166.933 225.04 -148.225C207.537 -166.933 182.338 -178.67 154.329 -178.67ZM289.827 40.83C288.748 39.8697 287.689 38.883 286.652 37.8711L225.04 -22.2346L163.428 37.8711C162.391 38.883 161.332 39.8697 160.254 40.83C161.332 41.7903 162.391 42.777 163.428 43.7888L225.04 103.895L286.652 43.7888C287.689 42.777 288.748 41.7903 289.827 40.83ZM250.04 148.488V166.959C250.04 191.587 270.506 211.553 295.751 211.553C307.874 211.553 319.501 206.854 328.073 198.491L400.041 128.283V109.812C400.041 85.1844 379.575 65.2187 354.33 65.2187C342.207 65.2187 330.58 69.9171 322.007 78.28L250.04 148.488ZM200.04 148.488L128.073 78.28C119.5 69.9171 107.874 65.2187 95.7508 65.2187C70.5054 65.2187 50.04 85.1844 50.04 109.812V128.283L122.007 198.491C130.579 206.854 142.206 211.553 154.329 211.553C179.574 211.553 200.04 191.587 200.04 166.959V148.488ZM200.04 -85.2988V-66.8282L128.073 3.37999C119.5 11.743 107.874 16.4413 95.7508 16.4413C70.5054 16.4413 50.04 -3.52438 50.04 -28.1523V-46.6232L122.007 -116.831C130.579 -125.194 142.206 -129.892 154.329 -129.892C179.574 -129.892 200.04 -109.927 200.04 -85.2988ZM322.007 3.37999L250.04 -66.8282V-85.2988C250.04 -109.927 270.506 -129.892 295.751 -129.892C307.874 -129.892 319.501 -125.194 328.073 -116.831L400.041 -46.6232V-28.1523C400.041 -3.52438 379.575 16.4413 354.33 16.4413C342.207 16.4413 330.58 11.743 322.007 3.37999Z" fill="#0066FF"/>
</g>
</g>
<defs>
<clipPath id="clip0_234_5470">
<rect width="450" height="450" fill="white" transform="translate(0 -189.44)"/>
</clipPath>
<clipPath id="clip1_234_5470">
<rect width="450" height="450" fill="white" transform="translate(0 -189.44)"/>
</clipPath>
</defs>
</svg>
