<svg width="331" height="34" viewBox="0 0 331 34" fill="none" xmlns="http://www.w3.org/2000/svg">
<path d="M22.09 9.66805H17.513C17.3824 8.91745 17.1418 8.25252 16.7909 7.67325C16.4401 7.08583 16.0036 6.58815 15.4815 6.18021C14.9593 5.77228 14.3637 5.46633 13.6947 5.26236C13.0339 5.05024 12.32 4.94418 11.5531 4.94418C10.1906 4.94418 8.98307 5.28684 7.9306 5.97217C6.87813 6.64934 6.05411 7.6447 5.45852 8.95825C4.86294 10.2636 4.56515 11.8587 4.56515 13.7433C4.56515 15.6606 4.86294 17.276 5.45852 18.5896C6.06227 19.895 6.88629 20.8822 7.9306 21.5512C8.98307 22.212 10.1865 22.5425 11.5408 22.5425C12.2914 22.5425 12.9931 22.4446 13.6458 22.2487C14.3066 22.0448 14.8981 21.747 15.4203 21.3554C15.9506 20.9638 16.3952 20.4824 16.7542 19.9113C17.1214 19.3402 17.3743 18.6875 17.513 17.9532L22.09 17.9777C21.9187 19.1688 21.5475 20.2866 20.9763 21.3309C20.4134 22.3752 19.675 23.2971 18.7613 24.0967C17.8475 24.8881 16.7787 25.5081 15.5549 25.9569C14.3311 26.3974 12.9727 26.6177 11.4796 26.6177C9.27679 26.6177 7.31054 26.1078 5.5809 25.088C3.85126 24.0681 2.48876 22.5955 1.4934 20.67C0.498043 18.7446 0.000362773 16.4357 0.000362773 13.7433C0.000362773 11.0428 0.502122 8.73388 1.50564 6.81659C2.50916 4.89114 3.87574 3.4185 5.60538 2.39866C7.33502 1.37883 9.29311 0.868911 11.4796 0.868911C12.8748 0.868911 14.172 1.06472 15.3713 1.45634C16.5707 1.84795 17.6394 2.42314 18.5777 3.1819C19.5159 3.9325 20.2869 4.85443 20.8907 5.94769C21.5026 7.0328 21.9024 8.27292 22.09 9.66805ZM34.2515 26.6422C32.4158 26.6422 30.8249 26.2383 29.4787 25.4306C28.1325 24.6229 27.0882 23.4929 26.3458 22.0407C25.6115 20.5885 25.2444 18.8914 25.2444 16.9497C25.2444 15.0079 25.6115 13.3068 26.3458 11.8464C27.0882 10.386 28.1325 9.25196 29.4787 8.44425C30.8249 7.63654 32.4158 7.23269 34.2515 7.23269C36.0872 7.23269 37.6782 7.63654 39.0244 8.44425C40.3706 9.25196 41.4108 10.386 42.1451 11.8464C42.8875 13.3068 43.2587 15.0079 43.2587 16.9497C43.2587 18.8914 42.8875 20.5885 42.1451 22.0407C41.4108 23.4929 40.3706 24.6229 39.0244 25.4306C37.6782 26.2383 36.0872 26.6422 34.2515 26.6422ZM34.276 23.0932C35.2714 23.0932 36.1036 22.8199 36.7726 22.2732C37.4416 21.7184 37.9393 20.976 38.2656 20.0459C38.6001 19.1158 38.7674 18.0797 38.7674 16.9374C38.7674 15.7871 38.6001 14.7468 38.2656 13.8167C37.9393 12.8785 37.4416 12.132 36.7726 11.5772C36.1036 11.0224 35.2714 10.745 34.276 10.745C33.2562 10.745 32.4077 11.0224 31.7305 11.5772C31.0615 12.132 30.5597 12.8785 30.2252 13.8167C29.8989 14.7468 29.7357 15.7871 29.7357 16.9374C29.7357 18.0797 29.8989 19.1158 30.2252 20.0459C30.5597 20.976 31.0615 21.7184 31.7305 22.2732C32.4077 22.8199 33.2562 23.0932 34.276 23.0932ZM47.0189 26.2751V7.47745H51.2532V10.6716H51.4735C51.8651 9.59462 52.5137 8.75428 53.4194 8.15054C54.325 7.53864 55.406 7.23269 56.6624 7.23269C57.9352 7.23269 59.0081 7.54272 59.881 8.16278C60.7622 8.77468 61.3822 9.61094 61.7412 10.6716H61.937C62.3531 9.62726 63.0548 8.79507 64.042 8.17501C65.0373 7.5468 66.2162 7.23269 67.5788 7.23269C69.3084 7.23269 70.7198 7.77932 71.8131 8.87258C72.9064 9.96584 73.453 11.5609 73.453 13.6577V26.2751H69.0106V14.343C69.0106 13.1763 68.7006 12.3237 68.0805 11.7852C67.4604 11.2386 66.7017 10.9653 65.8042 10.9653C64.7354 10.9653 63.8992 11.2998 63.2954 11.9688C62.6999 12.6297 62.4021 13.4904 62.4021 14.551V26.2751H58.0576V14.1594C58.0576 13.1885 57.7639 12.4135 57.1764 11.8342C56.5972 11.2549 55.8384 10.9653 54.9002 10.9653C54.2638 10.9653 53.6845 11.1285 53.1624 11.4548C52.6402 11.773 52.2241 12.2258 51.9141 12.8132C51.604 13.3925 51.449 14.0697 51.449 14.8447V26.2751H47.0189ZM77.9474 33.3242V7.47745H82.3042V10.5859H82.5612C82.7896 10.129 83.1119 9.64358 83.528 9.12958C83.9441 8.60742 84.507 8.16278 85.2168 7.79563C85.9266 7.42034 86.8322 7.23269 87.9336 7.23269C89.3859 7.23269 90.6954 7.60391 91.8621 8.34635C93.0369 9.08063 93.967 10.1698 94.6523 11.6139C95.3458 13.0498 95.6926 14.8121 95.6926 16.9007C95.6926 18.9649 95.354 20.719 94.6768 22.1631C93.9996 23.6072 93.0777 24.7086 91.911 25.4673C90.7443 26.2261 89.4226 26.6055 87.9459 26.6055C86.8689 26.6055 85.9756 26.426 85.2658 26.067C84.556 25.708 83.9848 25.2756 83.5524 24.7698C83.1282 24.2558 82.7978 23.7703 82.5612 23.3135H82.3776V33.3242H77.9474ZM82.2919 16.8763C82.2919 18.0919 82.4632 19.1566 82.8059 20.0704C83.1567 20.9841 83.6585 21.698 84.3112 22.212C84.972 22.7179 85.7716 22.9708 86.7098 22.9708C87.6889 22.9708 88.5088 22.7097 89.1697 22.1876C89.8305 21.6572 90.3282 20.9352 90.6627 20.0214C91.0054 19.0995 91.1767 18.0511 91.1767 16.8763C91.1767 15.7096 91.0095 14.6734 90.675 13.7678C90.3405 12.8622 89.8428 12.1524 89.1819 11.6384C88.5211 11.1244 87.697 10.8674 86.7098 10.8674C85.7634 10.8674 84.9598 11.1162 84.299 11.6139C83.6381 12.1116 83.1363 12.8091 82.7937 13.7066C82.4592 14.6041 82.2919 15.6606 82.2919 16.8763ZM103.917 1.21158V26.2751H99.4864V1.21158H103.917ZM108.472 26.2751V7.47745H112.902V26.2751H108.472ZM110.699 4.80956C109.998 4.80956 109.394 4.57703 108.888 4.11199C108.382 3.63878 108.129 3.07176 108.129 2.4109C108.129 1.74189 108.382 1.17486 108.888 0.709816C109.394 0.236613 109.998 1.11512e-05 110.699 1.11512e-05C111.409 1.11512e-05 112.013 0.236613 112.511 0.709816C113.017 1.17486 113.269 1.74189 113.269 2.4109C113.269 3.07176 113.017 3.63878 112.511 4.11199C112.013 4.57703 111.409 4.80956 110.699 4.80956ZM122.867 26.6544C121.676 26.6544 120.603 26.4423 119.649 26.0181C118.702 25.5856 117.951 24.9493 117.397 24.1089C116.85 23.2686 116.577 22.2324 116.577 21.0005C116.577 19.9398 116.773 19.0628 117.164 18.3693C117.556 17.6758 118.09 17.121 118.767 16.7049C119.445 16.2888 120.207 15.9747 121.056 15.7626C121.913 15.5423 122.798 15.3832 123.712 15.2853C124.813 15.1711 125.706 15.0691 126.392 14.9794C127.077 14.8815 127.575 14.7346 127.885 14.5388C128.203 14.3348 128.362 14.0207 128.362 13.5965V13.523C128.362 12.6011 128.089 11.8872 127.542 11.3814C126.995 10.8755 126.208 10.6226 125.18 10.6226C124.095 10.6226 123.234 10.8592 122.598 11.3324C121.97 11.8056 121.545 12.3645 121.325 13.009L117.189 12.4216C117.515 11.2794 118.053 10.3248 118.804 9.55791C119.555 8.78284 120.473 8.20357 121.558 7.82011C122.643 7.42849 123.842 7.23269 125.156 7.23269C126.061 7.23269 126.963 7.33875 127.86 7.55087C128.758 7.763 129.578 8.11382 130.32 8.60334C131.063 9.08471 131.658 9.74148 132.107 10.5737C132.564 11.4059 132.792 12.4461 132.792 13.6944V26.2751H128.533V23.6928H128.386C128.117 24.215 127.738 24.7045 127.248 25.1614C126.767 25.6101 126.159 25.9732 125.425 26.2506C124.699 26.5198 123.846 26.6544 122.867 26.6544ZM124.017 23.3991C124.907 23.3991 125.678 23.2237 126.33 22.8729C126.983 22.5139 127.485 22.0407 127.836 21.4533C128.195 20.8658 128.374 20.2254 128.374 19.5319V17.3168C128.236 17.431 127.999 17.5371 127.664 17.635C127.338 17.7329 126.971 17.8186 126.563 17.892C126.155 17.9654 125.751 18.0307 125.351 18.0878C124.952 18.1449 124.605 18.1939 124.311 18.2347C123.65 18.3244 123.059 18.4713 122.537 18.6752C122.015 18.8792 121.603 19.1648 121.301 19.5319C120.999 19.8909 120.848 20.3559 120.848 20.927C120.848 21.7429 121.146 22.3589 121.741 22.775C122.337 23.1911 123.096 23.3991 124.017 23.3991ZM141.677 15.2608V26.2751H137.247V7.47745H141.481V10.6716H141.701C142.134 9.6191 142.823 8.78284 143.77 8.16278C144.724 7.54272 145.903 7.23269 147.306 7.23269C148.604 7.23269 149.734 7.51008 150.696 8.06487C151.667 8.61966 152.418 9.42329 152.948 10.4758C153.487 11.5282 153.752 12.8051 153.744 14.3063V26.2751H149.313V14.9916C149.313 13.7352 148.987 12.752 148.334 12.0422C147.69 11.3324 146.797 10.9775 145.654 10.9775C144.879 10.9775 144.19 11.1489 143.586 11.4915C142.99 11.826 142.521 12.3115 142.179 12.9478C141.844 13.5842 141.677 14.3552 141.677 15.2608ZM166.447 26.6422C164.57 26.6422 162.959 26.2302 161.613 25.4062C160.275 24.5821 159.243 23.444 158.516 21.9917C157.799 20.5313 157.44 18.8507 157.44 16.9497C157.44 15.0405 157.807 13.3558 158.541 11.8954C159.275 10.4268 160.311 9.28459 161.649 8.46873C162.996 7.6447 164.587 7.23269 166.422 7.23269C167.948 7.23269 169.298 7.51416 170.473 8.07711C171.656 8.6319 172.598 9.41921 173.3 10.439C174.002 11.4507 174.401 12.6337 174.499 13.9881H170.265C170.094 13.0825 169.686 12.3278 169.041 11.724C168.405 11.1121 167.552 10.8062 166.483 10.8062C165.578 10.8062 164.782 11.0509 164.097 11.5405C163.412 12.0218 162.877 12.7153 162.494 13.6209C162.119 14.5266 161.931 15.6117 161.931 16.8763C161.931 18.1572 162.119 19.2586 162.494 20.1805C162.869 21.0943 163.395 21.8 164.073 22.2977C164.758 22.7872 165.561 23.032 166.483 23.032C167.136 23.032 167.719 22.9096 168.233 22.6648C168.756 22.4119 169.192 22.0489 169.543 21.5757C169.894 21.1025 170.134 20.5273 170.265 19.8501H174.499C174.393 21.18 174.002 22.3589 173.324 23.3869C172.647 24.4067 171.725 25.2063 170.559 25.7855C169.392 26.3566 168.021 26.6422 166.447 26.6422ZM186.459 26.6422C184.574 26.6422 182.947 26.2506 181.576 25.4673C180.213 24.676 179.165 23.5582 178.431 22.1141C177.697 20.6619 177.329 18.9526 177.329 16.9864C177.329 15.0528 177.697 13.3558 178.431 11.8954C179.173 10.4268 180.209 9.28459 181.539 8.46873C182.869 7.6447 184.432 7.23269 186.226 7.23269C187.385 7.23269 188.478 7.42034 189.506 7.79563C190.542 8.16278 191.456 8.73388 192.248 9.50896C193.047 10.284 193.675 11.2712 194.132 12.4706C194.589 13.6617 194.818 15.0813 194.818 16.7294V18.0878H179.41V15.1017H190.571C190.563 14.2532 190.379 13.4986 190.02 12.8377C189.661 12.1687 189.159 11.6425 188.515 11.259C187.879 10.8755 187.136 10.6838 186.288 10.6838C185.382 10.6838 184.587 10.9041 183.901 11.3447C183.216 11.7771 182.681 12.3482 182.298 13.058C181.923 13.7596 181.731 14.5306 181.723 15.371V17.9777C181.723 19.0709 181.923 20.0092 182.322 20.7924C182.722 21.5675 183.281 22.1631 183.999 22.5792C184.717 22.9871 185.557 23.1911 186.52 23.1911C187.165 23.1911 187.748 23.1013 188.27 22.9218C188.792 22.7342 189.245 22.4609 189.629 22.1019C190.012 21.7429 190.302 21.2983 190.497 20.7679L194.634 21.233C194.373 22.3263 193.875 23.2808 193.141 24.0967C192.415 24.9044 191.485 25.5326 190.351 25.9813C189.217 26.4219 187.919 26.6422 186.459 26.6422ZM220.93 8.10159C220.816 7.0328 220.335 6.20061 219.486 5.60503C218.646 5.00944 217.553 4.71165 216.207 4.71165C215.26 4.71165 214.448 4.85443 213.771 5.13998C213.094 5.42554 212.576 5.81307 212.217 6.30259C211.858 6.79212 211.674 7.35099 211.666 7.97921C211.666 8.50136 211.785 8.95417 212.021 9.33763C212.266 9.72108 212.596 10.0474 213.012 10.3167C213.428 10.5777 213.889 10.798 214.395 10.9775C214.901 11.157 215.411 11.3079 215.925 11.4303L218.275 12.0178C219.221 12.238 220.131 12.5358 221.004 12.9111C221.885 13.2864 222.672 13.7596 223.366 14.3307C224.067 14.9018 224.622 15.5913 225.03 16.399C225.438 17.2067 225.642 18.1531 225.642 19.2382C225.642 20.7068 225.267 21.9999 224.516 23.1176C223.766 24.2272 222.68 25.0961 221.261 25.7243C219.849 26.3444 218.14 26.6544 216.133 26.6544C214.183 26.6544 212.49 26.3526 211.054 25.7488C209.627 25.1451 208.509 24.2639 207.701 23.1054C206.902 21.9469 206.469 20.5354 206.404 18.8711H210.871C210.936 19.744 211.205 20.4702 211.678 21.0494C212.152 21.6287 212.768 22.0611 213.526 22.3466C214.293 22.6322 215.15 22.775 216.096 22.775C217.084 22.775 217.948 22.6281 218.691 22.3344C219.441 22.0325 220.029 21.6164 220.453 21.0861C220.877 20.5477 221.094 19.9194 221.102 19.2015C221.094 18.5488 220.902 18.0103 220.527 17.5861C220.151 17.1536 219.625 16.7947 218.948 16.5091C218.279 16.2154 217.496 15.9543 216.598 15.7259L213.747 14.9916C211.683 14.4613 210.051 13.6577 208.851 12.5807C207.66 11.4956 207.065 10.0556 207.065 8.26068C207.065 6.78396 207.464 5.49081 208.264 4.38123C209.072 3.27164 210.169 2.4109 211.556 1.799C212.943 1.17894 214.514 0.868911 216.268 0.868911C218.046 0.868911 219.605 1.17894 220.943 1.799C222.289 2.4109 223.345 3.26349 224.112 4.35675C224.879 5.44185 225.275 6.69013 225.299 8.10159H220.93ZM237.693 26.6422C235.817 26.6422 234.206 26.2302 232.859 25.4062C231.521 24.5821 230.489 23.444 229.763 21.9917C229.045 20.5313 228.686 18.8507 228.686 16.9497C228.686 15.0405 229.053 13.3558 229.788 11.8954C230.522 10.4268 231.558 9.28459 232.896 8.46873C234.242 7.6447 235.833 7.23269 237.669 7.23269C239.195 7.23269 240.545 7.51416 241.72 8.07711C242.903 8.6319 243.845 9.41921 244.547 10.439C245.248 11.4507 245.648 12.6337 245.746 13.9881H241.512C241.34 13.0825 240.932 12.3278 240.288 11.724C239.652 11.1121 238.799 10.8062 237.73 10.8062C236.825 10.8062 236.029 11.0509 235.344 11.5405C234.658 12.0218 234.124 12.7153 233.741 13.6209C233.365 14.5266 233.178 15.6117 233.178 16.8763C233.178 18.1572 233.365 19.2586 233.741 20.1805C234.116 21.0943 234.642 21.8 235.319 22.2977C236.005 22.7872 236.808 23.032 237.73 23.032C238.383 23.032 238.966 22.9096 239.48 22.6648C240.002 22.4119 240.439 22.0489 240.79 21.5757C241.14 21.1025 241.381 20.5273 241.512 19.8501H245.746C245.64 21.18 245.248 22.3589 244.571 23.3869C243.894 24.4067 242.972 25.2063 241.805 25.7855C240.639 26.3566 239.268 26.6422 237.693 26.6422ZM257.583 26.6422C255.748 26.6422 254.157 26.2383 252.81 25.4306C251.464 24.6229 250.42 23.4929 249.678 22.0407C248.943 20.5885 248.576 18.8914 248.576 16.9497C248.576 15.0079 248.943 13.3068 249.678 11.8464C250.42 10.386 251.464 9.25196 252.81 8.44425C254.157 7.63654 255.748 7.23269 257.583 7.23269C259.419 7.23269 261.01 7.63654 262.356 8.44425C263.702 9.25196 264.743 10.386 265.477 11.8464C266.219 13.3068 266.591 15.0079 266.591 16.9497C266.591 18.8914 266.219 20.5885 265.477 22.0407C264.743 23.4929 263.702 24.6229 262.356 25.4306C261.01 26.2383 259.419 26.6422 257.583 26.6422ZM257.608 23.0932C258.603 23.0932 259.435 22.8199 260.104 22.2732C260.773 21.7184 261.271 20.976 261.597 20.0459C261.932 19.1158 262.099 18.0797 262.099 16.9374C262.099 15.7871 261.932 14.7468 261.597 13.8167C261.271 12.8785 260.773 12.132 260.104 11.5772C259.435 11.0224 258.603 10.745 257.608 10.745C256.588 10.745 255.739 11.0224 255.062 11.5772C254.393 12.132 253.892 12.8785 253.557 13.8167C253.231 14.7468 253.067 15.7871 253.067 16.9374C253.067 18.0797 253.231 19.1158 253.557 20.0459C253.892 20.976 254.393 21.7184 255.062 22.2732C255.739 22.8199 256.588 23.0932 257.608 23.0932ZM270.351 26.2751V7.47745H274.646V10.6104H274.842C275.185 9.52528 275.772 8.68901 276.604 8.10159C277.445 7.506 278.403 7.20821 279.48 7.20821C279.725 7.20821 279.998 7.22045 280.3 7.24492C280.61 7.26124 280.867 7.2898 281.071 7.33059V11.4059C280.884 11.3406 280.586 11.2835 280.178 11.2345C279.778 11.1774 279.39 11.1489 279.015 11.1489C278.207 11.1489 277.481 11.3243 276.837 11.6751C276.2 12.0178 275.699 12.495 275.332 13.1069C274.964 13.7188 274.781 14.4246 274.781 15.2241V26.2751H270.351ZM284.014 26.2751V7.47745H288.445V26.2751H284.014ZM286.242 4.80956C285.54 4.80956 284.936 4.57703 284.43 4.11199C283.925 3.63878 283.672 3.07176 283.672 2.4109C283.672 1.74189 283.925 1.17486 284.43 0.709816C284.936 0.236613 285.54 1.11512e-05 286.242 1.11512e-05C286.952 1.11512e-05 287.555 0.236613 288.053 0.709816C288.559 1.17486 288.812 1.74189 288.812 2.4109C288.812 3.07176 288.559 3.63878 288.053 4.11199C287.555 4.57703 286.952 4.80956 286.242 4.80956ZM297.43 15.2608V26.2751H293V7.47745H297.235V10.6716H297.455C297.887 9.6191 298.577 8.78284 299.523 8.16278C300.478 7.54272 301.657 7.23269 303.06 7.23269C304.357 7.23269 305.487 7.51008 306.45 8.06487C307.421 8.61966 308.171 9.42329 308.702 10.4758C309.24 11.5282 309.505 12.8051 309.497 14.3063V26.2751H305.067V14.9916C305.067 13.7352 304.741 12.752 304.088 12.0422C303.443 11.3324 302.55 10.9775 301.408 10.9775C300.633 10.9775 299.943 11.1489 299.339 11.4915C298.744 11.826 298.275 12.3115 297.932 12.9478C297.598 13.5842 297.43 14.3552 297.43 15.2608ZM322.176 33.7158C320.585 33.7158 319.218 33.4996 318.076 33.0672C316.934 32.6429 316.016 32.0718 315.322 31.3538C314.629 30.6359 314.147 29.8404 313.878 28.9674L317.868 28.0006C318.047 28.3678 318.308 28.7308 318.651 29.0898C318.994 29.4569 319.455 29.7588 320.034 29.9954C320.621 30.2402 321.36 30.3626 322.249 30.3626C323.505 30.3626 324.546 30.0566 325.37 29.4447C326.194 28.841 326.606 27.8456 326.606 26.4586V22.8974H326.386C326.157 23.3542 325.823 23.8234 325.382 24.3047C324.95 24.7861 324.374 25.19 323.656 25.5163C322.947 25.8426 322.053 26.0058 320.976 26.0058C319.532 26.0058 318.223 25.6672 317.048 24.9901C315.881 24.3047 314.951 23.2849 314.258 21.9306C313.572 20.5681 313.23 18.8629 313.23 16.8151C313.23 14.7509 313.572 13.009 314.258 11.5894C314.951 10.1617 315.885 9.08063 317.06 8.34635C318.235 7.60391 319.544 7.23269 320.989 7.23269C322.09 7.23269 322.996 7.42034 323.705 7.79563C324.423 8.16278 324.994 8.60742 325.419 9.12958C325.843 9.64358 326.165 10.129 326.386 10.5859H326.63V7.47745H330.999V26.581C330.999 28.1883 330.616 29.5181 329.849 30.5706C329.082 31.6231 328.034 32.4104 326.704 32.9325C325.374 33.4547 323.864 33.7158 322.176 33.7158ZM322.212 22.5302C323.151 22.5302 323.95 22.3018 324.611 21.8449C325.272 21.388 325.774 20.7312 326.116 19.8746C326.459 19.0179 326.63 17.9899 326.63 16.7906C326.63 15.6076 326.459 14.5714 326.116 13.6821C325.782 12.7928 325.284 12.1034 324.623 11.6139C323.971 11.1162 323.167 10.8674 322.212 10.8674C321.225 10.8674 320.401 11.1244 319.74 11.6384C319.079 12.1524 318.582 12.8581 318.247 13.7556C317.913 14.6449 317.745 15.6565 317.745 16.7906C317.745 17.941 317.913 18.9486 318.247 19.8134C318.59 20.67 319.092 21.3391 319.753 21.8204C320.422 22.2936 321.241 22.5302 322.212 22.5302Z" fill="#F7FAFC"/>
</svg>
