<svg width="1047" height="99" viewBox="0 0 1047 99" fill="none" xmlns="http://www.w3.org/2000/svg">
<path d="M1.1834 27.366V1.22415H10.5016C12.5354 1.22415 14.2203 1.59432 15.5563 2.33467C16.8924 3.07502 17.8922 4.08767 18.556 5.37264C19.2198 6.6491 19.5516 8.08725 19.5516 9.68708C19.5516 11.2954 19.2155 12.7421 18.5432 14.027C17.8795 15.3035 16.8753 16.3162 15.5308 17.065C14.1948 17.8054 12.5141 18.1755 10.4888 18.1755H4.08096V14.8312H10.1314C11.4163 14.8312 12.4588 14.61 13.2587 14.1674C14.0586 13.7164 14.6458 13.1037 15.0202 12.3293C15.3946 11.555 15.5819 10.6742 15.5819 9.68708C15.5819 8.69995 15.3946 7.82345 15.0202 7.05757C14.6458 6.29169 14.0544 5.69176 13.2459 5.25776C12.446 4.82377 11.3908 4.60677 10.0803 4.60677H5.12766V27.366H1.1834ZM31.1633 27.7617C29.3252 27.7617 27.7212 27.3405 26.3511 26.498C24.981 25.6556 23.9173 24.477 23.1599 22.9623C22.4026 21.4475 22.0239 19.6775 22.0239 17.6522C22.0239 15.6184 22.4026 13.8398 23.1599 12.3166C23.9173 10.7933 24.981 9.61049 26.3511 8.76803C27.7212 7.92556 29.3252 7.50433 31.1633 7.50433C33.0014 7.50433 34.6055 7.92556 35.9756 8.76803C37.3457 9.61049 38.4094 10.7933 39.1667 12.3166C39.9241 13.8398 40.3028 15.6184 40.3028 17.6522C40.3028 19.6775 39.9241 21.4475 39.1667 22.9623C38.4094 24.477 37.3457 25.6556 35.9756 26.498C34.6055 27.3405 33.0014 27.7617 31.1633 27.7617ZM31.1761 24.5578C32.3675 24.5578 33.3546 24.243 34.1375 23.6132C34.9204 22.9835 35.499 22.1453 35.8735 21.0986C36.2564 20.0519 36.4479 18.8989 36.4479 17.6394C36.4479 16.3885 36.2564 15.2397 35.8735 14.193C35.499 13.1378 34.9204 12.2911 34.1375 11.6528C33.3546 11.0146 32.3675 10.6955 31.1761 10.6955C29.9762 10.6955 28.9806 11.0146 28.1892 11.6528C27.4063 12.2911 26.8234 13.1378 26.4404 14.193C26.066 15.2397 25.8788 16.3885 25.8788 17.6394C25.8788 18.8989 26.066 20.0519 26.4404 21.0986C26.8234 22.1453 27.4063 22.9835 28.1892 23.6132C28.9806 24.243 29.9762 24.5578 31.1761 24.5578ZM47.4979 27.366L41.7283 7.75962H45.6726L49.5147 22.1581H49.7062L53.5611 7.75962H57.5054L61.3347 22.0943H61.5262L65.3428 7.75962H69.2871L63.5303 27.366H59.6371L55.6545 13.2101H55.3609L51.3784 27.366H47.4979ZM80.0436 27.7617C78.1118 27.7617 76.4482 27.349 75.0526 26.5236C73.6655 25.6896 72.5933 24.5195 71.8359 23.0133C71.0871 21.4986 70.7126 19.7243 70.7126 17.6905C70.7126 15.6822 71.0871 13.9122 71.8359 12.3804C72.5933 10.8487 73.6485 9.65304 75.0015 8.79355C76.3631 7.93407 77.9544 7.50433 79.7755 7.50433C80.8818 7.50433 81.954 7.68729 82.9922 8.05321C84.0304 8.41913 84.9622 8.99353 85.7876 9.77643C86.6131 10.5593 87.2641 11.5762 87.7406 12.8272C88.2171 14.0696 88.4554 15.5801 88.4554 17.3586V18.7116H72.8699V15.8524H84.7154C84.7154 14.8482 84.5112 13.959 84.1027 13.1846C83.6942 12.4017 83.1198 11.7847 82.3795 11.3337C81.6476 10.8827 80.7882 10.6572 79.801 10.6572C78.7288 10.6572 77.7927 10.921 76.9928 11.4486C76.2014 11.9677 75.5887 12.6485 75.1547 13.4909C74.7292 14.3249 74.5165 15.2312 74.5165 16.2098V18.4436C74.5165 19.7541 74.7462 20.8689 75.2058 21.7879C75.6738 22.707 76.3248 23.409 77.1588 23.8941C77.9927 24.3706 78.9671 24.6089 80.0818 24.6089C80.8052 24.6089 81.4647 24.5068 82.0604 24.3025C82.656 24.0898 83.1709 23.7749 83.6049 23.358C84.0389 22.941 84.3707 22.4261 84.6005 21.8134L88.2129 22.4644C87.9236 23.5281 87.4045 24.46 86.6556 25.2599C85.9153 26.0513 84.9834 26.6682 83.8602 27.1107C82.7454 27.5447 81.4732 27.7617 80.0436 27.7617ZM91.9712 27.366V7.75962H95.6601V10.8742H95.8644C96.2218 9.81898 96.8515 8.98928 97.7535 8.38509C98.6641 7.77239 99.6937 7.46604 100.843 7.46604C101.081 7.46604 101.362 7.47455 101.685 7.49157C102.017 7.50858 102.276 7.52986 102.464 7.55539V11.2061C102.31 11.1635 102.038 11.1167 101.647 11.0657C101.255 11.0061 100.864 10.9763 100.472 10.9763C99.5704 10.9763 98.7662 11.1678 98.0599 11.5507C97.3621 11.9251 96.8089 12.4485 96.4005 13.1208C95.992 13.7845 95.7878 14.5419 95.7878 15.3928V27.366H91.9712ZM115.537 7.75962V10.8231H104.457V7.75962H115.537ZM107.495 27.366V5.48752C107.495 4.26212 107.763 3.24521 108.299 2.43679C108.835 1.61985 109.546 1.01141 110.431 0.611452C111.316 0.202984 112.278 -0.00124995 113.316 -0.00124995C114.082 -0.00124995 114.737 0.0625735 115.282 0.19022C115.826 0.309356 116.23 0.419982 116.494 0.522099L115.601 3.61113C115.422 3.56007 115.192 3.5005 114.911 3.43243C114.631 3.35584 114.29 3.31754 113.89 3.31754C112.963 3.31754 112.299 3.54731 111.899 4.00683C111.508 4.46636 111.312 5.13012 111.312 5.99811V27.366H107.495ZM131.176 19.235V7.75962H135.005V27.366H131.252V23.9707H131.048C130.597 25.0173 129.874 25.8896 128.878 26.5874C127.891 27.2767 126.661 27.6213 125.189 27.6213C123.93 27.6213 122.815 27.3448 121.845 26.7916C120.883 26.23 120.126 25.4003 119.573 24.3025C119.028 23.2048 118.756 21.8475 118.756 20.2306V7.75962H122.572V19.7711C122.572 21.1071 122.943 22.1708 123.683 22.9623C124.423 23.7537 125.385 24.1494 126.568 24.1494C127.283 24.1494 127.993 23.9707 128.699 23.6132C129.414 23.2558 130.006 22.7155 130.474 21.9921C130.95 21.2688 131.184 20.3498 131.176 19.235ZM143.231 1.22415V27.366H139.414V1.22415H143.231ZM165.593 7.75962V10.8231H154.883V7.75962H165.593ZM157.755 3.06225H161.572V21.6092C161.572 22.3495 161.683 22.9069 161.904 23.2814C162.125 23.6473 162.41 23.8983 162.759 24.0345C163.117 24.1621 163.504 24.2259 163.921 24.2259C164.227 24.2259 164.495 24.2047 164.725 24.1621C164.955 24.1196 165.133 24.0855 165.261 24.06L165.95 27.2129C165.729 27.298 165.414 27.3831 165.006 27.4682C164.597 27.5618 164.087 27.6128 163.474 27.6213C162.47 27.6383 161.534 27.4596 160.666 27.0852C159.798 26.7108 159.096 26.1321 158.56 25.3492C158.023 24.5663 157.755 23.5835 157.755 22.4006V3.06225ZM177.144 27.7617C175.306 27.7617 173.702 27.3405 172.332 26.498C170.962 25.6556 169.898 24.477 169.141 22.9623C168.383 21.4475 168.004 19.6775 168.004 17.6522C168.004 15.6184 168.383 13.8398 169.141 12.3166C169.898 10.7933 170.962 9.61049 172.332 8.76803C173.702 7.92556 175.306 7.50433 177.144 7.50433C178.982 7.50433 180.586 7.92556 181.956 8.76803C183.326 9.61049 184.39 10.7933 185.147 12.3166C185.905 13.8398 186.283 15.6184 186.283 17.6522C186.283 19.6775 185.905 21.4475 185.147 22.9623C184.39 24.477 183.326 25.6556 181.956 26.498C180.586 27.3405 178.982 27.7617 177.144 27.7617ZM177.157 24.5578C178.348 24.5578 179.335 24.243 180.118 23.6132C180.901 22.9835 181.48 22.1453 181.854 21.0986C182.237 20.0519 182.428 18.8989 182.428 17.6394C182.428 16.3885 182.237 15.2397 181.854 14.193C181.48 13.1378 180.901 12.2911 180.118 11.6528C179.335 11.0146 178.348 10.6955 177.157 10.6955C175.957 10.6955 174.961 11.0146 174.17 11.6528C173.387 12.2911 172.804 13.1378 172.421 14.193C172.047 15.2397 171.859 16.3885 171.859 17.6394C171.859 18.8989 172.047 20.0519 172.421 21.0986C172.804 22.1453 173.387 22.9835 174.17 23.6132C174.961 24.243 175.957 24.5578 177.157 24.5578ZM198.083 27.7617C196.245 27.7617 194.641 27.3405 193.271 26.498C191.901 25.6556 190.837 24.477 190.08 22.9623C189.323 21.4475 188.944 19.6775 188.944 17.6522C188.944 15.6184 189.323 13.8398 190.08 12.3166C190.837 10.7933 191.901 9.61049 193.271 8.76803C194.641 7.92556 196.245 7.50433 198.083 7.50433C199.921 7.50433 201.526 7.92556 202.896 8.76803C204.266 9.61049 205.329 10.7933 206.087 12.3166C206.844 13.8398 207.223 15.6184 207.223 17.6522C207.223 19.6775 206.844 21.4475 206.087 22.9623C205.329 24.477 204.266 25.6556 202.896 26.498C201.526 27.3405 199.921 27.7617 198.083 27.7617ZM198.096 24.5578C199.287 24.5578 200.275 24.243 201.057 23.6132C201.84 22.9835 202.419 22.1453 202.793 21.0986C203.176 20.0519 203.368 18.8989 203.368 17.6394C203.368 16.3885 203.176 15.2397 202.793 14.193C202.419 13.1378 201.84 12.2911 201.057 11.6528C200.275 11.0146 199.287 10.6955 198.096 10.6955C196.896 10.6955 195.901 11.0146 195.109 11.6528C194.326 12.2911 193.743 13.1378 193.36 14.193C192.986 15.2397 192.799 16.3885 192.799 17.6394C192.799 18.8989 192.986 20.0519 193.36 21.0986C193.743 22.1453 194.326 22.9835 195.109 23.6132C195.901 24.243 196.896 24.5578 198.096 24.5578ZM214.581 1.22415V27.366H210.764V1.22415H214.581ZM233.688 12.5463L230.229 13.159C230.085 12.7165 229.855 12.2953 229.54 11.8953C229.234 11.4954 228.817 11.1678 228.289 10.9125C227.761 10.6572 227.102 10.5295 226.31 10.5295C225.23 10.5295 224.328 10.7721 223.604 11.2571C222.881 11.7337 222.519 12.3506 222.519 13.108C222.519 13.7632 222.762 14.2908 223.247 14.6908C223.732 15.0908 224.515 15.4184 225.596 15.6737L228.71 16.3885C230.514 16.8055 231.859 17.4479 232.744 18.3159C233.629 19.1839 234.071 20.3115 234.071 21.6986C234.071 22.8729 233.731 23.9196 233.05 24.8386C232.378 25.7492 231.438 26.464 230.229 26.9831C229.029 27.5022 227.638 27.7617 226.055 27.7617C223.86 27.7617 222.068 27.2937 220.681 26.3576C219.294 25.4131 218.443 24.0728 218.128 22.3368L221.817 21.7751C222.047 22.7367 222.519 23.4643 223.234 23.9579C223.949 24.4429 224.881 24.6855 226.03 24.6855C227.281 24.6855 228.28 24.4259 229.029 23.9068C229.778 23.3792 230.153 22.7367 230.153 21.9794C230.153 21.3667 229.923 20.8518 229.463 20.4349C229.012 20.0179 228.319 19.703 227.383 19.4903L224.064 18.7627C222.234 18.3457 220.881 17.682 220.005 16.7714C219.137 15.8609 218.703 14.7078 218.703 13.3122C218.703 12.1549 219.026 11.1422 219.673 10.2742C220.32 9.40625 221.213 8.72973 222.353 8.24468C223.494 7.75111 224.8 7.50433 226.272 7.50433C228.391 7.50433 230.059 7.96386 231.276 8.88291C232.493 9.79345 233.297 11.0146 233.688 12.5463ZM255.495 7.75962V10.8231H244.785V7.75962H255.495ZM247.657 3.06225H251.474V21.6092C251.474 22.3495 251.585 22.9069 251.806 23.2814C252.027 23.6473 252.312 23.8983 252.661 24.0345C253.019 24.1621 253.406 24.2259 253.823 24.2259C254.129 24.2259 254.397 24.2047 254.627 24.1621C254.857 24.1196 255.035 24.0855 255.163 24.06L255.852 27.2129C255.631 27.298 255.316 27.3831 254.908 27.4682C254.499 27.5618 253.989 27.6128 253.376 27.6213C252.372 27.6383 251.436 27.4596 250.568 27.0852C249.7 26.7108 248.998 26.1321 248.462 25.3492C247.925 24.5663 247.657 23.5835 247.657 22.4006V3.06225ZM267.046 27.7617C265.208 27.7617 263.604 27.3405 262.234 26.498C260.864 25.6556 259.8 24.477 259.043 22.9623C258.285 21.4475 257.906 19.6775 257.906 17.6522C257.906 15.6184 258.285 13.8398 259.043 12.3166C259.8 10.7933 260.864 9.61049 262.234 8.76803C263.604 7.92556 265.208 7.50433 267.046 7.50433C268.884 7.50433 270.488 7.92556 271.858 8.76803C273.228 9.61049 274.292 10.7933 275.049 12.3166C275.807 13.8398 276.185 15.6184 276.185 17.6522C276.185 19.6775 275.807 21.4475 275.049 22.9623C274.292 24.477 273.228 25.6556 271.858 26.498C270.488 27.3405 268.884 27.7617 267.046 27.7617ZM267.059 24.5578C268.25 24.5578 269.237 24.243 270.02 23.6132C270.803 22.9835 271.382 22.1453 271.756 21.0986C272.139 20.0519 272.33 18.8989 272.33 17.6394C272.33 16.3885 272.139 15.2397 271.756 14.193C271.382 13.1378 270.803 12.2911 270.02 11.6528C269.237 11.0146 268.25 10.6955 267.059 10.6955C265.859 10.6955 264.863 11.0146 264.072 11.6528C263.289 12.2911 262.706 13.1378 262.323 14.193C261.949 15.2397 261.761 16.3885 261.761 17.6394C261.761 18.8989 261.949 20.0519 262.323 21.0986C262.706 22.1453 263.289 22.9835 264.072 23.6132C264.863 24.243 265.859 24.5578 267.059 24.5578ZM303.213 12.5463L299.753 13.159C299.609 12.7165 299.379 12.2953 299.064 11.8953C298.758 11.4954 298.341 11.1678 297.813 10.9125C297.286 10.6572 296.626 10.5295 295.835 10.5295C294.754 10.5295 293.852 10.7721 293.129 11.2571C292.405 11.7337 292.044 12.3506 292.044 13.108C292.044 13.7632 292.286 14.2908 292.771 14.6908C293.256 15.0908 294.039 15.4184 295.12 15.6737L298.234 16.3885C300.039 16.8055 301.383 17.4479 302.268 18.3159C303.153 19.1839 303.596 20.3115 303.596 21.6986C303.596 22.8729 303.255 23.9196 302.574 24.8386C301.902 25.7492 300.962 26.464 299.753 26.9831C298.554 27.5022 297.162 27.7617 295.579 27.7617C293.384 27.7617 291.593 27.2937 290.206 26.3576C288.818 25.4131 287.967 24.0728 287.653 22.3368L291.342 21.7751C291.571 22.7367 292.044 23.4643 292.758 23.9579C293.473 24.4429 294.405 24.6855 295.554 24.6855C296.805 24.6855 297.805 24.4259 298.554 23.9068C299.302 23.3792 299.677 22.7367 299.677 21.9794C299.677 21.3667 299.447 20.8518 298.988 20.4349C298.537 20.0179 297.843 19.703 296.907 19.4903L293.588 18.7627C291.759 18.3457 290.406 17.682 289.529 16.7714C288.661 15.8609 288.227 14.7078 288.227 13.3122C288.227 12.1549 288.55 11.1422 289.197 10.2742C289.844 9.40625 290.737 8.72973 291.878 8.24468C293.018 7.75111 294.324 7.50433 295.796 7.50433C297.915 7.50433 299.583 7.96386 300.8 8.88291C302.017 9.79345 302.821 11.0146 303.213 12.5463ZM307.073 27.366V7.75962H310.89V27.366H307.073ZM309 4.73441C308.337 4.73441 307.767 4.51316 307.29 4.07065C306.822 3.61964 306.588 3.08353 306.588 2.46232C306.588 1.8326 306.822 1.29648 307.29 0.853978C307.767 0.402963 308.337 0.177455 309 0.177455C309.664 0.177455 310.23 0.402963 310.698 0.853978C311.175 1.29648 311.413 1.8326 311.413 2.46232C311.413 3.08353 311.175 3.61964 310.698 4.07065C310.23 4.51316 309.664 4.73441 309 4.73441ZM315.305 27.366V7.75962H318.969V10.9508H319.211C319.62 9.87004 320.288 9.02757 321.215 8.42338C322.143 7.81068 323.253 7.50433 324.547 7.50433C325.857 7.50433 326.955 7.81068 327.84 8.42338C328.734 9.03608 329.393 9.87854 329.819 10.9508H330.023C330.491 9.90407 331.236 9.07012 332.257 8.44891C333.278 7.81919 334.495 7.50433 335.907 7.50433C337.686 7.50433 339.137 8.06172 340.26 9.17649C341.392 10.2913 341.958 11.9719 341.958 14.2185V27.366H338.141V14.5759C338.141 13.2484 337.779 12.2868 337.056 11.6911C336.333 11.0954 335.469 10.7976 334.465 10.7976C333.223 10.7976 332.257 11.1805 331.567 11.9464C330.878 12.7038 330.533 13.6781 330.533 14.8695V27.366H326.73V14.3334C326.73 13.2697 326.398 12.4144 325.734 11.7677C325.07 11.121 324.206 10.7976 323.143 10.7976C322.419 10.7976 321.751 10.9891 321.139 11.372C320.535 11.7464 320.045 12.2698 319.671 12.942C319.305 13.6143 319.122 14.393 319.122 15.278V27.366H315.305ZM346.354 34.7184V7.75962H350.082V10.938H350.401C350.622 10.5295 350.941 10.0572 351.358 9.52114C351.775 8.98502 352.354 8.51699 353.094 8.11703C353.834 7.70856 354.813 7.50433 356.03 7.50433C357.613 7.50433 359.025 7.90429 360.268 8.7042C361.51 9.50412 362.484 10.6572 363.191 12.1634C363.906 13.6696 364.263 15.4822 364.263 17.6011C364.263 19.72 363.91 21.5369 363.204 23.0516C362.497 24.5578 361.527 25.7194 360.293 26.5363C359.059 27.3448 357.651 27.749 356.068 27.749C354.877 27.749 353.902 27.549 353.145 27.149C352.396 26.7491 351.809 26.281 351.384 25.7449C350.958 25.2088 350.63 24.7323 350.401 24.3153H350.171V34.7184H346.354ZM350.094 17.5628C350.094 18.9414 350.294 20.1498 350.694 21.188C351.094 22.2262 351.673 23.0388 352.43 23.626C353.188 24.2047 354.115 24.494 355.213 24.494C356.353 24.494 357.306 24.1919 358.072 23.5877C358.838 22.975 359.417 22.1453 359.808 21.0986C360.208 20.0519 360.408 18.8733 360.408 17.5628C360.408 16.2693 360.212 15.1078 359.821 14.0781C359.438 13.0484 358.859 12.2357 358.085 11.6401C357.319 11.0444 356.362 10.7465 355.213 10.7465C354.107 10.7465 353.171 11.0316 352.405 11.6018C351.647 12.1719 351.073 12.9676 350.681 13.9887C350.29 15.0099 350.094 16.2013 350.094 17.5628ZM371.637 1.22415V27.366H367.82V1.22415H371.637ZM376.052 27.366V7.75962H379.869V27.366H376.052ZM377.98 4.73441C377.316 4.73441 376.746 4.51316 376.269 4.07065C375.801 3.61964 375.567 3.08353 375.567 2.46232C375.567 1.8326 375.801 1.29648 376.269 0.853978C376.746 0.402963 377.316 0.177455 377.98 0.177455C378.644 0.177455 379.21 0.402963 379.678 0.853978C380.154 1.29648 380.392 1.8326 380.392 2.46232C380.392 3.08353 380.154 3.61964 379.678 4.07065C379.21 4.51316 378.644 4.73441 377.98 4.73441ZM393.616 7.75962V10.8231H382.536V7.75962H393.616ZM385.574 27.366V5.48752C385.574 4.26212 385.842 3.24521 386.378 2.43679C386.914 1.61985 387.625 1.01141 388.51 0.611452C389.395 0.202984 390.356 -0.00124995 391.395 -0.00124995C392.161 -0.00124995 392.816 0.0625735 393.36 0.19022C393.905 0.309356 394.309 0.419982 394.573 0.522099L393.68 3.61113C393.501 3.56007 393.271 3.5005 392.99 3.43243C392.709 3.35584 392.369 3.31754 391.969 3.31754C391.041 3.31754 390.378 3.54731 389.978 4.00683C389.586 4.46636 389.391 5.13012 389.391 5.99811V27.366H385.574ZM399.247 34.7184C398.677 34.7184 398.158 34.6716 397.69 34.578C397.222 34.4929 396.873 34.3993 396.643 34.2972L397.562 31.1699C398.26 31.3571 398.881 31.4379 399.426 31.4124C399.97 31.3869 400.451 31.1826 400.868 30.7997C401.294 30.4168 401.668 29.7913 401.992 28.9233L402.464 27.6213L395.29 7.75962H399.375L404.34 22.975H404.544L409.51 7.75962H413.607L405.527 29.9828C405.153 31.0039 404.676 31.8677 404.098 32.574C403.519 33.2888 402.83 33.8249 402.03 34.1823C401.23 34.5397 400.302 34.7184 399.247 34.7184ZM420.212 23.7919L420.021 25.1833C419.893 26.2045 419.676 27.2682 419.37 28.3744C419.072 29.4892 418.761 30.5231 418.438 31.4762C418.123 32.4293 417.863 33.1867 417.659 33.7483H414.953C415.064 33.2207 415.217 32.5059 415.413 31.6039C415.608 30.7104 415.8 29.7105 415.987 28.6042C416.174 27.4979 416.315 26.3704 416.408 25.2216L416.536 23.7919H420.212ZM447.948 12.5463L444.489 13.159C444.344 12.7165 444.114 12.2953 443.799 11.8953C443.493 11.4954 443.076 11.1678 442.548 10.9125C442.021 10.6572 441.361 10.5295 440.57 10.5295C439.489 10.5295 438.587 10.7721 437.864 11.2571C437.14 11.7337 436.779 12.3506 436.779 13.108C436.779 13.7632 437.021 14.2908 437.506 14.6908C437.991 15.0908 438.774 15.4184 439.855 15.6737L442.97 16.3885C444.774 16.8055 446.118 17.4479 447.003 18.3159C447.888 19.1839 448.331 20.3115 448.331 21.6986C448.331 22.8729 447.99 23.9196 447.31 24.8386C446.637 25.7492 445.697 26.464 444.489 26.9831C443.289 27.5022 441.897 27.7617 440.315 27.7617C438.119 27.7617 436.328 27.2937 434.941 26.3576C433.554 25.4131 432.703 24.0728 432.388 22.3368L436.077 21.7751C436.306 22.7367 436.779 23.4643 437.494 23.9579C438.208 24.4429 439.14 24.6855 440.289 24.6855C441.54 24.6855 442.54 24.4259 443.289 23.9068C444.038 23.3792 444.412 22.7367 444.412 21.9794C444.412 21.3667 444.182 20.8518 443.723 20.4349C443.272 20.0179 442.578 19.703 441.642 19.4903L438.323 18.7627C436.494 18.3457 435.141 17.682 434.264 16.7714C433.396 15.8609 432.962 14.7078 432.962 13.3122C432.962 12.1549 433.286 11.1422 433.932 10.2742C434.579 9.40625 435.473 8.72973 436.613 8.24468C437.753 7.75111 439.059 7.50433 440.532 7.50433C442.65 7.50433 444.318 7.96386 445.535 8.88291C446.752 9.79345 447.556 11.0146 447.948 12.5463ZM460.96 7.75962V10.8231H450.251V7.75962H460.96ZM453.123 3.06225H456.94V21.6092C456.94 22.3495 457.05 22.9069 457.271 23.2814C457.493 23.6473 457.778 23.8983 458.127 24.0345C458.484 24.1621 458.871 24.2259 459.288 24.2259C459.595 24.2259 459.863 24.2047 460.092 24.1621C460.322 24.1196 460.501 24.0855 460.629 24.06L461.318 27.2129C461.097 27.298 460.782 27.3831 460.373 27.4682C459.965 27.5618 459.454 27.6128 458.841 27.6213C457.837 27.6383 456.901 27.4596 456.033 27.0852C455.165 26.7108 454.463 26.1321 453.927 25.3492C453.391 24.5663 453.123 23.5835 453.123 22.4006V3.06225ZM464.463 27.366V7.75962H468.152V10.8742H468.357C468.714 9.81898 469.344 8.98928 470.246 8.38509C471.156 7.77239 472.186 7.46604 473.335 7.46604C473.573 7.46604 473.854 7.47455 474.177 7.49157C474.509 7.50858 474.769 7.52986 474.956 7.55539V11.2061C474.803 11.1635 474.53 11.1167 474.139 11.0657C473.747 11.0061 473.356 10.9763 472.965 10.9763C472.063 10.9763 471.258 11.1678 470.552 11.5507C469.854 11.9251 469.301 12.4485 468.893 13.1208C468.484 13.7845 468.28 14.5419 468.28 15.3928V27.366H464.463ZM485.288 27.7617C483.356 27.7617 481.693 27.349 480.297 26.5236C478.91 25.6896 477.838 24.5195 477.08 23.0133C476.331 21.4986 475.957 19.7243 475.957 17.6905C475.957 15.6822 476.331 13.9122 477.08 12.3804C477.838 10.8487 478.893 9.65304 480.246 8.79355C481.607 7.93407 483.199 7.50433 485.02 7.50433C486.126 7.50433 487.198 7.68729 488.237 8.05321C489.275 8.41913 490.207 8.99353 491.032 9.77643C491.857 10.5593 492.508 11.5762 492.985 12.8272C493.461 14.0696 493.7 15.5801 493.7 17.3586V18.7116H478.114V15.8524H489.96C489.96 14.8482 489.756 13.959 489.347 13.1846C488.939 12.4017 488.364 11.7847 487.624 11.3337C486.892 10.8827 486.032 10.6572 485.045 10.6572C483.973 10.6572 483.037 10.921 482.237 11.4486C481.446 11.9677 480.833 12.6485 480.399 13.4909C479.974 14.3249 479.761 15.2312 479.761 16.2098V18.4436C479.761 19.7541 479.991 20.8689 480.45 21.7879C480.918 22.707 481.569 23.409 482.403 23.8941C483.237 24.3706 484.211 24.6089 485.326 24.6089C486.05 24.6089 486.709 24.5068 487.305 24.3025C487.9 24.0898 488.415 23.7749 488.849 23.358C489.283 22.941 489.615 22.4261 489.845 21.8134L493.457 22.4644C493.168 23.5281 492.649 24.46 491.9 25.2599C491.16 26.0513 490.228 26.6682 489.105 27.1107C487.99 27.5447 486.718 27.7617 485.288 27.7617ZM502.921 27.8C501.679 27.8 500.556 27.5703 499.551 27.1107C498.547 26.6427 497.752 25.9662 497.164 25.0812C496.586 24.1962 496.296 23.1112 496.296 21.8262C496.296 20.7199 496.509 19.8094 496.935 19.0946C497.36 18.3798 497.935 17.8139 498.658 17.3969C499.381 16.9799 500.19 16.6651 501.083 16.4523C501.977 16.2396 502.887 16.0779 503.815 15.9673C504.989 15.8311 505.942 15.7205 506.674 15.6354C507.406 15.5418 507.938 15.3928 508.27 15.1886C508.602 14.9844 508.767 14.6525 508.767 14.193V14.1036C508.767 12.9888 508.453 12.1251 507.823 11.5124C507.202 10.8997 506.274 10.5934 505.04 10.5934C503.755 10.5934 502.743 10.8784 502.002 11.4486C501.27 12.0102 500.764 12.6357 500.483 13.325L496.896 12.5081C497.322 11.3167 497.943 10.3551 498.76 9.62325C499.585 8.88291 500.534 8.34679 501.607 8.01491C502.679 7.67453 503.806 7.50433 504.989 7.50433C505.772 7.50433 506.602 7.59794 507.478 7.78515C508.363 7.96386 509.189 8.29574 509.955 8.78079C510.729 9.26584 511.363 9.95939 511.857 10.8614C512.35 11.7549 512.597 12.9165 512.597 14.3462V27.366H508.87V24.6855H508.716C508.47 25.179 508.099 25.6641 507.606 26.1406C507.112 26.6172 506.478 27.0129 505.704 27.3277C504.93 27.6426 504.002 27.8 502.921 27.8ZM503.751 24.7365C504.806 24.7365 505.708 24.528 506.457 24.1111C507.214 23.6941 507.789 23.1495 508.18 22.4772C508.58 21.7964 508.78 21.0688 508.78 20.2945V17.7671C508.644 17.9032 508.38 18.0309 507.989 18.15C507.606 18.2606 507.168 18.3585 506.674 18.4436C506.181 18.5202 505.7 18.5925 505.232 18.6606C504.764 18.7202 504.372 18.7712 504.057 18.8138C503.317 18.9074 502.64 19.0648 502.028 19.286C501.424 19.5073 500.939 19.8264 500.573 20.2434C500.215 20.6519 500.037 21.1965 500.037 21.8773C500.037 22.8218 500.385 23.5367 501.083 24.0217C501.781 24.4983 502.67 24.7365 503.751 24.7365ZM516.961 27.366V7.75962H520.625V10.9508H520.867C521.276 9.87004 521.944 9.02757 522.871 8.42338C523.799 7.81068 524.91 7.50433 526.203 7.50433C527.513 7.50433 528.611 7.81068 529.496 8.42338C530.39 9.03608 531.049 9.87854 531.475 10.9508H531.679C532.147 9.90407 532.892 9.07012 533.913 8.44891C534.934 7.81919 536.151 7.50433 537.563 7.50433C539.342 7.50433 540.793 8.06172 541.916 9.17649C543.048 10.2913 543.614 11.9719 543.614 14.2185V27.366H539.797V14.5759C539.797 13.2484 539.436 12.2868 538.712 11.6911C537.989 11.0954 537.125 10.7976 536.121 10.7976C534.879 10.7976 533.913 11.1805 533.224 11.9464C532.534 12.7038 532.19 13.6781 532.19 14.8695V27.366H528.386V14.3334C528.386 13.2697 528.054 12.4144 527.39 11.7677C526.726 11.121 525.863 10.7976 524.799 10.7976C524.076 10.7976 523.408 10.9891 522.795 11.372C522.191 11.7464 521.701 12.2698 521.327 12.942C520.961 13.6143 520.778 14.393 520.778 15.278V27.366H516.961ZM551.827 1.22415V27.366H548.01V1.22415H551.827ZM556.243 27.366V7.75962H560.059V27.366H556.243ZM558.17 4.73441C557.506 4.73441 556.936 4.51316 556.46 4.07065C555.992 3.61964 555.758 3.08353 555.758 2.46232C555.758 1.8326 555.992 1.29648 556.46 0.853978C556.936 0.402963 557.506 0.177455 558.17 0.177455C558.834 0.177455 559.4 0.402963 559.868 0.853978C560.344 1.29648 560.583 1.8326 560.583 2.46232C560.583 3.08353 560.344 3.61964 559.868 4.07065C559.4 4.51316 558.834 4.73441 558.17 4.73441ZM568.292 15.7247V27.366H564.475V7.75962H568.138V10.9508H568.381C568.832 9.91258 569.538 9.07863 570.5 8.44891C571.47 7.81919 572.691 7.50433 574.163 7.50433C575.499 7.50433 576.669 7.78515 577.674 8.34679C578.678 8.89993 579.456 9.72537 580.009 10.8231C580.563 11.9209 580.839 13.2782 580.839 14.895V27.366H577.023V15.3546C577.023 13.9334 576.652 12.8229 575.912 12.023C575.172 11.2146 574.155 10.8104 572.861 10.8104C571.976 10.8104 571.189 11.0018 570.5 11.3848C569.819 11.7677 569.279 12.3293 568.879 13.0697C568.487 13.8015 568.292 14.6865 568.292 15.7247ZM593.689 27.7617C591.757 27.7617 590.094 27.349 588.698 26.5236C587.311 25.6896 586.239 24.5195 585.481 23.0133C584.733 21.4986 584.358 19.7243 584.358 17.6905C584.358 15.6822 584.733 13.9122 585.481 12.3804C586.239 10.8487 587.294 9.65304 588.647 8.79355C590.009 7.93407 591.6 7.50433 593.421 7.50433C594.527 7.50433 595.599 7.68729 596.638 8.05321C597.676 8.41913 598.608 8.99353 599.433 9.77643C600.259 10.5593 600.91 11.5762 601.386 12.8272C601.863 14.0696 602.101 15.5801 602.101 17.3586V18.7116H586.515V15.8524H598.361C598.361 14.8482 598.157 13.959 597.748 13.1846C597.34 12.4017 596.765 11.7847 596.025 11.3337C595.293 10.8827 594.434 10.6572 593.446 10.6572C592.374 10.6572 591.438 10.921 590.638 11.4486C589.847 11.9677 589.234 12.6485 588.8 13.4909C588.375 14.3249 588.162 15.2312 588.162 16.2098V18.4436C588.162 19.7541 588.392 20.8689 588.851 21.7879C589.319 22.707 589.97 23.409 590.804 23.8941C591.638 24.3706 592.613 24.6089 593.727 24.6089C594.451 24.6089 595.11 24.5068 595.706 24.3025C596.301 24.0898 596.816 23.7749 597.25 23.358C597.684 22.941 598.016 22.4261 598.246 21.8134L601.858 22.4644C601.569 23.5281 601.05 24.46 600.301 25.2599C599.561 26.0513 598.629 26.6682 597.506 27.1107C596.391 27.5447 595.119 27.7617 593.689 27.7617ZM620.116 27.8C618.874 27.8 617.751 27.5703 616.746 27.1107C615.742 26.6427 614.947 25.9662 614.359 25.0812C613.781 24.1962 613.491 23.1112 613.491 21.8262C613.491 20.7199 613.704 19.8094 614.13 19.0946C614.555 18.3798 615.13 17.8139 615.853 17.3969C616.576 16.9799 617.385 16.6651 618.278 16.4523C619.172 16.2396 620.082 16.0779 621.01 15.9673C622.184 15.8311 623.137 15.7205 623.869 15.6354C624.601 15.5418 625.133 15.3928 625.465 15.1886C625.797 14.9844 625.962 14.6525 625.962 14.193V14.1036C625.962 12.9888 625.648 12.1251 625.018 11.5124C624.397 10.8997 623.469 10.5934 622.235 10.5934C620.95 10.5934 619.938 10.8784 619.197 11.4486C618.465 12.0102 617.959 12.6357 617.678 13.325L614.091 12.5081C614.517 11.3167 615.138 10.3551 615.955 9.62325C616.78 8.88291 617.729 8.34679 618.802 8.01491C619.874 7.67453 621.001 7.50433 622.184 7.50433C622.967 7.50433 623.797 7.59794 624.673 7.78515C625.558 7.96386 626.384 8.29574 627.15 8.78079C627.924 9.26584 628.558 9.95939 629.052 10.8614C629.545 11.7549 629.792 12.9165 629.792 14.3462V27.366H626.065V24.6855H625.911C625.665 25.179 625.294 25.6641 624.801 26.1406C624.307 26.6172 623.673 27.0129 622.899 27.3277C622.125 27.6426 621.197 27.8 620.116 27.8ZM620.946 24.7365C622.001 24.7365 622.903 24.528 623.652 24.1111C624.409 23.6941 624.984 23.1495 625.375 22.4772C625.775 21.7964 625.975 21.0688 625.975 20.2945V17.7671C625.839 17.9032 625.575 18.0309 625.184 18.15C624.801 18.2606 624.363 18.3585 623.869 18.4436C623.376 18.5202 622.895 18.5925 622.427 18.6606C621.959 18.7202 621.567 18.7712 621.252 18.8138C620.512 18.9074 619.835 19.0648 619.223 19.286C618.619 19.5073 618.134 19.8264 617.768 20.2434C617.41 20.6519 617.232 21.1965 617.232 21.8773C617.232 22.8218 617.58 23.5367 618.278 24.0217C618.976 24.4983 619.865 24.7365 620.946 24.7365ZM637.973 15.7247V27.366H634.156V7.75962H637.82V10.9508H638.062C638.513 9.91258 639.22 9.07863 640.181 8.44891C641.151 7.81919 642.373 7.50433 643.845 7.50433C645.181 7.50433 646.351 7.78515 647.355 8.34679C648.359 8.89993 649.138 9.72537 649.691 10.8231C650.244 11.9209 650.521 13.2782 650.521 14.895V27.366H646.704V15.3546C646.704 13.9334 646.334 12.8229 645.594 12.023C644.853 11.2146 643.836 10.8104 642.543 10.8104C641.658 10.8104 640.871 11.0018 640.181 11.3848C639.501 11.7677 638.96 12.3293 638.56 13.0697C638.169 13.8015 637.973 14.6865 637.973 15.7247ZM662.26 27.749C660.677 27.749 659.265 27.3448 658.022 26.5363C656.788 25.7194 655.818 24.5578 655.112 23.0516C654.414 21.5369 654.065 19.72 654.065 17.6011C654.065 15.4822 654.418 13.6696 655.125 12.1634C655.839 10.6572 656.818 9.50412 658.06 8.7042C659.303 7.90429 660.711 7.50433 662.286 7.50433C663.502 7.50433 664.481 7.70856 665.221 8.11703C665.97 8.51699 666.549 8.98502 666.957 9.52114C667.374 10.0572 667.698 10.5295 667.928 10.938H668.157V1.22415H671.974V27.366H668.247V24.3153H667.928C667.698 24.7323 667.366 25.2088 666.932 25.7449C666.506 26.281 665.919 26.7491 665.17 27.149C664.422 27.549 663.451 27.749 662.26 27.749ZM663.103 24.494C664.2 24.494 665.128 24.2047 665.885 23.626C666.651 23.0388 667.23 22.2262 667.621 21.188C668.021 20.1498 668.221 18.9414 668.221 17.5628C668.221 16.2013 668.025 15.0099 667.634 13.9887C667.242 12.9676 666.668 12.1719 665.911 11.6018C665.153 11.0316 664.217 10.7465 663.103 10.7465C661.954 10.7465 660.996 11.0444 660.23 11.6401C659.465 12.2357 658.886 13.0484 658.494 14.0781C658.112 15.1078 657.92 16.2693 657.92 17.5628C657.92 18.8733 658.116 20.0519 658.507 21.0986C658.899 22.1453 659.477 22.975 660.243 23.5877C661.018 24.1919 661.971 24.494 663.103 24.494ZM700.188 12.5463L696.729 13.159C696.584 12.7165 696.355 12.2953 696.04 11.8953C695.733 11.4954 695.316 11.1678 694.789 10.9125C694.261 10.6572 693.602 10.5295 692.81 10.5295C691.73 10.5295 690.828 10.7721 690.104 11.2571C689.381 11.7337 689.019 12.3506 689.019 13.108C689.019 13.7632 689.262 14.2908 689.747 14.6908C690.232 15.0908 691.015 15.4184 692.095 15.6737L695.21 16.3885C697.014 16.8055 698.359 17.4479 699.244 18.3159C700.129 19.1839 700.571 20.3115 700.571 21.6986C700.571 22.8729 700.231 23.9196 699.55 24.8386C698.878 25.7492 697.937 26.464 696.729 26.9831C695.529 27.5022 694.138 27.7617 692.555 27.7617C690.359 27.7617 688.568 27.2937 687.181 26.3576C685.794 25.4131 684.943 24.0728 684.628 22.3368L688.317 21.7751C688.547 22.7367 689.019 23.4643 689.734 23.9579C690.449 24.4429 691.381 24.6855 692.529 24.6855C693.78 24.6855 694.78 24.4259 695.529 23.9068C696.278 23.3792 696.652 22.7367 696.652 21.9794C696.652 21.3667 696.423 20.8518 695.963 20.4349C695.512 20.0179 694.819 19.703 693.883 19.4903L690.564 18.7627C688.734 18.3457 687.381 17.682 686.505 16.7714C685.637 15.8609 685.203 14.7078 685.203 13.3122C685.203 12.1549 685.526 11.1422 686.173 10.2742C686.819 9.40625 687.713 8.72973 688.853 8.24468C689.994 7.75111 691.3 7.50433 692.772 7.50433C694.891 7.50433 696.559 7.96386 697.776 8.88291C698.993 9.79345 699.797 11.0146 700.188 12.5463ZM713.201 7.75962V10.8231H702.491V7.75962H713.201ZM705.363 3.06225H709.18V21.6092C709.18 22.3495 709.291 22.9069 709.512 23.2814C709.733 23.6473 710.018 23.8983 710.367 24.0345C710.724 24.1621 711.112 24.2259 711.529 24.2259C711.835 24.2259 712.103 24.2047 712.333 24.1621C712.563 24.1196 712.741 24.0855 712.869 24.06L713.558 27.2129C713.337 27.298 713.022 27.3831 712.614 27.4682C712.205 27.5618 711.695 27.6128 711.082 27.6213C710.078 27.6383 709.142 27.4596 708.274 27.0852C707.406 26.7108 706.704 26.1321 706.168 25.3492C705.631 24.5663 705.363 23.5835 705.363 22.4006V3.06225ZM716.704 27.366V7.75962H720.393V10.8742H720.597C720.954 9.81898 721.584 8.98928 722.486 8.38509C723.397 7.77239 724.426 7.46604 725.575 7.46604C725.813 7.46604 726.094 7.47455 726.418 7.49157C726.75 7.50858 727.009 7.52986 727.196 7.55539V11.2061C727.043 11.1635 726.771 11.1167 726.379 11.0657C725.988 11.0061 725.596 10.9763 725.205 10.9763C724.303 10.9763 723.499 11.1678 722.792 11.5507C722.095 11.9251 721.542 12.4485 721.133 13.1208C720.725 13.7845 720.52 14.5419 720.52 15.3928V27.366H716.704ZM737.528 27.7617C735.597 27.7617 733.933 27.349 732.537 26.5236C731.15 25.6896 730.078 24.5195 729.321 23.0133C728.572 21.4986 728.197 19.7243 728.197 17.6905C728.197 15.6822 728.572 13.9122 729.321 12.3804C730.078 10.8487 731.133 9.65304 732.486 8.79355C733.848 7.93407 735.439 7.50433 737.26 7.50433C738.367 7.50433 739.439 7.68729 740.477 8.05321C741.515 8.41913 742.447 8.99353 743.272 9.77643C744.098 10.5593 744.749 11.5762 745.225 12.8272C745.702 14.0696 745.94 15.5801 745.94 17.3586V18.7116H730.355V15.8524H742.2C742.2 14.8482 741.996 13.959 741.587 13.1846C741.179 12.4017 740.605 11.7847 739.864 11.3337C739.132 10.8827 738.273 10.6572 737.286 10.6572C736.214 10.6572 735.278 10.921 734.478 11.4486C733.686 11.9677 733.073 12.6485 732.639 13.4909C732.214 14.3249 732.001 15.2312 732.001 16.2098V18.4436C732.001 19.7541 732.231 20.8689 732.691 21.7879C733.159 22.707 733.81 23.409 734.644 23.8941C735.477 24.3706 736.452 24.6089 737.567 24.6089C738.29 24.6089 738.949 24.5068 739.545 24.3025C740.141 24.0898 740.656 23.7749 741.09 23.358C741.524 22.941 741.856 22.4261 742.085 21.8134L745.698 22.4644C745.408 23.5281 744.889 24.46 744.14 25.2599C743.4 26.0513 742.468 26.6682 741.345 27.1107C740.23 27.5447 738.958 27.7617 737.528 27.7617ZM753.273 15.7247V27.366H749.456V7.75962H753.119V10.9508H753.362C753.813 9.91258 754.519 9.07863 755.481 8.44891C756.451 7.81919 757.672 7.50433 759.144 7.50433C760.48 7.50433 761.65 7.78515 762.655 8.34679C763.659 8.89993 764.437 9.72537 764.99 10.8231C765.544 11.9209 765.82 13.2782 765.82 14.895V27.366H762.004V15.3546C762.004 13.9334 761.633 12.8229 760.893 12.023C760.153 11.2146 759.136 10.8104 757.842 10.8104C756.957 10.8104 756.17 11.0018 755.481 11.3848C754.8 11.7677 754.26 12.3293 753.86 13.0697C753.468 13.8015 753.273 14.6865 753.273 15.7247ZM778.44 35.1269C776.883 35.1269 775.543 34.9227 774.419 34.5142C773.305 34.1057 772.394 33.5654 771.688 32.8931C770.982 32.2208 770.454 31.4847 770.105 30.6848L773.386 29.3318C773.615 29.7062 773.922 30.1019 774.305 30.5189C774.696 30.9444 775.224 31.306 775.887 31.6039C776.56 31.9017 777.423 32.0506 778.479 32.0506C779.925 32.0506 781.121 31.6975 782.065 30.9912C783.01 30.2934 783.482 29.1786 783.482 27.6469V23.7919H783.24C783.01 24.2089 782.678 24.6727 782.244 25.1833C781.819 25.6939 781.231 26.1364 780.483 26.5108C779.734 26.8852 778.759 27.0724 777.56 27.0724C776.011 27.0724 774.615 26.7108 773.373 25.9875C772.139 25.2556 771.16 24.1791 770.437 22.758C769.722 21.3284 769.365 19.5711 769.365 17.4862C769.365 15.4014 769.718 13.6143 770.424 12.1251C771.139 10.6359 772.118 9.49561 773.36 8.7042C774.602 7.90429 776.011 7.50433 777.585 7.50433C778.802 7.50433 779.785 7.70856 780.534 8.11703C781.283 8.51699 781.865 8.98502 782.282 9.52114C782.708 10.0572 783.036 10.5295 783.265 10.938H783.546V7.75962H787.286V27.8C787.286 29.485 786.895 30.8678 786.112 31.9485C785.329 33.0293 784.269 33.8292 782.933 34.3483C781.606 34.8674 780.108 35.1269 778.44 35.1269ZM778.402 23.9068C779.5 23.9068 780.427 23.6515 781.185 23.141C781.951 22.6219 782.529 21.8815 782.921 20.9199C783.321 19.9498 783.521 18.7882 783.521 17.4352C783.521 16.1162 783.325 14.9546 782.933 13.9504C782.542 12.9463 781.968 12.1634 781.21 11.6018C780.453 11.0316 779.517 10.7465 778.402 10.7465C777.253 10.7465 776.296 11.0444 775.53 11.6401C774.764 12.2272 774.185 13.0271 773.794 14.0398C773.411 15.0525 773.22 16.1843 773.22 17.4352C773.22 18.7202 773.415 19.8477 773.807 20.8178C774.198 21.7879 774.777 22.5453 775.543 23.0899C776.317 23.6345 777.27 23.9068 778.402 23.9068ZM800.838 7.75962V10.8231H790.129V7.75962H800.838ZM793.001 3.06225H796.817V21.6092C796.817 22.3495 796.928 22.9069 797.149 23.2814C797.37 23.6473 797.655 23.8983 798.004 24.0345C798.362 24.1621 798.749 24.2259 799.166 24.2259C799.472 24.2259 799.74 24.2047 799.97 24.1621C800.2 24.1196 800.379 24.0855 800.506 24.06L801.195 27.2129C800.974 27.298 800.659 27.3831 800.251 27.4682C799.842 27.5618 799.332 27.6128 798.719 27.6213C797.715 27.6383 796.779 27.4596 795.911 27.0852C795.043 26.7108 794.341 26.1321 793.805 25.3492C793.269 24.5663 793.001 23.5835 793.001 22.4006V3.06225ZM808.579 15.7247V27.366H804.762V1.22415H808.528V10.9508H808.77C809.23 9.89556 809.932 9.05736 810.876 8.43614C811.821 7.81494 813.055 7.50433 814.578 7.50433C815.923 7.50433 817.097 7.7809 818.101 8.33403C819.114 8.88716 819.897 9.7126 820.45 10.8104C821.012 11.8996 821.292 13.2612 821.292 14.895V27.366H817.476V15.3546C817.476 13.9164 817.106 12.8016 816.365 12.0102C815.625 11.2103 814.595 10.8104 813.276 10.8104C812.374 10.8104 811.566 11.0018 810.851 11.3848C810.145 11.7677 809.587 12.3293 809.179 13.0697C808.779 13.8015 808.579 14.6865 808.579 15.7247ZM834.117 27.7617C832.185 27.7617 830.521 27.349 829.126 26.5236C827.739 25.6896 826.666 24.5195 825.909 23.0133C825.16 21.4986 824.786 19.7243 824.786 17.6905C824.786 15.6822 825.16 13.9122 825.909 12.3804C826.666 10.8487 827.722 9.65304 829.075 8.79355C830.436 7.93407 832.028 7.50433 833.849 7.50433C834.955 7.50433 836.027 7.68729 837.065 8.05321C838.104 8.41913 839.035 8.99353 839.861 9.77643C840.686 10.5593 841.337 11.5762 841.814 12.8272C842.29 14.0696 842.529 15.5801 842.529 17.3586V18.7116H826.943V15.8524H838.789C838.789 14.8482 838.584 13.959 838.176 13.1846C837.767 12.4017 837.193 11.7847 836.453 11.3337C835.721 10.8827 834.861 10.6572 833.874 10.6572C832.802 10.6572 831.866 10.921 831.066 11.4486C830.275 11.9677 829.662 12.6485 829.228 13.4909C828.802 14.3249 828.59 15.2312 828.59 16.2098V18.4436C828.59 19.7541 828.819 20.8689 829.279 21.7879C829.747 22.707 830.398 23.409 831.232 23.8941C832.066 24.3706 833.04 24.6089 834.155 24.6089C834.878 24.6089 835.538 24.5068 836.134 24.3025C836.729 24.0898 837.244 23.7749 837.678 23.358C838.112 22.941 838.444 22.4261 838.674 21.8134L842.286 22.4644C841.997 23.5281 841.478 24.46 840.729 25.2599C839.988 26.0513 839.057 26.6682 837.933 27.1107C836.819 27.5447 835.546 27.7617 834.117 27.7617ZM849.861 15.7247V27.366H846.044V7.75962H849.708V10.9508H849.95C850.401 9.91258 851.108 9.07863 852.069 8.44891C853.039 7.81919 854.261 7.50433 855.733 7.50433C857.069 7.50433 858.239 7.78515 859.243 8.34679C860.247 8.89993 861.026 9.72537 861.579 10.8231C862.132 11.9209 862.409 13.2782 862.409 14.895V27.366H858.592V15.3546C858.592 13.9334 858.222 12.8229 857.481 12.023C856.741 11.2146 855.724 10.8104 854.431 10.8104C853.546 10.8104 852.759 11.0018 852.069 11.3848C851.388 11.7677 850.848 12.3293 850.448 13.0697C850.057 13.8015 849.861 14.6865 849.861 15.7247ZM878.015 34.7184C877.445 34.7184 876.925 34.6716 876.457 34.578C875.989 34.4929 875.64 34.3993 875.411 34.2972L876.33 31.1699C877.028 31.3571 877.649 31.4379 878.193 31.4124C878.738 31.3869 879.219 31.1826 879.636 30.7997C880.061 30.4168 880.436 29.7913 880.759 28.9233L881.231 27.6213L874.058 7.75962H878.142L883.108 22.975H883.312L888.277 7.75962H892.375L884.295 29.9828C883.92 31.0039 883.444 31.8677 882.865 32.574C882.287 33.2888 881.597 33.8249 880.797 34.1823C879.997 34.5397 879.07 34.7184 878.015 34.7184ZM902.834 27.7617C900.996 27.7617 899.392 27.3405 898.022 26.498C896.652 25.6556 895.588 24.477 894.831 22.9623C894.074 21.4475 893.695 19.6775 893.695 17.6522C893.695 15.6184 894.074 13.8398 894.831 12.3166C895.588 10.7933 896.652 9.61049 898.022 8.76803C899.392 7.92556 900.996 7.50433 902.834 7.50433C904.673 7.50433 906.277 7.92556 907.647 8.76803C909.017 9.61049 910.081 10.7933 910.838 12.3166C911.595 13.8398 911.974 15.6184 911.974 17.6522C911.974 19.6775 911.595 21.4475 910.838 22.9623C910.081 24.477 909.017 25.6556 907.647 26.498C906.277 27.3405 904.673 27.7617 902.834 27.7617ZM902.847 24.5578C904.039 24.5578 905.026 24.243 905.809 23.6132C906.592 22.9835 907.17 22.1453 907.545 21.0986C907.928 20.0519 908.119 18.8989 908.119 17.6394C908.119 16.3885 907.928 15.2397 907.545 14.193C907.17 13.1378 906.592 12.2911 905.809 11.6528C905.026 11.0146 904.039 10.6955 902.847 10.6955C901.647 10.6955 900.652 11.0146 899.86 11.6528C899.077 12.2911 898.495 13.1378 898.112 14.193C897.737 15.2397 897.55 16.3885 897.55 17.6394C897.55 18.8989 897.737 20.0519 898.112 21.0986C898.495 22.1453 899.077 22.9835 899.86 23.6132C900.652 24.243 901.647 24.5578 902.847 24.5578ZM927.935 19.235V7.75962H931.765V27.366H928.012V23.9707H927.808C927.356 25.0173 926.633 25.8896 925.638 26.5874C924.65 27.2767 923.421 27.6213 921.949 27.6213C920.689 27.6213 919.574 27.3448 918.604 26.7916C917.643 26.23 916.885 25.4003 916.332 24.3025C915.788 23.2048 915.515 21.8475 915.515 20.2306V7.75962H919.332V19.7711C919.332 21.1071 919.702 22.1708 920.442 22.9623C921.183 23.7537 922.144 24.1494 923.327 24.1494C924.042 24.1494 924.753 23.9707 925.459 23.6132C926.174 23.2558 926.765 22.7155 927.233 21.9921C927.71 21.2688 927.944 20.3498 927.935 19.235ZM936.174 27.366V7.75962H939.863V10.8742H940.067C940.424 9.81898 941.054 8.98928 941.956 8.38509C942.867 7.77239 943.896 7.46604 945.045 7.46604C945.284 7.46604 945.564 7.47455 945.888 7.49157C946.22 7.50858 946.479 7.52986 946.666 7.55539V11.2061C946.513 11.1635 946.241 11.1167 945.849 11.0657C945.458 11.0061 945.067 10.9763 944.675 10.9763C943.773 10.9763 942.969 11.1678 942.263 11.5507C941.565 11.9251 941.012 12.4485 940.603 13.1208C940.195 13.7845 939.99 14.5419 939.99 15.3928V27.366H936.174ZM980.063 9.72537H976.081C975.927 8.8744 975.642 8.12554 975.225 7.4788C974.808 6.83206 974.298 6.28318 973.694 5.83217C973.089 5.38115 972.413 5.04076 971.664 4.811C970.924 4.58124 970.137 4.46636 969.303 4.46636C967.796 4.46636 966.448 4.84504 965.256 5.60241C964.073 6.35977 963.137 7.47029 962.448 8.93396C961.767 10.3976 961.427 12.1847 961.427 14.2951C961.427 16.4225 961.767 18.2181 962.448 19.6818C963.137 21.1454 964.078 22.2517 965.269 23.0005C966.46 23.7494 967.801 24.1238 969.29 24.1238C970.115 24.1238 970.898 24.0132 971.638 23.7919C972.387 23.5622 973.064 23.2261 973.668 22.7835C974.272 22.341 974.783 21.8007 975.2 21.1624C975.625 20.5157 975.919 19.7754 976.081 18.9414L980.063 18.9542C979.85 20.2391 979.438 21.422 978.825 22.5027C978.221 23.575 977.442 24.5025 976.489 25.2854C975.544 26.0598 974.464 26.6597 973.247 27.0852C972.03 27.5107 970.702 27.7234 969.264 27.7234C967.001 27.7234 964.984 27.1873 963.214 26.1151C961.444 25.0344 960.048 23.4899 959.027 21.4816C958.014 19.4733 957.508 17.0778 957.508 14.2951C957.508 11.5039 958.019 9.10841 959.04 7.10863C960.061 5.10033 961.457 3.56007 963.227 2.48785C964.997 1.40711 967.009 0.866743 969.264 0.866743C970.651 0.866743 971.945 1.06672 973.145 1.46668C974.353 1.85813 975.438 2.43679 976.4 3.20266C977.361 3.96003 978.157 4.88759 978.787 5.98534C979.416 7.07459 979.842 8.32126 980.063 9.72537ZM986.097 27.366H981.91L991.317 1.22415H995.874L1005.28 27.366H1001.1L993.704 5.97258H993.5L986.097 27.366ZM986.799 17.1288H1000.38V20.4476H986.799V17.1288ZM1008.34 27.366V1.22415H1017.66C1019.68 1.22415 1021.36 1.57305 1022.7 2.27085C1024.04 2.96865 1025.05 3.9345 1025.71 5.16841C1026.37 6.39381 1026.71 7.81068 1026.71 9.41902C1026.71 11.0188 1026.37 12.4272 1025.7 13.6441C1025.03 14.8525 1024.03 15.7928 1022.69 16.4651C1021.35 17.1373 1019.67 17.4735 1017.64 17.4735H1010.58V14.0781H1017.29C1018.56 14.0781 1019.6 13.8951 1020.4 13.5292C1021.21 13.1633 1021.8 12.6314 1022.17 11.9336C1022.55 11.2358 1022.74 10.3976 1022.74 9.41902C1022.74 8.43189 1022.55 7.57666 1022.16 6.85334C1021.79 6.13001 1021.2 5.57688 1020.39 5.19394C1019.59 4.80249 1018.54 4.60677 1017.24 4.60677H1012.28V27.366H1008.34ZM1021.24 15.5716L1027.7 27.366H1023.21L1016.88 15.5716H1021.24ZM1030.79 27.366V1.22415H1047V4.61953H1034.73V12.5846H1045.84V15.9673H1034.73V27.366H1030.79ZM9.13574 91.8047C7.23807 91.8047 5.6042 91.375 4.23414 90.5155C2.87258 89.6475 1.82588 88.4519 1.09405 86.9287C0.36221 85.4054 -0.00370805 83.6609 -0.00370805 81.6952C-0.00370805 79.7039 0.37072 77.9467 1.11958 76.4234C1.86843 74.8917 2.92364 73.696 4.28519 72.8366C5.64675 71.9771 7.25083 71.5473 9.09745 71.5473C10.5866 71.5473 11.9142 71.8239 13.08 72.377C14.2458 72.9217 15.1862 73.6875 15.901 74.6747C16.6243 75.6618 17.054 76.8149 17.1902 78.1339H13.4757C13.2715 77.2148 12.8034 76.4234 12.0716 75.7597C11.3483 75.0959 10.3782 74.764 9.16127 74.764C8.09755 74.764 7.16574 75.0448 6.36582 75.6065C5.57442 76.1596 4.95746 76.951 4.51496 77.9807C4.07245 79.0019 3.8512 80.2102 3.8512 81.6058C3.8512 83.0355 4.0682 84.2694 4.50219 85.3076C4.93619 86.3458 5.54889 87.1499 6.34029 87.7201C7.14021 88.2902 8.08053 88.5753 9.16127 88.5753C9.88459 88.5753 10.5398 88.4434 11.127 88.1796C11.7227 87.9073 12.2205 87.5201 12.6205 87.018C13.0289 86.5159 13.314 85.9118 13.4757 85.2055H17.1902C17.054 86.4734 16.6413 87.6052 15.952 88.6008C15.2627 89.5965 14.3394 90.3794 13.1821 90.9495C12.0333 91.5197 10.6845 91.8047 9.13574 91.8047ZM28.8115 91.8047C26.9734 91.8047 25.3693 91.3835 23.9992 90.5411C22.6291 89.6986 21.5654 88.52 20.8081 87.0053C20.0507 85.4905 19.672 83.7205 19.672 81.6952C19.672 79.6614 20.0507 77.8828 20.8081 76.3596C21.5654 74.8363 22.6291 73.6535 23.9992 72.811C25.3693 71.9686 26.9734 71.5473 28.8115 71.5473C30.6496 71.5473 32.2536 71.9686 33.6237 72.811C34.9938 73.6535 36.0575 74.8363 36.8149 76.3596C37.5722 77.8828 37.9509 79.6614 37.9509 81.6952C37.9509 83.7205 37.5722 85.4905 36.8149 87.0053C36.0575 88.52 34.9938 89.6986 33.6237 90.5411C32.2536 91.3835 30.6496 91.8047 28.8115 91.8047ZM28.8242 88.6008C30.0156 88.6008 31.0027 88.286 31.7856 87.6563C32.5685 87.0265 33.1472 86.1883 33.5216 85.1416C33.9045 84.0949 34.096 82.9419 34.096 81.6824C34.096 80.4315 33.9045 79.2827 33.5216 78.236C33.1472 77.1808 32.5685 76.3341 31.7856 75.6958C31.0027 75.0576 30.0156 74.7385 28.8242 74.7385C27.6244 74.7385 26.6287 75.0576 25.8373 75.6958C25.0544 76.3341 24.4715 77.1808 24.0886 78.236C23.7141 79.2827 23.5269 80.4315 23.5269 81.6824C23.5269 82.9419 23.7141 84.0949 24.0886 85.1416C24.4715 86.1883 25.0544 87.0265 25.8373 87.6563C26.6287 88.286 27.6244 88.6008 28.8242 88.6008ZM41.4922 91.409V71.8026H45.1556V74.9938H45.3982C45.8066 73.913 46.4746 73.0706 47.4022 72.4664C48.3298 71.8537 49.4403 71.5473 50.7338 71.5473C52.0443 71.5473 53.142 71.8537 54.027 72.4664C54.9205 73.0791 55.58 73.9216 56.0055 74.9938H56.2098C56.6778 73.9471 57.4224 73.1131 58.4436 72.4919C59.4647 71.8622 60.6816 71.5473 62.0942 71.5473C63.8728 71.5473 65.3237 72.1047 66.447 73.2195C67.5788 74.3343 68.1447 76.0149 68.1447 78.2615V91.409H64.328V78.6189C64.328 77.2914 63.9664 76.3298 63.2431 75.7341C62.5197 75.1384 61.656 74.8406 60.6518 74.8406C59.4094 74.8406 58.4436 75.2235 57.7543 75.9894C57.065 76.7468 56.7203 77.7211 56.7203 78.9125V91.409H52.9165V78.3764C52.9165 77.3127 52.5846 76.4575 51.9209 75.8107C51.2571 75.164 50.3934 74.8406 49.3296 74.8406C48.6063 74.8406 47.9383 75.0321 47.3256 75.415C46.7214 75.7894 46.2321 76.3128 45.8577 76.9851C45.4918 77.6573 45.3088 78.436 45.3088 79.321V91.409H41.4922ZM72.5412 98.7614V71.8026H76.2684V74.981H76.5875C76.8088 74.5725 77.1279 74.1003 77.5449 73.5641C77.9619 73.028 78.5405 72.56 79.2809 72.16C80.0212 71.7516 80.9998 71.5473 82.2167 71.5473C83.7995 71.5473 85.2121 71.9473 86.4546 72.7472C87.697 73.5471 88.6713 74.7002 89.3777 76.2064C90.0925 77.7126 90.4499 79.5252 90.4499 81.6441C90.4499 83.7631 90.0967 85.5799 89.3904 87.0946C88.6841 88.6008 87.714 89.7624 86.4801 90.5793C85.2462 91.3878 83.8378 91.792 82.255 91.792C81.0636 91.792 80.0893 91.592 79.3319 91.192C78.5831 90.7921 77.9959 90.3241 77.5704 89.7879C77.1449 89.2518 76.8173 88.7753 76.5875 88.3583H76.3578V98.7614H72.5412ZM76.2812 81.6058C76.2812 82.9844 76.4812 84.1928 76.8811 85.231C77.2811 86.2692 77.8597 87.0818 78.6171 87.669C79.3745 88.2477 80.302 88.537 81.3998 88.537C82.5401 88.537 83.4932 88.2349 84.2591 87.6307C85.0249 87.018 85.6036 86.1883 85.995 85.1416C86.395 84.0949 86.595 82.9163 86.595 81.6058C86.595 80.3124 86.3992 79.1508 86.0078 78.1211C85.6249 77.0914 85.0462 76.2787 84.2718 75.6831C83.5059 75.0874 82.5486 74.7895 81.3998 74.7895C80.2935 74.7895 79.3574 75.0746 78.5916 75.6448C77.8342 76.2149 77.2598 77.0106 76.8684 78.0318C76.4769 79.0529 76.2812 80.2443 76.2812 81.6058ZM97.8237 65.2672V91.409H94.0071V65.2672H97.8237ZM102.239 91.409V71.8026H106.056V91.409H102.239ZM104.167 68.7774C103.503 68.7774 102.933 68.5562 102.456 68.1137C101.988 67.6626 101.754 67.1265 101.754 66.5053C101.754 65.8756 101.988 65.3395 102.456 64.897C102.933 64.446 103.503 64.2205 104.167 64.2205C104.831 64.2205 105.396 64.446 105.865 64.897C106.341 65.3395 106.579 65.8756 106.579 66.5053C106.579 67.1265 106.341 67.6626 105.865 68.1137C105.396 68.5562 104.831 68.7774 104.167 68.7774ZM116.177 91.843C114.935 91.843 113.812 91.6133 112.808 91.1538C111.803 90.6857 111.008 90.0092 110.421 89.1242C109.842 88.2392 109.553 87.1542 109.553 85.8692C109.553 84.7629 109.765 83.8524 110.191 83.1376C110.616 82.4228 111.191 81.8569 111.914 81.4399C112.637 81.0229 113.446 80.7081 114.339 80.4953C115.233 80.2826 116.143 80.1209 117.071 80.0103C118.245 79.8741 119.198 79.7635 119.93 79.6784C120.662 79.5848 121.194 79.4359 121.526 79.2316C121.858 79.0274 122.024 78.6955 122.024 78.236V78.1466C122.024 77.0319 121.709 76.1681 121.079 75.5554C120.458 74.9427 119.53 74.6364 118.296 74.6364C117.011 74.6364 115.999 74.9214 115.258 75.4916C114.527 76.0532 114.02 76.6787 113.739 77.368L110.153 76.5511C110.578 75.3597 111.199 74.3981 112.016 73.6663C112.842 72.9259 113.79 72.3898 114.863 72.0579C115.935 71.7175 117.062 71.5473 118.245 71.5473C119.028 71.5473 119.858 71.6409 120.734 71.8282C121.619 72.0069 122.445 72.3387 123.211 72.8238C123.985 73.3089 124.619 74.0024 125.113 74.9044C125.606 75.7979 125.853 76.9595 125.853 78.3892V91.409H122.126V88.7285H121.973C121.726 89.222 121.356 89.7071 120.862 90.1836C120.368 90.6602 119.734 91.0559 118.96 91.3707C118.186 91.6856 117.258 91.843 116.177 91.843ZM117.007 88.7795C118.062 88.7795 118.964 88.571 119.713 88.1541C120.471 87.7371 121.045 87.1925 121.436 86.5202C121.836 85.8394 122.036 85.1118 122.036 84.3375V81.8101C121.9 81.9462 121.636 82.0739 121.245 82.193C120.862 82.3036 120.424 82.4015 119.93 82.4866C119.437 82.5632 118.956 82.6355 118.488 82.7036C118.02 82.7632 117.628 82.8142 117.313 82.8568C116.573 82.9504 115.897 83.1078 115.284 83.3291C114.68 83.5503 114.195 83.8694 113.829 84.2864C113.471 84.6949 113.293 85.2395 113.293 85.9203C113.293 86.8648 113.642 87.5797 114.339 88.0647C115.037 88.5413 115.926 88.7795 117.007 88.7795ZM134.034 79.7677V91.409H130.218V71.8026H133.881V74.9938H134.124C134.575 73.9556 135.281 73.1216 136.242 72.4919C137.213 71.8622 138.434 71.5473 139.906 71.5473C141.242 71.5473 142.412 71.8282 143.416 72.3898C144.42 72.9429 145.199 73.7684 145.752 74.8661C146.305 75.9639 146.582 77.3212 146.582 78.938V91.409H142.765V79.3976C142.765 77.9764 142.395 76.8659 141.655 76.066C140.914 75.2576 139.897 74.8534 138.604 74.8534C137.719 74.8534 136.932 75.0448 136.242 75.4278C135.562 75.8107 135.021 76.3724 134.621 77.1127C134.23 77.8445 134.034 78.7295 134.034 79.7677ZM159.24 91.8047C157.343 91.8047 155.709 91.375 154.339 90.5155C152.977 89.6475 151.93 88.4519 151.198 86.9287C150.467 85.4054 150.101 83.6609 150.101 81.6952C150.101 79.7039 150.475 77.9467 151.224 76.4234C151.973 74.8917 153.028 73.696 154.39 72.8366C155.751 71.9771 157.355 71.5473 159.202 71.5473C160.691 71.5473 162.019 71.8239 163.184 72.377C164.35 72.9217 165.291 73.6875 166.005 74.6747C166.729 75.6618 167.158 76.8149 167.295 78.1339H163.58C163.376 77.2148 162.908 76.4234 162.176 75.7597C161.453 75.0959 160.483 74.764 159.266 74.764C158.202 74.764 157.27 75.0448 156.47 75.6065C155.679 76.1596 155.062 76.951 154.619 77.9807C154.177 79.0019 153.956 80.2102 153.956 81.6058C153.956 83.0355 154.173 84.2694 154.607 85.3076C155.041 86.3458 155.653 87.1499 156.445 87.7201C157.245 88.2902 158.185 88.5753 159.266 88.5753C159.989 88.5753 160.644 88.4434 161.231 88.1796C161.827 87.9073 162.325 87.5201 162.725 87.018C163.133 86.5159 163.418 85.9118 163.58 85.2055H167.295C167.158 86.4734 166.746 87.6052 166.056 88.6008C165.367 89.5965 164.444 90.3794 163.287 90.9495C162.138 91.5197 160.789 91.8047 159.24 91.8047ZM179.107 91.8047C177.176 91.8047 175.512 91.392 174.116 90.5666C172.729 89.7326 171.657 88.5625 170.9 87.0563C170.151 85.5416 169.776 83.7673 169.776 81.7335C169.776 79.7252 170.151 77.9552 170.9 76.4234C171.657 74.8917 172.712 73.696 174.065 72.8366C175.427 71.9771 177.018 71.5473 178.839 71.5473C179.946 71.5473 181.018 71.7303 182.056 72.0962C183.094 72.4621 184.026 73.0365 184.851 73.8194C185.677 74.6023 186.328 75.6192 186.804 76.8702C187.281 78.1126 187.519 79.6231 187.519 81.4016V82.7547H171.934V79.8954H183.779C183.779 78.8912 183.575 78.002 183.167 77.2276C182.758 76.4447 182.184 75.8277 181.443 75.3767C180.711 74.9257 179.852 74.7002 178.865 74.7002C177.793 74.7002 176.857 74.964 176.057 75.4916C175.265 76.0107 174.653 76.6915 174.219 77.5339C173.793 78.3679 173.58 79.2742 173.58 80.2528V82.4866C173.58 83.7971 173.81 84.9119 174.27 85.8309C174.738 86.75 175.389 87.452 176.223 87.9371C177.057 88.4136 178.031 88.6519 179.146 88.6519C179.869 88.6519 180.528 88.5498 181.124 88.3455C181.72 88.1328 182.235 87.8179 182.669 87.401C183.103 86.984 183.435 86.4691 183.664 85.8564L187.277 86.5074C186.987 87.5712 186.468 88.503 185.719 89.3029C184.979 90.0943 184.047 90.7112 182.924 91.1538C181.809 91.5877 180.537 91.8047 179.107 91.8047ZM199.829 98.7614V71.8026H203.556V74.981H203.875C204.097 74.5725 204.416 74.1003 204.833 73.5641C205.25 73.028 205.828 72.56 206.569 72.16C207.309 71.7516 208.288 71.5473 209.504 71.5473C211.087 71.5473 212.5 71.9473 213.742 72.7472C214.985 73.5471 215.959 74.7002 216.665 76.2064C217.38 77.7126 217.738 79.5252 217.738 81.6441C217.738 83.7631 217.384 85.5799 216.678 87.0946C215.972 88.6008 215.002 89.7624 213.768 90.5793C212.534 91.3878 211.126 91.792 209.543 91.792C208.351 91.792 207.377 91.592 206.62 91.192C205.871 90.7921 205.284 90.3241 204.858 89.7879C204.433 89.2518 204.105 88.7753 203.875 88.3583H203.646V98.7614H199.829ZM203.569 81.6058C203.569 82.9844 203.769 84.1928 204.169 85.231C204.569 86.2692 205.147 87.0818 205.905 87.669C206.662 88.2477 207.59 88.537 208.688 88.537C209.828 88.537 210.781 88.2349 211.547 87.6307C212.313 87.018 212.891 86.1883 213.283 85.1416C213.683 84.0949 213.883 82.9163 213.883 81.6058C213.883 80.3124 213.687 79.1508 213.296 78.1211C212.913 77.0914 212.334 76.2787 211.56 75.6831C210.794 75.0874 209.836 74.7895 208.688 74.7895C207.581 74.7895 206.645 75.0746 205.879 75.6448C205.122 76.2149 204.548 77.0106 204.156 78.0318C203.765 79.0529 203.569 80.2443 203.569 81.6058ZM221.295 91.409V71.8026H224.984V74.9172H225.188C225.545 73.862 226.175 73.0323 227.077 72.4281C227.988 71.8154 229.017 71.509 230.166 71.509C230.405 71.509 230.685 71.5176 231.009 71.5346C231.341 71.5516 231.6 71.5729 231.787 71.5984V75.2491C231.634 75.2065 231.362 75.1597 230.97 75.1087C230.579 75.0491 230.188 75.0193 229.796 75.0193C228.894 75.0193 228.09 75.2108 227.384 75.5937C226.686 75.9681 226.133 76.4915 225.724 77.1638C225.316 77.8275 225.111 78.5849 225.111 79.4359V91.409H221.295ZM241.928 91.8047C240.09 91.8047 238.486 91.3835 237.116 90.5411C235.746 89.6986 234.682 88.52 233.925 87.0053C233.167 85.4905 232.788 83.7205 232.788 81.6952C232.788 79.6614 233.167 77.8828 233.925 76.3596C234.682 74.8363 235.746 73.6535 237.116 72.811C238.486 71.9686 240.09 71.5473 241.928 71.5473C243.766 71.5473 245.37 71.9686 246.74 72.811C248.11 73.6535 249.174 74.8363 249.931 76.3596C250.689 77.8828 251.067 79.6614 251.067 81.6952C251.067 83.7205 250.689 85.4905 249.931 87.0053C249.174 88.52 248.11 89.6986 246.74 90.5411C245.37 91.3835 243.766 91.8047 241.928 91.8047ZM241.941 88.6008C243.132 88.6008 244.119 88.286 244.902 87.6563C245.685 87.0265 246.264 86.1883 246.638 85.1416C247.021 84.0949 247.212 82.9419 247.212 81.6824C247.212 80.4315 247.021 79.2827 246.638 78.236C246.264 77.1808 245.685 76.3341 244.902 75.6958C244.119 75.0576 243.132 74.7385 241.941 74.7385C240.741 74.7385 239.745 75.0576 238.954 75.6958C238.171 76.3341 237.588 77.1808 237.205 78.236C236.831 79.2827 236.643 80.4315 236.643 81.6824C236.643 82.9419 236.831 84.0949 237.205 85.1416C237.588 86.1883 238.171 87.0265 238.954 87.6563C239.745 88.286 240.741 88.6008 241.941 88.6008ZM262.867 91.8047C260.97 91.8047 259.336 91.375 257.966 90.5155C256.604 89.6475 255.557 88.4519 254.826 86.9287C254.094 85.4054 253.728 83.6609 253.728 81.6952C253.728 79.7039 254.102 77.9467 254.851 76.4234C255.6 74.8917 256.655 73.696 258.017 72.8366C259.378 71.9771 260.982 71.5473 262.829 71.5473C264.318 71.5473 265.646 71.8239 266.812 72.377C267.977 72.9217 268.918 73.6875 269.633 74.6747C270.356 75.6618 270.786 76.8149 270.922 78.1339H267.207C267.003 77.2148 266.535 76.4234 265.803 75.7597C265.08 75.0959 264.11 74.764 262.893 74.764C261.829 74.764 260.897 75.0448 260.097 75.6065C259.306 76.1596 258.689 76.951 258.247 77.9807C257.804 79.0019 257.583 80.2102 257.583 81.6058C257.583 83.0355 257.8 84.2694 258.234 85.3076C258.668 86.3458 259.28 87.1499 260.072 87.7201C260.872 88.2902 261.812 88.5753 262.893 88.5753C263.616 88.5753 264.271 88.4434 264.859 88.1796C265.454 87.9073 265.952 87.5201 266.352 87.018C266.761 86.5159 267.046 85.9118 267.207 85.2055H270.922C270.786 86.4734 270.373 87.6052 269.684 88.6008C268.994 89.5965 268.071 90.3794 266.914 90.9495C265.765 91.5197 264.416 91.8047 262.867 91.8047ZM282.735 91.8047C280.803 91.8047 279.139 91.392 277.744 90.5666C276.356 89.7326 275.284 88.5625 274.527 87.0563C273.778 85.5416 273.404 83.7673 273.404 81.7335C273.404 79.7252 273.778 77.9552 274.527 76.4234C275.284 74.8917 276.339 73.696 277.692 72.8366C279.054 71.9771 280.645 71.5473 282.466 71.5473C283.573 71.5473 284.645 71.7303 285.683 72.0962C286.721 72.4621 287.653 73.0365 288.479 73.8194C289.304 74.6023 289.955 75.6192 290.432 76.8702C290.908 78.1126 291.146 79.6231 291.146 81.4016V82.7547H275.561V79.8954H287.406C287.406 78.8912 287.202 78.002 286.794 77.2276C286.385 76.4447 285.811 75.8277 285.07 75.3767C284.339 74.9257 283.479 74.7002 282.492 74.7002C281.42 74.7002 280.484 74.964 279.684 75.4916C278.892 76.0107 278.28 76.6915 277.846 77.5339C277.42 78.3679 277.207 79.2742 277.207 80.2528V82.4866C277.207 83.7971 277.437 84.9119 277.897 85.8309C278.365 86.75 279.016 87.452 279.85 87.9371C280.684 88.4136 281.658 88.6519 282.773 88.6519C283.496 88.6519 284.156 88.5498 284.751 88.3455C285.347 88.1328 285.862 87.8179 286.296 87.401C286.73 86.984 287.062 86.4691 287.291 85.8564L290.904 86.5074C290.615 87.5712 290.095 88.503 289.347 89.3029C288.606 90.0943 287.674 90.7112 286.551 91.1538C285.436 91.5877 284.164 91.8047 282.735 91.8047ZM309.354 76.5894L305.895 77.2021C305.75 76.7595 305.521 76.3383 305.206 75.9384C304.899 75.5384 304.482 75.2108 303.955 74.9555C303.427 74.7002 302.768 74.5725 301.976 74.5725C300.896 74.5725 299.993 74.8151 299.27 75.3001C298.547 75.7767 298.185 76.3936 298.185 77.151C298.185 77.8062 298.428 78.3338 298.913 78.7338C299.398 79.1338 300.181 79.4614 301.261 79.7167L304.376 80.4315C306.18 80.8485 307.525 81.491 308.41 82.3589C309.295 83.2269 309.737 84.3545 309.737 85.7416C309.737 86.9159 309.397 87.9626 308.716 88.8817C308.044 89.7922 307.103 90.507 305.895 91.0261C304.695 91.5452 303.304 91.8047 301.721 91.8047C299.525 91.8047 297.734 91.3367 296.347 90.4006C294.96 89.4561 294.109 88.1158 293.794 86.3798L297.483 85.8182C297.713 86.7798 298.185 87.5073 298.9 88.0009C299.615 88.486 300.547 88.7285 301.695 88.7285C302.946 88.7285 303.946 88.4689 304.695 87.9498C305.444 87.4222 305.818 86.7798 305.818 86.0224C305.818 85.4097 305.589 84.8948 305.129 84.4779C304.678 84.0609 303.985 83.746 303.048 83.5333L299.73 82.8057C297.9 82.3887 296.547 81.725 295.671 80.8144C294.803 79.9039 294.369 78.7508 294.369 77.3552C294.369 76.1979 294.692 75.1852 295.339 74.3173C295.985 73.4493 296.879 72.7727 298.019 72.2877C299.16 71.7941 300.466 71.5473 301.938 71.5473C304.057 71.5473 305.725 72.0069 306.942 72.9259C308.159 73.8365 308.963 75.0576 309.354 76.5894ZM327.907 76.5894L324.447 77.2021C324.303 76.7595 324.073 76.3383 323.758 75.9384C323.452 75.5384 323.035 75.2108 322.507 74.9555C321.98 74.7002 321.32 74.5725 320.529 74.5725C319.448 74.5725 318.546 74.8151 317.823 75.3001C317.099 75.7767 316.738 76.3936 316.738 77.151C316.738 77.8062 316.98 78.3338 317.465 78.7338C317.95 79.1338 318.733 79.4614 319.814 79.7167L322.928 80.4315C324.732 80.8485 326.077 81.491 326.962 82.3589C327.847 83.2269 328.29 84.3545 328.29 85.7416C328.29 86.9159 327.949 87.9626 327.268 88.8817C326.596 89.7922 325.656 90.507 324.447 91.0261C323.248 91.5452 321.856 91.8047 320.273 91.8047C318.078 91.8047 316.287 91.3367 314.9 90.4006C313.512 89.4561 312.661 88.1158 312.347 86.3798L316.036 85.8182C316.265 86.7798 316.738 87.5073 317.452 88.0009C318.167 88.486 319.099 88.7285 320.248 88.7285C321.499 88.7285 322.499 88.4689 323.248 87.9498C323.996 87.4222 324.371 86.7798 324.371 86.0224C324.371 85.4097 324.141 84.8948 323.682 84.4779C323.231 84.0609 322.537 83.746 321.601 83.5333L318.282 82.8057C316.453 82.3887 315.099 81.725 314.223 80.8144C313.355 79.9039 312.921 78.7508 312.921 77.3552C312.921 76.1979 313.244 75.1852 313.891 74.3173C314.538 73.4493 315.431 72.7727 316.572 72.2877C317.712 71.7941 319.018 71.5473 320.49 71.5473C322.609 71.5473 324.277 72.0069 325.494 72.9259C326.711 73.8365 327.515 75.0576 327.907 76.5894ZM340.217 91.8047C338.285 91.8047 336.622 91.392 335.226 90.5666C333.839 89.7326 332.767 88.5625 332.01 87.0563C331.261 85.5416 330.886 83.7673 330.886 81.7335C330.886 79.7252 331.261 77.9552 332.01 76.4234C332.767 74.8917 333.822 73.696 335.175 72.8366C336.537 71.9771 338.128 71.5473 339.949 71.5473C341.055 71.5473 342.128 71.7303 343.166 72.0962C344.204 72.4621 345.136 73.0365 345.961 73.8194C346.787 74.6023 347.438 75.6192 347.914 76.8702C348.391 78.1126 348.629 79.6231 348.629 81.4016V82.7547H333.043V79.8954H344.889C344.889 78.8912 344.685 78.002 344.276 77.2276C343.868 76.4447 343.293 75.8277 342.553 75.3767C341.821 74.9257 340.962 74.7002 339.975 74.7002C338.902 74.7002 337.966 74.964 337.166 75.4916C336.375 76.0107 335.762 76.6915 335.328 77.5339C334.903 78.3679 334.69 79.2742 334.69 80.2528V82.4866C334.69 83.7971 334.92 84.9119 335.379 85.8309C335.847 86.75 336.498 87.452 337.332 87.9371C338.166 88.4136 339.141 88.6519 340.255 88.6519C340.979 88.6519 341.638 88.5498 342.234 88.3455C342.83 88.1328 343.345 87.8179 343.778 87.401C344.212 86.984 344.544 86.4691 344.774 85.8564L348.387 86.5074C348.097 87.5712 347.578 88.503 346.829 89.3029C346.089 90.0943 345.157 90.7112 344.034 91.1538C342.919 91.5877 341.647 91.8047 340.217 91.8047ZM366.837 76.5894L363.378 77.2021C363.233 76.7595 363.003 76.3383 362.688 75.9384C362.382 75.5384 361.965 75.2108 361.437 74.9555C360.91 74.7002 360.25 74.5725 359.459 74.5725C358.378 74.5725 357.476 74.8151 356.753 75.3001C356.029 75.7767 355.668 76.3936 355.668 77.151C355.668 77.8062 355.91 78.3338 356.395 78.7338C356.88 79.1338 357.663 79.4614 358.744 79.7167L361.859 80.4315C363.663 80.8485 365.007 81.491 365.892 82.3589C366.777 83.2269 367.22 84.3545 367.22 85.7416C367.22 86.9159 366.879 87.9626 366.199 88.8817C365.526 89.7922 364.586 90.507 363.378 91.0261C362.178 91.5452 360.786 91.8047 359.204 91.8047C357.008 91.8047 355.217 91.3367 353.83 90.4006C352.443 89.4561 351.592 88.1158 351.277 86.3798L354.966 85.8182C355.196 86.7798 355.668 87.5073 356.383 88.0009C357.097 88.486 358.029 88.7285 359.178 88.7285C360.429 88.7285 361.429 88.4689 362.178 87.9498C362.927 87.4222 363.301 86.7798 363.301 86.0224C363.301 85.4097 363.071 84.8948 362.612 84.4779C362.161 84.0609 361.467 83.746 360.531 83.5333L357.212 82.8057C355.383 82.3887 354.03 81.725 353.153 80.8144C352.285 79.9039 351.851 78.7508 351.851 77.3552C351.851 76.1979 352.175 75.1852 352.821 74.3173C353.468 73.4493 354.362 72.7727 355.502 72.2877C356.642 71.7941 357.948 71.5473 359.421 71.5473C361.54 71.5473 363.207 72.0069 364.424 72.9259C365.641 73.8365 366.445 75.0576 366.837 76.5894ZM375.663 87.835L375.471 89.2263C375.344 90.2475 375.127 91.3112 374.82 92.4174C374.522 93.5322 374.212 94.5662 373.888 95.5192C373.574 96.4723 373.314 97.2297 373.11 97.7913H370.404C370.514 97.2637 370.667 96.5489 370.863 95.6469C371.059 94.7534 371.25 93.7535 371.438 92.6472C371.625 91.5409 371.765 90.4134 371.859 89.2646L371.986 87.835H375.663ZM394.412 91.843C393.17 91.843 392.046 91.6133 391.042 91.1538C390.038 90.6857 389.242 90.0092 388.655 89.1242C388.077 88.2392 387.787 87.1542 387.787 85.8692C387.787 84.7629 388 83.8524 388.425 83.1376C388.851 82.4228 389.425 81.8569 390.149 81.4399C390.872 81.0229 391.68 80.7081 392.574 80.4953C393.467 80.2826 394.378 80.1209 395.306 80.0103C396.48 79.8741 397.433 79.7635 398.165 79.6784C398.897 79.5848 399.429 79.4359 399.76 79.2316C400.092 79.0274 400.258 78.6955 400.258 78.236V78.1466C400.258 77.0319 399.943 76.1681 399.314 75.5554C398.692 74.9427 397.765 74.6364 396.531 74.6364C395.246 74.6364 394.233 74.9214 393.493 75.4916C392.761 76.0532 392.255 76.6787 391.974 77.368L388.387 76.5511C388.813 75.3597 389.434 74.3981 390.251 73.6663C391.076 72.9259 392.025 72.3898 393.097 72.0579C394.17 71.7175 395.297 71.5473 396.48 71.5473C397.263 71.5473 398.093 71.6409 398.969 71.8282C399.854 72.0069 400.679 72.3387 401.445 72.8238C402.22 73.3089 402.854 74.0024 403.347 74.9044C403.841 75.7979 404.088 76.9595 404.088 78.3892V91.409H400.36V88.7285H400.207C399.96 89.222 399.59 89.7071 399.097 90.1836C398.603 90.6602 397.969 91.0559 397.195 91.3707C396.42 91.6856 395.493 91.843 394.412 91.843ZM395.242 88.7795C396.297 88.7795 397.199 88.571 397.948 88.1541C398.705 87.7371 399.28 87.1925 399.671 86.5202C400.071 85.8394 400.271 85.1118 400.271 84.3375V81.8101C400.135 81.9462 399.871 82.0739 399.48 82.193C399.097 82.3036 398.658 82.4015 398.165 82.4866C397.671 82.5632 397.19 82.6355 396.722 82.7036C396.254 82.7632 395.863 82.8142 395.548 82.8568C394.808 82.9504 394.131 83.1078 393.519 83.3291C392.914 83.5503 392.429 83.8694 392.063 84.2864C391.706 84.6949 391.527 85.2395 391.527 85.9203C391.527 86.8648 391.876 87.5797 392.574 88.0647C393.272 88.5413 394.161 88.7795 395.242 88.7795ZM412.269 65.2672V91.409H408.452V65.2672H412.269ZM420.501 65.2672V91.409H416.684V65.2672H420.501ZM433.711 91.409V71.8026H437.527V91.409H433.711ZM435.638 68.7774C434.974 68.7774 434.404 68.5562 433.928 68.1137C433.46 67.6626 433.226 67.1265 433.226 66.5053C433.226 65.8756 433.46 65.3395 433.928 64.897C434.404 64.446 434.974 64.2205 435.638 64.2205C436.302 64.2205 436.868 64.446 437.336 64.897C437.812 65.3395 438.051 65.8756 438.051 66.5053C438.051 67.1265 437.812 67.6626 437.336 68.1137C436.868 68.5562 436.302 68.7774 435.638 68.7774ZM445.76 79.7677V91.409H441.943V71.8026H445.606V74.9938H445.849C446.3 73.9556 447.006 73.1216 447.968 72.4919C448.938 71.8622 450.159 71.5473 451.631 71.5473C452.967 71.5473 454.137 71.8282 455.142 72.3898C456.146 72.9429 456.924 73.7684 457.477 74.8661C458.031 75.9639 458.307 77.3212 458.307 78.938V91.409H454.491V79.3976C454.491 77.9764 454.12 76.8659 453.38 76.066C452.64 75.2576 451.623 74.8534 450.329 74.8534C449.444 74.8534 448.657 75.0448 447.968 75.4278C447.287 75.8107 446.747 76.3724 446.347 77.1127C445.955 77.8445 445.76 78.7295 445.76 79.7677ZM479.759 91.8047C477.921 91.8047 476.317 91.3835 474.947 90.5411C473.577 89.6986 472.513 88.52 471.756 87.0053C470.999 85.4905 470.62 83.7205 470.62 81.6952C470.62 79.6614 470.999 77.8828 471.756 76.3596C472.513 74.8363 473.577 73.6535 474.947 72.811C476.317 71.9686 477.921 71.5473 479.759 71.5473C481.598 71.5473 483.202 71.9686 484.572 72.811C485.942 73.6535 487.005 74.8363 487.763 76.3596C488.52 77.8828 488.899 79.6614 488.899 81.6952C488.899 83.7205 488.52 85.4905 487.763 87.0053C487.005 88.52 485.942 89.6986 484.572 90.5411C483.202 91.3835 481.598 91.8047 479.759 91.8047ZM479.772 88.6008C480.964 88.6008 481.951 88.286 482.734 87.6563C483.516 87.0265 484.095 86.1883 484.47 85.1416C484.853 84.0949 485.044 82.9419 485.044 81.6824C485.044 80.4315 484.853 79.2827 484.47 78.236C484.095 77.1808 483.516 76.3341 482.734 75.6958C481.951 75.0576 480.964 74.7385 479.772 74.7385C478.572 74.7385 477.577 75.0576 476.785 75.6958C476.002 76.3341 475.419 77.1808 475.037 78.236C474.662 79.2827 474.475 80.4315 474.475 81.6824C474.475 82.9419 474.662 84.0949 475.037 85.1416C475.419 86.1883 476.002 87.0265 476.785 87.6563C477.577 88.286 478.572 88.6008 479.772 88.6008ZM496.257 79.7677V91.409H492.44V71.8026H496.104V74.9938H496.346C496.797 73.9556 497.503 73.1216 498.465 72.4919C499.435 71.8622 500.656 71.5473 502.128 71.5473C503.465 71.5473 504.635 71.8282 505.639 72.3898C506.643 72.9429 507.422 73.7684 507.975 74.8661C508.528 75.9639 508.804 77.3212 508.804 78.938V91.409H504.988V79.3976C504.988 77.9764 504.618 76.8659 503.877 76.066C503.137 75.2576 502.12 74.8534 500.827 74.8534C499.941 74.8534 499.154 75.0448 498.465 75.4278C497.784 75.8107 497.244 76.3724 496.844 77.1127C496.453 77.8445 496.257 78.7295 496.257 79.7677ZM521.654 91.8047C519.722 91.8047 518.059 91.392 516.663 90.5666C515.276 89.7326 514.204 88.5625 513.447 87.0563C512.698 85.5416 512.323 83.7673 512.323 81.7335C512.323 79.7252 512.698 77.9552 513.447 76.4234C514.204 74.8917 515.259 73.696 516.612 72.8366C517.974 71.9771 519.565 71.5473 521.386 71.5473C522.492 71.5473 523.565 71.7303 524.603 72.0962C525.641 72.4621 526.573 73.0365 527.398 73.8194C528.224 74.6023 528.875 75.6192 529.351 76.8702C529.828 78.1126 530.066 79.6231 530.066 81.4016V82.7547H514.481V79.8954H526.326C526.326 78.8912 526.122 78.002 525.713 77.2276C525.305 76.4447 524.73 75.8277 523.99 75.3767C523.258 74.9257 522.399 74.7002 521.412 74.7002C520.339 74.7002 519.403 74.964 518.603 75.4916C517.812 76.0107 517.199 76.6915 516.765 77.5339C516.34 78.3679 516.127 79.2742 516.127 80.2528V82.4866C516.127 83.7971 516.357 84.9119 516.816 85.8309C517.284 86.75 517.935 87.452 518.769 87.9371C519.603 88.4136 520.578 88.6519 521.693 88.6519C522.416 88.6519 523.075 88.5498 523.671 88.3455C524.267 88.1328 524.782 87.8179 525.216 87.401C525.65 86.984 525.981 86.4691 526.211 85.8564L529.824 86.5074C529.534 87.5712 529.015 88.503 528.266 89.3029C527.526 90.0943 526.594 90.7112 525.471 91.1538C524.356 91.5877 523.084 91.8047 521.654 91.8047ZM542.376 98.7614V71.8026H546.103V74.981H546.422C546.643 74.5725 546.963 74.1003 547.379 73.5641C547.796 73.028 548.375 72.56 549.115 72.16C549.856 71.7516 550.834 71.5473 552.051 71.5473C553.634 71.5473 555.047 71.9473 556.289 72.7472C557.532 73.5471 558.506 74.7002 559.212 76.2064C559.927 77.7126 560.284 79.5252 560.284 81.6441C560.284 83.7631 559.931 85.5799 559.225 87.0946C558.519 88.6008 557.549 89.7624 556.315 90.5793C555.081 91.3878 553.672 91.792 552.09 91.792C550.898 91.792 549.924 91.592 549.167 91.192C548.418 90.7921 547.831 90.3241 547.405 89.7879C546.98 89.2518 546.652 88.7753 546.422 88.3583H546.192V98.7614H542.376ZM546.116 81.6058C546.116 82.9844 546.316 84.1928 546.716 85.231C547.116 86.2692 547.694 87.0818 548.452 87.669C549.209 88.2477 550.137 88.537 551.234 88.537C552.375 88.537 553.328 88.2349 554.094 87.6307C554.86 87.018 555.438 86.1883 555.83 85.1416C556.23 84.0949 556.43 82.9163 556.43 81.6058C556.43 80.3124 556.234 79.1508 555.842 78.1211C555.459 77.0914 554.881 76.2787 554.106 75.6831C553.341 75.0874 552.383 74.7895 551.234 74.7895C550.128 74.7895 549.192 75.0746 548.426 75.6448C547.669 76.2149 547.094 77.0106 546.703 78.0318C546.312 79.0529 546.116 80.2443 546.116 81.6058ZM567.658 65.2672V91.409H563.842V65.2672H567.658ZM577.78 91.843C576.537 91.843 575.414 91.6133 574.41 91.1538C573.406 90.6857 572.61 90.0092 572.023 89.1242C571.444 88.2392 571.155 87.1542 571.155 85.8692C571.155 84.7629 571.368 83.8524 571.793 83.1376C572.219 82.4228 572.793 81.8569 573.516 81.4399C574.24 81.0229 575.048 80.7081 575.942 80.4953C576.835 80.2826 577.746 80.1209 578.673 80.0103C579.848 79.8741 580.801 79.7635 581.533 79.6784C582.264 79.5848 582.796 79.4359 583.128 79.2316C583.46 79.0274 583.626 78.6955 583.626 78.236V78.1466C583.626 77.0319 583.311 76.1681 582.681 75.5554C582.06 74.9427 581.133 74.6364 579.899 74.6364C578.614 74.6364 577.601 74.9214 576.861 75.4916C576.129 76.0532 575.623 76.6787 575.342 77.368L571.755 76.5511C572.18 75.3597 572.802 74.3981 573.619 73.6663C574.444 72.9259 575.393 72.3898 576.465 72.0579C577.537 71.7175 578.665 71.5473 579.848 71.5473C580.631 71.5473 581.46 71.6409 582.337 71.8282C583.222 72.0069 584.047 72.3387 584.813 72.8238C585.587 73.3089 586.221 74.0024 586.715 74.9044C587.209 75.7979 587.455 76.9595 587.455 78.3892V91.409H583.728V88.7285H583.575C583.328 89.222 582.958 89.7071 582.464 90.1836C581.971 90.6602 581.337 91.0559 580.562 91.3707C579.788 91.6856 578.861 91.843 577.78 91.843ZM578.609 88.7795C579.665 88.7795 580.567 88.571 581.316 88.1541C582.073 87.7371 582.647 87.1925 583.039 86.5202C583.439 85.8394 583.639 85.1118 583.639 84.3375V81.8101C583.503 81.9462 583.239 82.0739 582.847 82.193C582.464 82.3036 582.026 82.4015 581.533 82.4866C581.039 82.5632 580.558 82.6355 580.09 82.7036C579.622 82.7632 579.231 82.8142 578.916 82.8568C578.175 82.9504 577.499 83.1078 576.886 83.3291C576.282 83.5503 575.797 83.8694 575.431 84.2864C575.074 84.6949 574.895 85.2395 574.895 85.9203C574.895 86.8648 575.244 87.5797 575.942 88.0647C576.639 88.5413 577.529 88.7795 578.609 88.7795ZM600.079 91.8047C598.181 91.8047 596.547 91.375 595.177 90.5155C593.815 89.6475 592.769 88.4519 592.037 86.9287C591.305 85.4054 590.939 83.6609 590.939 81.6952C590.939 79.7039 591.314 77.9467 592.062 76.4234C592.811 74.8917 593.867 73.696 595.228 72.8366C596.59 71.9771 598.194 71.5473 600.04 71.5473C601.53 71.5473 602.857 71.8239 604.023 72.377C605.189 72.9217 606.129 73.6875 606.844 74.6747C607.567 75.6618 607.997 76.8149 608.133 78.1339H604.419C604.214 77.2148 603.746 76.4234 603.014 75.7597C602.291 75.0959 601.321 74.764 600.104 74.764C599.04 74.764 598.109 75.0448 597.309 75.6065C596.517 76.1596 595.9 76.951 595.458 77.9807C595.015 79.0019 594.794 80.2102 594.794 81.6058C594.794 83.0355 595.011 84.2694 595.445 85.3076C595.879 86.3458 596.492 87.1499 597.283 87.7201C598.083 88.2902 599.023 88.5753 600.104 88.5753C600.827 88.5753 601.483 88.4434 602.07 88.1796C602.666 87.9073 603.163 87.5201 603.563 87.018C603.972 86.5159 604.257 85.9118 604.419 85.2055H608.133C607.997 86.4734 607.584 87.6052 606.895 88.6008C606.206 89.5965 605.282 90.3794 604.125 90.9495C602.976 91.5197 601.627 91.8047 600.079 91.8047ZM619.946 91.8047C618.014 91.8047 616.35 91.392 614.955 90.5666C613.568 89.7326 612.496 88.5625 611.738 87.0563C610.989 85.5416 610.615 83.7673 610.615 81.7335C610.615 79.7252 610.989 77.9552 611.738 76.4234C612.496 74.8917 613.551 73.696 614.904 72.8366C616.265 71.9771 617.857 71.5473 619.678 71.5473C620.784 71.5473 621.856 71.7303 622.894 72.0962C623.933 72.4621 624.864 73.0365 625.69 73.8194C626.515 74.6023 627.166 75.6192 627.643 76.8702C628.119 78.1126 628.358 79.6231 628.358 81.4016V82.7547H612.772V79.8954H624.618C624.618 78.8912 624.413 78.002 624.005 77.2276C623.596 76.4447 623.022 75.8277 622.282 75.3767C621.55 74.9257 620.69 74.7002 619.703 74.7002C618.631 74.7002 617.695 74.964 616.895 75.4916C616.104 76.0107 615.491 76.6915 615.057 77.5339C614.631 78.3679 614.419 79.2742 614.419 80.2528V82.4866C614.419 83.7971 614.648 84.9119 615.108 85.8309C615.576 86.75 616.227 87.452 617.061 87.9371C617.895 88.4136 618.869 88.6519 619.984 88.6519C620.707 88.6519 621.367 88.5498 621.963 88.3455C622.558 88.1328 623.073 87.8179 623.507 87.401C623.941 86.984 624.273 86.4691 624.503 85.8564L628.115 86.5074C627.826 87.5712 627.307 88.503 626.558 89.3029C625.817 90.0943 624.886 90.7112 623.762 91.1538C622.648 91.5877 621.375 91.8047 619.946 91.8047ZM634.388 91.6516C633.69 91.6516 633.09 91.4048 632.588 90.9112C632.086 90.4092 631.835 89.805 631.835 89.0987C631.835 88.4009 632.086 87.8052 632.588 87.3116C633.09 86.8095 633.69 86.5585 634.388 86.5585C635.086 86.5585 635.686 86.8095 636.188 87.3116C636.69 87.8052 636.941 88.4009 636.941 89.0987C636.941 89.5667 636.822 89.9964 636.584 90.3879C636.354 90.7708 636.047 91.0772 635.664 91.3069C635.282 91.5367 634.856 91.6516 634.388 91.6516Z" fill="white"/>
</svg>
