<svg width="408" height="92" viewBox="0 0 408 92" fill="none" xmlns="http://www.w3.org/2000/svg">
<path d="M1.4056 18.6013V0.716126H7.7807C9.16634 0.716126 10.3162 0.954828 11.2302 1.43223C12.1501 1.90964 12.8371 2.57044 13.2912 3.41463C13.7454 4.253 13.9724 5.22236 13.9724 6.32272C13.9724 7.41726 13.7424 8.3808 13.2825 9.21335C12.8284 10.0401 12.1414 10.6834 11.2215 11.1433C10.3075 11.6033 9.15761 11.8333 7.77197 11.8333H2.94261V9.51027H7.52745C8.40075 9.51027 9.11103 9.3851 9.6583 9.13475C10.2114 8.8844 10.616 8.52053 10.8722 8.04312C11.1284 7.56572 11.2564 6.99225 11.2564 6.32272C11.2564 5.64737 11.1254 5.06226 10.8635 4.56739C10.6073 4.07251 10.2027 3.69408 9.64957 3.43209C9.1023 3.16428 8.38328 3.03037 7.49251 3.03037H4.1041V18.6013H1.4056ZM10.2347 10.532L14.6536 18.6013H11.5796L7.24799 10.532H10.2347ZM22.6596 18.8721C21.338 18.8721 20.1998 18.5897 19.245 18.025C18.296 17.4544 17.5624 16.6539 17.0442 15.6234C16.5319 14.5871 16.2757 13.3732 16.2757 11.9817C16.2757 10.6077 16.5319 9.39674 17.0442 8.34878C17.5624 7.30082 18.2843 6.48283 19.21 5.8948C20.1416 5.30678 21.2303 5.01277 22.4762 5.01277C23.233 5.01277 23.9666 5.13794 24.6769 5.38829C25.3872 5.63863 26.0247 6.03162 26.5894 6.56725C27.1542 7.10287 27.5995 7.7986 27.9256 8.65444C28.2516 9.50445 28.4146 10.5379 28.4146 11.7547V12.6804H17.7516V10.7242H25.8559C25.8559 10.0372 25.7161 9.42876 25.4367 8.89896C25.1572 8.36333 24.7642 7.94124 24.2577 7.63267C23.757 7.32411 23.169 7.16982 22.4936 7.16982C21.7601 7.16982 21.1197 7.35031 20.5724 7.71127C20.0309 8.06641 19.6118 8.53217 19.3148 9.10855C19.0237 9.67911 18.8782 10.2992 18.8782 10.9687V12.497C18.8782 13.3936 19.0354 14.1562 19.3498 14.785C19.67 15.4138 20.1154 15.8941 20.6859 16.226C21.2565 16.552 21.9231 16.715 22.6858 16.715C23.1806 16.715 23.6319 16.6451 24.0394 16.5054C24.4469 16.3599 24.7992 16.1444 25.0961 15.8592C25.393 15.5739 25.6201 15.2217 25.7773 14.8025L28.2487 15.2479C28.0508 15.9756 27.6956 16.6131 27.1833 17.1604C26.6768 17.7018 26.0393 18.1239 25.2707 18.4267C24.5081 18.7236 23.6377 18.8721 22.6596 18.8721ZM36.9621 18.8721C35.6638 18.8721 34.5459 18.578 33.6086 17.99C32.6771 17.3962 31.961 16.5782 31.4603 15.536C30.9596 14.4939 30.7092 13.3004 30.7092 11.9555C30.7092 10.5932 30.9654 9.39092 31.4777 8.34878C31.9901 7.30082 32.712 6.48283 33.6435 5.8948C34.575 5.30678 35.6725 5.01277 36.9359 5.01277C37.9547 5.01277 38.863 5.20198 39.6606 5.58041C40.4582 5.95302 41.1015 6.477 41.5906 7.15236C42.0854 7.82771 42.3794 8.61659 42.4726 9.519H39.9313C39.7916 8.89023 39.4714 8.34878 38.9707 7.89466C38.4758 7.44055 37.8121 7.21349 36.9795 7.21349C36.2518 7.21349 35.6143 7.40561 35.067 7.78987C34.5256 8.1683 34.1035 8.70974 33.8007 9.41421C33.498 10.1128 33.3466 10.9396 33.3466 11.8944C33.3466 12.8725 33.4951 13.7167 33.792 14.427C34.0889 15.1372 34.5081 15.6874 35.0495 16.0775C35.5968 16.4676 36.2401 16.6626 36.9795 16.6626C37.4744 16.6626 37.9227 16.5724 38.3244 16.3919C38.732 16.2056 39.0725 15.9407 39.3462 15.5972C39.6256 15.2537 39.8207 14.8403 39.9313 14.3571H42.4726C42.3794 15.2246 42.0971 15.9989 41.6255 16.6801C41.1539 17.3612 40.5222 17.8969 39.7304 18.2869C38.9445 18.677 38.0217 18.8721 36.9621 18.8721ZM51.0462 18.8721C49.7246 18.8721 48.5864 18.5897 47.6316 18.025C46.6826 17.4544 45.9491 16.6539 45.4309 15.6234C44.9186 14.5871 44.6624 13.3732 44.6624 11.9817C44.6624 10.6077 44.9186 9.39674 45.4309 8.34878C45.9491 7.30082 46.671 6.48283 47.5967 5.8948C48.5282 5.30678 49.6169 5.01277 50.8628 5.01277C51.6197 5.01277 52.3533 5.13794 53.0636 5.38829C53.7738 5.63863 54.4114 6.03162 54.9761 6.56725C55.5408 7.10287 55.9862 7.7986 56.3122 8.65444C56.6383 9.50445 56.8013 10.5379 56.8013 11.7547V12.6804H46.1383V10.7242H54.2425C54.2425 10.0372 54.1028 9.42876 53.8233 8.89896C53.5439 8.36333 53.1509 7.94124 52.6444 7.63267C52.1437 7.32411 51.5557 7.16982 50.8803 7.16982C50.1467 7.16982 49.5063 7.35031 48.959 7.71127C48.4176 8.06641 47.9984 8.53217 47.7015 9.10855C47.4104 9.67911 47.2648 10.2992 47.2648 10.9687V12.497C47.2648 13.3936 47.422 14.1562 47.7364 14.785C48.0566 15.4138 48.502 15.8941 49.0726 16.226C49.6431 16.552 50.3097 16.715 51.0724 16.715C51.5673 16.715 52.0185 16.6451 52.426 16.5054C52.8336 16.3599 53.1858 16.1444 53.4827 15.8592C53.7797 15.5739 54.0067 15.2217 54.1639 14.8025L56.6354 15.2479C56.4374 15.9756 56.0823 16.6131 55.5699 17.1604C55.0634 17.7018 54.4259 18.1239 53.6574 18.4267C52.8947 18.7236 52.0243 18.8721 51.0462 18.8721ZM59.6985 18.6013V5.18743H62.3096V18.6013H59.6985ZM61.0172 3.1177C60.563 3.1177 60.173 2.96633 59.8469 2.66359C59.5267 2.35502 59.3666 1.98823 59.3666 1.56323C59.3666 1.1324 59.5267 0.765613 59.8469 0.462868C60.173 0.154302 60.563 1.90052e-05 61.0172 1.90052e-05C61.4713 1.90052e-05 61.8584 0.154302 62.1786 0.462868C62.5047 0.765613 62.6677 1.1324 62.6677 1.56323C62.6677 1.98823 62.5047 2.35502 62.1786 2.66359C61.8584 2.96633 61.4713 3.1177 61.0172 3.1177ZM77.2977 5.18743L72.4334 18.6013H69.6388L64.7658 5.18743H67.5691L70.9662 15.5099H71.106L74.4944 5.18743H77.2977ZM85.0766 18.8721C83.755 18.8721 82.6168 18.5897 81.662 18.025C80.713 17.4544 79.9794 16.6539 79.4613 15.6234C78.9489 14.5871 78.6928 13.3732 78.6928 11.9817C78.6928 10.6077 78.9489 9.39674 79.4613 8.34878C79.9794 7.30082 80.7014 6.48283 81.6271 5.8948C82.5586 5.30678 83.6473 5.01277 84.8932 5.01277C85.6501 5.01277 86.3836 5.13794 87.0939 5.38829C87.8042 5.63863 88.4417 6.03162 89.0065 6.56725C89.5712 7.10287 90.0166 7.7986 90.3426 8.65444C90.6686 9.50445 90.8317 10.5379 90.8317 11.7547V12.6804H80.1686V10.7242H88.2729C88.2729 10.0372 88.1332 9.42876 87.8537 8.89896C87.5742 8.36333 87.1813 7.94124 86.6747 7.63267C86.174 7.32411 85.586 7.16982 84.9107 7.16982C84.1771 7.16982 83.5367 7.35031 82.9894 7.71127C82.448 8.06641 82.0288 8.53217 81.7319 9.10855C81.4408 9.67911 81.2952 10.2992 81.2952 10.9687V12.497C81.2952 13.3936 81.4524 14.1562 81.7668 14.785C82.087 15.4138 82.5324 15.8941 83.1029 16.226C83.6735 16.552 84.3401 16.715 85.1028 16.715C85.5977 16.715 86.0489 16.6451 86.4564 16.5054C86.864 16.3599 87.2162 16.1444 87.5131 15.8592C87.81 15.5739 88.0371 15.2217 88.1943 14.8025L90.6657 15.2479C90.4678 15.9756 90.1126 16.6131 89.6003 17.1604C89.0938 17.7018 88.4563 18.1239 87.6878 18.4267C86.9251 18.7236 86.0547 18.8721 85.0766 18.8721ZM104.141 18.8983C103.291 18.8983 102.522 18.7411 101.835 18.4267C101.148 18.1065 100.604 17.6436 100.202 17.0381C99.8063 16.4326 99.6083 15.6903 99.6083 14.8112C99.6083 14.0543 99.7539 13.4314 100.045 12.9423C100.336 12.4533 100.729 12.0661 101.224 11.7809C101.719 11.4956 102.272 11.2802 102.883 11.1346C103.495 10.9891 104.117 10.8784 104.752 10.8028C105.556 10.7096 106.208 10.6339 106.708 10.5757C107.209 10.5117 107.573 10.4098 107.8 10.27C108.027 10.1303 108.14 9.90326 108.14 9.58887V9.52774C108.14 8.76505 107.925 8.17412 107.494 7.75493C107.069 7.33575 106.435 7.12616 105.59 7.12616C104.711 7.12616 104.019 7.32119 103.512 7.71127C103.011 8.09552 102.665 8.52344 102.473 8.99502L100.019 8.43611C100.31 7.62103 100.735 6.96314 101.294 6.46245C101.859 5.95593 102.508 5.58915 103.241 5.36209C103.975 5.12921 104.746 5.01277 105.556 5.01277C106.091 5.01277 106.659 5.07681 107.258 5.2049C107.864 5.32716 108.429 5.55422 108.953 5.88607C109.482 6.21792 109.916 6.69242 110.254 7.30955C110.592 7.92086 110.76 8.71557 110.76 9.69366V18.6013H108.21V16.7674H108.106C107.937 17.1051 107.683 17.4369 107.346 17.763C107.008 18.089 106.574 18.3597 106.045 18.5751C105.515 18.7906 104.88 18.8983 104.141 18.8983ZM104.708 16.8023C105.43 16.8023 106.047 16.6597 106.56 16.3744C107.078 16.0891 107.471 15.7165 107.739 15.2566C108.012 14.7908 108.149 14.2931 108.149 13.7632V12.0341C108.056 12.1273 107.876 12.2146 107.608 12.2961C107.346 12.3718 107.046 12.4387 106.708 12.497C106.371 12.5494 106.042 12.5988 105.721 12.6454C105.401 12.6862 105.133 12.7211 104.918 12.7502C104.411 12.8143 103.949 12.922 103.529 13.0733C103.116 13.2247 102.784 13.443 102.534 13.7283C102.289 14.0078 102.167 14.3804 102.167 14.8461C102.167 15.4924 102.406 15.9814 102.883 16.3133C103.361 16.6393 103.969 16.8023 104.708 16.8023ZM120.747 23.6316V5.18743H123.297V7.36195H123.515C123.666 7.08249 123.885 6.75937 124.17 6.39258C124.455 6.0258 124.851 5.70559 125.358 5.43195C125.864 5.1525 126.534 5.01277 127.366 5.01277C128.449 5.01277 129.416 5.2864 130.266 5.83367C131.116 6.38094 131.782 7.16982 132.265 8.20032C132.754 9.23081 132.999 10.4709 132.999 11.9206C132.999 13.3703 132.757 14.6133 132.274 15.6496C131.791 16.6801 131.127 17.4748 130.283 18.0337C129.439 18.5868 128.475 18.8633 127.392 18.8633C126.577 18.8633 125.911 18.7265 125.393 18.4529C124.88 18.1792 124.478 17.859 124.187 17.4922C123.896 17.1255 123.672 16.7994 123.515 16.5141H123.358V23.6316H120.747ZM123.305 11.8944C123.305 12.8375 123.442 13.6643 123.716 14.3746C123.989 15.0848 124.385 15.6408 124.904 16.0426C125.422 16.4385 126.056 16.6364 126.807 16.6364C127.587 16.6364 128.24 16.4297 128.763 16.0164C129.287 15.5972 129.683 15.0295 129.951 14.3134C130.225 13.5973 130.362 12.791 130.362 11.8944C130.362 11.0094 130.228 10.2147 129.96 9.51027C129.698 8.80581 129.302 8.24981 128.772 7.84227C128.248 7.43472 127.593 7.23095 126.807 7.23095C126.05 7.23095 125.41 7.42599 124.886 7.81607C124.368 8.20614 123.975 8.7505 123.707 9.44914C123.439 10.1478 123.305 10.9629 123.305 11.8944ZM141.706 18.8721C140.384 18.8721 139.246 18.5897 138.291 18.025C137.342 17.4544 136.609 16.6539 136.09 15.6234C135.578 14.5871 135.322 13.3732 135.322 11.9817C135.322 10.6077 135.578 9.39674 136.09 8.34878C136.609 7.30082 137.331 6.48283 138.256 5.8948C139.188 5.30678 140.277 5.01277 141.522 5.01277C142.279 5.01277 143.013 5.13794 143.723 5.38829C144.433 5.63863 145.071 6.03162 145.636 6.56725C146.2 7.10287 146.646 7.7986 146.972 8.65444C147.298 9.50445 147.461 10.5379 147.461 11.7547V12.6804H136.798V10.7242H144.902C144.902 10.0372 144.762 9.42876 144.483 8.89896C144.203 8.36333 143.81 7.94124 143.304 7.63267C142.803 7.32411 142.215 7.16982 141.54 7.16982C140.806 7.16982 140.166 7.35031 139.619 7.71127C139.077 8.06641 138.658 8.53217 138.361 9.10855C138.07 9.67911 137.924 10.2992 137.924 10.9687V12.497C137.924 13.3936 138.082 14.1562 138.396 14.785C138.716 15.4138 139.162 15.8941 139.732 16.226C140.303 16.552 140.969 16.715 141.732 16.715C142.227 16.715 142.678 16.6451 143.086 16.5054C143.493 16.3599 143.845 16.1444 144.142 15.8592C144.439 15.5739 144.666 15.2217 144.824 14.8025L147.295 15.2479C147.097 15.9756 146.742 16.6131 146.23 17.1604C145.723 17.7018 145.086 18.1239 144.317 18.4267C143.554 18.7236 142.684 18.8721 141.706 18.8721ZM150.358 18.6013V5.18743H152.882V7.31828H153.022C153.266 6.59635 153.697 6.02871 154.314 5.61535C154.937 5.19616 155.642 4.98657 156.428 4.98657C156.591 4.98657 156.783 4.99239 157.004 5.00404C157.231 5.01568 157.409 5.03023 157.537 5.0477V7.54534C157.432 7.51623 157.245 7.48421 156.978 7.44928C156.71 7.40853 156.442 7.38815 156.174 7.38815C155.557 7.38815 155.007 7.51914 154.524 7.78113C154.046 8.0373 153.668 8.39536 153.388 8.85529C153.109 9.30941 152.969 9.82757 152.969 10.4098V18.6013H150.358ZM164.966 18.8721C163.668 18.8721 162.55 18.578 161.613 17.99C160.681 17.3962 159.965 16.5782 159.464 15.536C158.964 14.4939 158.713 13.3004 158.713 11.9555C158.713 10.5932 158.97 9.39092 159.482 8.34878C159.994 7.30082 160.716 6.48283 161.648 5.8948C162.579 5.30678 163.677 5.01277 164.94 5.01277C165.959 5.01277 166.867 5.20198 167.665 5.58041C168.462 5.95302 169.106 6.477 169.595 7.15236C170.09 7.82771 170.384 8.61659 170.477 9.519H167.935C167.796 8.89023 167.475 8.34878 166.975 7.89466C166.48 7.44055 165.816 7.21349 164.984 7.21349C164.256 7.21349 163.618 7.40561 163.071 7.78987C162.53 8.1683 162.108 8.70974 161.805 9.41421C161.502 10.1128 161.351 10.9396 161.351 11.8944C161.351 12.8725 161.499 13.7167 161.796 14.427C162.093 15.1372 162.512 15.6874 163.054 16.0775C163.601 16.4676 164.244 16.6626 164.984 16.6626C165.479 16.6626 165.927 16.5724 166.329 16.3919C166.736 16.2056 167.077 15.9407 167.35 15.5972C167.63 15.2537 167.825 14.8403 167.935 14.3571H170.477C170.384 15.2246 170.101 15.9989 169.63 16.6801C169.158 17.3612 168.526 17.8969 167.735 18.2869C166.949 18.677 166.026 18.8721 164.966 18.8721ZM179.05 18.8721C177.729 18.8721 176.591 18.5897 175.636 18.025C174.687 17.4544 173.953 16.6539 173.435 15.6234C172.923 14.5871 172.667 13.3732 172.667 11.9817C172.667 10.6077 172.923 9.39674 173.435 8.34878C173.953 7.30082 174.675 6.48283 175.601 5.8948C176.532 5.30678 177.621 5.01277 178.867 5.01277C179.624 5.01277 180.357 5.13794 181.068 5.38829C181.778 5.63863 182.415 6.03162 182.98 6.56725C183.545 7.10287 183.99 7.7986 184.316 8.65444C184.642 9.50445 184.805 10.5379 184.805 11.7547V12.6804H174.142V10.7242H182.247C182.247 10.0372 182.107 9.42876 181.827 8.89896C181.548 8.36333 181.155 7.94124 180.649 7.63267C180.148 7.32411 179.56 7.16982 178.884 7.16982C178.151 7.16982 177.51 7.35031 176.963 7.71127C176.422 8.06641 176.003 8.53217 175.706 9.10855C175.415 9.67911 175.269 10.2992 175.269 10.9687V12.497C175.269 13.3936 175.426 14.1562 175.741 14.785C176.061 15.4138 176.506 15.8941 177.077 16.226C177.647 16.552 178.314 16.715 179.077 16.715C179.571 16.715 180.023 16.6451 180.43 16.5054C180.838 16.3599 181.19 16.1444 181.487 15.8592C181.784 15.5739 182.011 15.2217 182.168 14.8025L184.64 15.2479C184.442 15.9756 184.086 16.6131 183.574 17.1604C183.068 17.7018 182.43 18.1239 181.662 18.4267C180.899 18.7236 180.028 18.8721 179.05 18.8721ZM190.314 10.6368V18.6013H187.703V5.18743H190.209V7.37068H190.375C190.683 6.6604 191.167 6.08984 191.825 5.65901C192.488 5.22818 193.324 5.01277 194.331 5.01277C195.245 5.01277 196.046 5.2049 196.733 5.58915C197.42 5.96758 197.952 6.53231 198.331 7.28335C198.709 8.03439 198.898 8.963 198.898 10.0692V18.6013H196.287V10.3836C196.287 9.4113 196.034 8.65152 195.527 8.10426C195.021 7.55116 194.325 7.27462 193.44 7.27462C192.835 7.27462 192.296 7.40561 191.825 7.6676C191.359 7.92959 190.989 8.31385 190.715 8.82036C190.448 9.32106 190.314 9.92654 190.314 10.6368ZM208.662 5.18743V7.28335H201.335V5.18743H208.662ZM203.3 1.97368H205.911V14.6627C205.911 15.1693 205.987 15.5506 206.138 15.8068C206.289 16.0571 206.484 16.2289 206.723 16.322C206.968 16.4094 207.233 16.453 207.518 16.453C207.727 16.453 207.911 16.4385 208.068 16.4094C208.225 16.3802 208.347 16.357 208.435 16.3395L208.906 18.4965C208.755 18.5548 208.54 18.613 208.26 18.6712C207.981 18.7352 207.631 18.7702 207.212 18.776C206.525 18.7876 205.885 18.6654 205.291 18.4092C204.697 18.153 204.217 17.7571 203.85 17.2215C203.483 16.6859 203.3 16.0135 203.3 15.2042V1.97368ZM215.454 18.8983C214.604 18.8983 213.835 18.7411 213.148 18.4267C212.461 18.1065 211.917 17.6436 211.515 17.0381C211.119 16.4326 210.922 15.6903 210.922 14.8112C210.922 14.0543 211.067 13.4314 211.358 12.9423C211.649 12.4533 212.042 12.0661 212.537 11.7809C213.032 11.4956 213.585 11.2802 214.196 11.1346C214.808 10.9891 215.431 10.8784 216.065 10.8028C216.869 10.7096 217.521 10.6339 218.021 10.5757C218.522 10.5117 218.886 10.4098 219.113 10.27C219.34 10.1303 219.454 9.90326 219.454 9.58887V9.52774C219.454 8.76505 219.238 8.17412 218.807 7.75493C218.382 7.33575 217.748 7.12616 216.904 7.12616C216.024 7.12616 215.332 7.32119 214.825 7.71127C214.324 8.09552 213.978 8.52344 213.786 8.99502L211.332 8.43611C211.623 7.62103 212.048 6.96314 212.607 6.46245C213.172 5.95593 213.821 5.58915 214.554 5.36209C215.288 5.12921 216.059 5.01277 216.869 5.01277C217.404 5.01277 217.972 5.07681 218.572 5.2049C219.177 5.32716 219.742 5.55422 220.266 5.88607C220.796 6.21792 221.229 6.69242 221.567 7.30955C221.905 7.92086 222.074 8.71557 222.074 9.69366V18.6013H219.524V16.7674H219.419C219.25 17.1051 218.997 17.4369 218.659 17.763C218.321 18.089 217.888 18.3597 217.358 18.5751C216.828 18.7906 216.193 18.8983 215.454 18.8983ZM216.022 16.8023C216.744 16.8023 217.361 16.6597 217.873 16.3744C218.391 16.0891 218.784 15.7165 219.052 15.2566C219.326 14.7908 219.462 14.2931 219.462 13.7632V12.0341C219.369 12.1273 219.189 12.2146 218.921 12.2961C218.659 12.3718 218.359 12.4387 218.021 12.497C217.684 12.5494 217.355 12.5988 217.035 12.6454C216.714 12.6862 216.447 12.7211 216.231 12.7502C215.725 12.8143 215.262 12.922 214.843 13.0733C214.429 13.2247 214.097 13.443 213.847 13.7283C213.603 14.0078 213.48 14.3804 213.48 14.8461C213.48 15.4924 213.719 15.9814 214.196 16.3133C214.674 16.6393 215.282 16.8023 216.022 16.8023ZM231.176 23.911C230.11 23.911 229.193 23.7713 228.425 23.4918C227.662 23.2124 227.039 22.8427 226.556 22.3827C226.073 21.9228 225.712 21.4192 225.473 20.8719L227.717 19.9462C227.874 20.2024 228.084 20.4731 228.346 20.7584C228.614 21.0495 228.975 21.2969 229.429 21.5007C229.889 21.7045 230.48 21.8064 231.202 21.8064C232.191 21.8064 233.009 21.5647 233.656 21.0815C234.302 20.6041 234.625 19.8414 234.625 18.7935V16.1561H234.459C234.302 16.4414 234.075 16.7587 233.778 17.108C233.487 17.4573 233.085 17.7601 232.573 18.0162C232.06 18.2724 231.394 18.4005 230.573 18.4005C229.513 18.4005 228.559 18.153 227.709 17.6582C226.864 17.1575 226.195 16.421 225.7 15.4487C225.211 14.4706 224.966 13.2684 224.966 11.842C224.966 10.4156 225.208 9.19297 225.691 8.17412C226.18 7.15527 226.85 6.37512 227.7 5.83367C228.55 5.2864 229.513 5.01277 230.59 5.01277C231.423 5.01277 232.095 5.1525 232.608 5.43195C233.12 5.70559 233.519 6.0258 233.804 6.39258C234.095 6.75937 234.319 7.08249 234.477 7.36195H234.669V5.18743H237.228V18.8983C237.228 20.051 236.96 20.9971 236.424 21.7365C235.888 22.4759 235.164 23.0232 234.25 23.3783C233.341 23.7334 232.317 23.911 231.176 23.911ZM231.149 16.2347C231.9 16.2347 232.535 16.06 233.053 15.7107C233.577 15.3556 233.973 14.8491 234.241 14.1912C234.514 13.5275 234.651 12.7328 234.651 11.8071C234.651 10.9046 234.517 10.1099 234.25 9.42294C233.982 8.73594 233.589 8.20032 233.071 7.81607C232.552 7.42599 231.912 7.23095 231.149 7.23095C230.363 7.23095 229.708 7.43472 229.184 7.84227C228.66 8.24398 228.265 8.79125 227.997 9.48407C227.735 10.1769 227.604 10.9512 227.604 11.8071C227.604 12.6862 227.738 13.4576 228.005 14.1213C228.273 14.785 228.669 15.3032 229.193 15.6758C229.723 16.0484 230.375 16.2347 231.149 16.2347ZM246.511 18.8721C245.189 18.8721 244.051 18.5897 243.096 18.025C242.147 17.4544 241.414 16.6539 240.895 15.6234C240.383 14.5871 240.127 13.3732 240.127 11.9817C240.127 10.6077 240.383 9.39674 240.895 8.34878C241.414 7.30082 242.135 6.48283 243.061 5.8948C243.993 5.30678 245.081 5.01277 246.327 5.01277C247.084 5.01277 247.818 5.13794 248.528 5.38829C249.238 5.63863 249.876 6.03162 250.441 6.56725C251.005 7.10287 251.451 7.7986 251.777 8.65444C252.103 9.50445 252.266 10.5379 252.266 11.7547V12.6804H241.603V10.7242H249.707C249.707 10.0372 249.567 9.42876 249.288 8.89896C249.008 8.36333 248.615 7.94124 248.109 7.63267C247.608 7.32411 247.02 7.16982 246.345 7.16982C245.611 7.16982 244.971 7.35031 244.424 7.71127C243.882 8.06641 243.463 8.53217 243.166 9.10855C242.875 9.67911 242.729 10.2992 242.729 10.9687V12.497C242.729 13.3936 242.887 14.1562 243.201 14.785C243.521 15.4138 243.967 15.8941 244.537 16.226C245.108 16.552 245.774 16.715 246.537 16.715C247.032 16.715 247.483 16.6451 247.891 16.5054C248.298 16.3599 248.65 16.1444 248.947 15.8592C249.244 15.5739 249.471 15.2217 249.628 14.8025L252.1 15.2479C251.902 15.9756 251.547 16.6131 251.034 17.1604C250.528 17.7018 249.89 18.1239 249.122 18.4267C248.359 18.7236 247.489 18.8721 246.511 18.8721ZM263.066 9.91199V12.1738H255.137V9.91199H263.066ZM266.756 18.6013V0.716126H269.367V7.36195H269.524C269.676 7.08249 269.894 6.75937 270.179 6.39258C270.465 6.0258 270.861 5.70559 271.367 5.43195C271.874 5.1525 272.543 5.01277 273.376 5.01277C274.459 5.01277 275.425 5.2864 276.275 5.83367C277.125 6.38094 277.792 7.16982 278.275 8.20032C278.764 9.23081 279.008 10.4709 279.008 11.9206C279.008 13.3703 278.767 14.6133 278.284 15.6496C277.8 16.6801 277.137 17.4748 276.292 18.0337C275.448 18.5868 274.485 18.8633 273.402 18.8633C272.587 18.8633 271.92 18.7265 271.402 18.4529C270.89 18.1792 270.488 17.859 270.197 17.4922C269.906 17.1255 269.682 16.7994 269.524 16.5141H269.306V18.6013H266.756ZM269.315 11.8944C269.315 12.8375 269.452 13.6643 269.725 14.3746C269.999 15.0848 270.395 15.6408 270.913 16.0426C271.431 16.4385 272.066 16.6364 272.817 16.6364C273.597 16.6364 274.249 16.4297 274.773 16.0164C275.297 15.5972 275.693 15.0295 275.961 14.3134C276.234 13.5973 276.371 12.791 276.371 11.8944C276.371 11.0094 276.237 10.2147 275.969 9.51027C275.707 8.80581 275.311 8.24981 274.782 7.84227C274.258 7.43472 273.603 7.23095 272.817 7.23095C272.06 7.23095 271.419 7.42599 270.895 7.81607C270.377 8.20614 269.984 8.7505 269.717 9.44914C269.449 10.1478 269.315 10.9629 269.315 11.8944ZM285.844 18.8983C284.994 18.8983 284.226 18.7411 283.539 18.4267C282.852 18.1065 282.307 17.6436 281.906 17.0381C281.51 16.4326 281.312 15.6903 281.312 14.8112C281.312 14.0543 281.457 13.4314 281.748 12.9423C282.04 12.4533 282.433 12.0661 282.927 11.7809C283.422 11.4956 283.975 11.2802 284.587 11.1346C285.198 10.9891 285.821 10.8784 286.456 10.8028C287.259 10.7096 287.911 10.6339 288.412 10.5757C288.912 10.5117 289.276 10.4098 289.503 10.27C289.73 10.1303 289.844 9.90326 289.844 9.58887V9.52774C289.844 8.76505 289.629 8.17412 289.198 7.75493C288.773 7.33575 288.138 7.12616 287.294 7.12616C286.415 7.12616 285.722 7.32119 285.215 7.71127C284.715 8.09552 284.368 8.52344 284.176 8.99502L281.722 8.43611C282.013 7.62103 282.438 6.96314 282.997 6.46245C283.562 5.95593 284.211 5.58915 284.945 5.36209C285.678 5.12921 286.45 5.01277 287.259 5.01277C287.795 5.01277 288.362 5.07681 288.962 5.2049C289.567 5.32716 290.132 5.55422 290.656 5.88607C291.186 6.21792 291.62 6.69242 291.957 7.30955C292.295 7.92086 292.464 8.71557 292.464 9.69366V18.6013H289.914V16.7674H289.809C289.64 17.1051 289.387 17.4369 289.049 17.763C288.712 18.089 288.278 18.3597 287.748 18.5751C287.218 18.7906 286.584 18.8983 285.844 18.8983ZM286.412 16.8023C287.134 16.8023 287.751 16.6597 288.263 16.3744C288.781 16.0891 289.174 15.7165 289.442 15.2566C289.716 14.7908 289.853 14.2931 289.853 13.7632V12.0341C289.76 12.1273 289.579 12.2146 289.311 12.2961C289.049 12.3718 288.749 12.4387 288.412 12.497C288.074 12.5494 287.745 12.5988 287.425 12.6454C287.105 12.6862 286.837 12.7211 286.621 12.7502C286.115 12.8143 285.652 12.922 285.233 13.0733C284.82 13.2247 284.488 13.443 284.237 13.7283C283.993 14.0078 283.871 14.3804 283.871 14.8461C283.871 15.4924 284.109 15.9814 284.587 16.3133C285.064 16.6393 285.672 16.8023 286.412 16.8023ZM305.993 8.46231L303.627 8.88149C303.528 8.57875 303.371 8.29056 303.155 8.01692C302.946 7.74329 302.66 7.51914 302.299 7.34448C301.938 7.16982 301.487 7.08249 300.946 7.08249C300.206 7.08249 299.589 7.24842 299.094 7.58027C298.6 7.90631 298.352 8.3284 298.352 8.84656C298.352 9.29486 298.518 9.65582 298.85 9.92946C299.182 10.2031 299.717 10.4272 300.457 10.6019L302.588 11.0909C303.822 11.3762 304.742 11.8158 305.347 12.4096C305.953 13.0035 306.255 13.7749 306.255 14.7239C306.255 15.5273 306.023 16.2434 305.557 16.8722C305.097 17.4952 304.454 17.9842 303.627 18.3393C302.806 18.6945 301.854 18.8721 300.771 18.8721C299.269 18.8721 298.044 18.5519 297.095 17.9114C296.146 17.2652 295.563 16.3482 295.348 15.1605L297.872 14.7763C298.029 15.4342 298.352 15.9319 298.841 16.2696C299.33 16.6015 299.968 16.7674 300.754 16.7674C301.609 16.7674 302.294 16.5898 302.806 16.2347C303.318 15.8737 303.574 15.4342 303.574 14.916C303.574 14.4968 303.417 14.1446 303.103 13.8593C302.794 13.574 302.32 13.3586 301.679 13.2131L299.409 12.7153C298.157 12.43 297.231 11.9759 296.632 11.3529C296.038 10.73 295.741 9.9411 295.741 8.98629C295.741 8.1945 295.962 7.50168 296.405 6.90783C296.847 6.31399 297.458 5.85114 298.239 5.51928C299.019 5.18161 299.912 5.01277 300.92 5.01277C302.369 5.01277 303.51 5.32716 304.343 5.95593C305.175 6.57889 305.726 7.41435 305.993 8.46231ZM314.908 18.8721C313.586 18.8721 312.448 18.5897 311.493 18.025C310.544 17.4544 309.811 16.6539 309.292 15.6234C308.78 14.5871 308.524 13.3732 308.524 11.9817C308.524 10.6077 308.78 9.39674 309.292 8.34878C309.811 7.30082 310.532 6.48283 311.458 5.8948C312.39 5.30678 313.478 5.01277 314.724 5.01277C315.481 5.01277 316.215 5.13794 316.925 5.38829C317.635 5.63863 318.273 6.03162 318.838 6.56725C319.402 7.10287 319.848 7.7986 320.174 8.65444C320.5 9.50445 320.663 10.5379 320.663 11.7547V12.6804H310V10.7242H318.104C318.104 10.0372 317.964 9.42876 317.685 8.89896C317.405 8.36333 317.012 7.94124 316.506 7.63267C316.005 7.32411 315.417 7.16982 314.742 7.16982C314.008 7.16982 313.368 7.35031 312.82 7.71127C312.279 8.06641 311.86 8.53217 311.563 9.10855C311.272 9.67911 311.126 10.2992 311.126 10.9687V12.497C311.126 13.3936 311.283 14.1562 311.598 14.785C311.918 15.4138 312.363 15.8941 312.934 16.226C313.505 16.552 314.171 16.715 314.934 16.715C315.429 16.715 315.88 16.6451 316.287 16.5054C316.695 16.3599 317.047 16.1444 317.344 15.8592C317.641 15.5739 317.868 15.2217 318.025 14.8025L320.497 15.2479C320.299 15.9756 319.944 16.6131 319.431 17.1604C318.925 17.7018 318.287 18.1239 317.519 18.4267C316.756 18.7236 315.886 18.8721 314.908 18.8721ZM328.581 18.8633C327.498 18.8633 326.532 18.5868 325.682 18.0337C324.838 17.4748 324.174 16.6801 323.691 15.6496C323.213 14.6133 322.975 13.3703 322.975 11.9206C322.975 10.4709 323.216 9.23081 323.7 8.20032C324.189 7.16982 324.858 6.38094 325.708 5.83367C326.558 5.2864 327.522 5.01277 328.599 5.01277C329.431 5.01277 330.101 5.1525 330.607 5.43195C331.12 5.70559 331.516 6.0258 331.795 6.39258C332.08 6.75937 332.302 7.08249 332.459 7.36195H332.616V0.716126H335.227V18.6013H332.677V16.5141H332.459C332.302 16.7994 332.075 17.1255 331.778 17.4922C331.487 17.859 331.085 18.1792 330.572 18.4529C330.06 18.7265 329.396 18.8633 328.581 18.8633ZM329.158 16.6364C329.909 16.6364 330.543 16.4385 331.062 16.0426C331.586 15.6408 331.981 15.0848 332.249 14.3746C332.523 13.6643 332.66 12.8375 332.66 11.8944C332.66 10.9629 332.526 10.1478 332.258 9.44914C331.99 8.7505 331.597 8.20614 331.079 7.81607C330.561 7.42599 329.92 7.23095 329.158 7.23095C328.372 7.23095 327.717 7.43472 327.193 7.84227C326.669 8.24981 326.273 8.80581 326.005 9.51027C325.743 10.2147 325.612 11.0094 325.612 11.8944C325.612 12.791 325.746 13.5973 326.014 14.3134C326.282 15.0295 326.678 15.5972 327.202 16.0164C327.731 16.4297 328.383 16.6364 329.158 16.6364ZM355.514 8.46231L353.147 8.88149C353.048 8.57875 352.891 8.29056 352.676 8.01692C352.466 7.74329 352.181 7.51914 351.82 7.34448C351.459 7.16982 351.008 7.08249 350.466 7.08249C349.727 7.08249 349.11 7.24842 348.615 7.58027C348.12 7.90631 347.873 8.3284 347.873 8.84656C347.873 9.29486 348.039 9.65582 348.37 9.92946C348.702 10.2031 349.238 10.4272 349.977 10.6019L352.108 11.0909C353.342 11.3762 354.262 11.8158 354.868 12.4096C355.473 13.0035 355.776 13.7749 355.776 14.7239C355.776 15.5273 355.543 16.2434 355.077 16.8722C354.617 17.4952 353.974 17.9842 353.147 18.3393C352.326 18.6945 351.375 18.8721 350.292 18.8721C348.79 18.8721 347.564 18.5519 346.615 17.9114C345.666 17.2652 345.084 16.3482 344.868 15.1605L347.392 14.7763C347.549 15.4342 347.873 15.9319 348.362 16.2696C348.851 16.6015 349.488 16.7674 350.274 16.7674C351.13 16.7674 351.814 16.5898 352.326 16.2347C352.839 15.8737 353.095 15.4342 353.095 14.916C353.095 14.4968 352.938 14.1446 352.623 13.8593C352.315 13.574 351.84 13.3586 351.2 13.2131L348.929 12.7153C347.678 12.43 346.752 11.9759 346.152 11.3529C345.558 10.73 345.261 9.9411 345.261 8.98629C345.261 8.1945 345.483 7.50168 345.925 6.90783C346.368 6.31399 346.979 5.85114 347.759 5.51928C348.539 5.18161 349.433 5.01277 350.44 5.01277C351.89 5.01277 353.031 5.32716 353.863 5.95593C354.696 6.57889 355.246 7.41435 355.514 8.46231ZM364.297 18.8721C362.999 18.8721 361.881 18.578 360.944 17.99C360.012 17.3962 359.296 16.5782 358.795 15.536C358.295 14.4939 358.044 13.3004 358.044 11.9555C358.044 10.5932 358.301 9.39092 358.813 8.34878C359.325 7.30082 360.047 6.48283 360.979 5.8948C361.91 5.30678 363.008 5.01277 364.271 5.01277C365.29 5.01277 366.198 5.20198 366.996 5.58041C367.793 5.95302 368.437 6.477 368.926 7.15236C369.421 7.82771 369.715 8.61659 369.808 9.519H367.266C367.127 8.89023 366.807 8.34878 366.306 7.89466C365.811 7.44055 365.147 7.21349 364.315 7.21349C363.587 7.21349 362.949 7.40561 362.402 7.78987C361.861 8.1683 361.439 8.70974 361.136 9.41421C360.833 10.1128 360.682 10.9396 360.682 11.8944C360.682 12.8725 360.83 13.7167 361.127 14.427C361.424 15.1372 361.843 15.6874 362.385 16.0775C362.932 16.4676 363.575 16.6626 364.315 16.6626C364.81 16.6626 365.258 16.5724 365.66 16.3919C366.067 16.2056 366.408 15.9407 366.681 15.5972C366.961 15.2537 367.156 14.8403 367.266 14.3571H369.808C369.715 15.2246 369.432 15.9989 368.961 16.6801C368.489 17.3612 367.857 17.8969 367.066 18.2869C366.28 18.677 365.357 18.8721 364.297 18.8721ZM378.25 18.8721C376.993 18.8721 375.895 18.5839 374.958 18.0075C374.021 17.4311 373.293 16.6248 372.775 15.5884C372.257 14.5521 371.998 13.3412 371.998 11.9555C371.998 10.5641 372.257 9.34725 372.775 8.30511C373.293 7.26297 374.021 6.45372 374.958 5.87734C375.895 5.30096 376.993 5.01277 378.25 5.01277C379.508 5.01277 380.605 5.30096 381.543 5.87734C382.48 6.45372 383.208 7.26297 383.726 8.30511C384.244 9.34725 384.503 10.5641 384.503 11.9555C384.503 13.3412 384.244 14.5521 383.726 15.5884C383.208 16.6248 382.48 17.4311 381.543 18.0075C380.605 18.5839 379.508 18.8721 378.25 18.8721ZM378.259 16.6801C379.074 16.6801 379.75 16.4647 380.285 16.0338C380.821 15.603 381.217 15.0295 381.473 14.3134C381.735 13.5973 381.866 12.8084 381.866 11.9468C381.866 11.0909 381.735 10.305 381.473 9.58887C381.217 8.86694 380.821 8.28765 380.285 7.851C379.75 7.41435 379.074 7.19602 378.259 7.19602C377.438 7.19602 376.757 7.41435 376.216 7.851C375.68 8.28765 375.281 8.86694 375.019 9.58887C374.763 10.305 374.635 11.0909 374.635 11.9468C374.635 12.8084 374.763 13.5973 375.019 14.3134C375.281 15.0295 375.68 15.603 376.216 16.0338C376.757 16.4647 377.438 16.6801 378.259 16.6801ZM387.418 18.6013V5.18743H389.942V7.31828H390.081C390.326 6.59635 390.757 6.02871 391.374 5.61535C391.997 5.19616 392.701 4.98657 393.487 4.98657C393.65 4.98657 393.842 4.99239 394.064 5.00404C394.291 5.01568 394.468 5.03023 394.596 5.0477V7.54534C394.492 7.51623 394.305 7.48421 394.038 7.44928C393.77 7.40853 393.502 7.38815 393.234 7.38815C392.617 7.38815 392.067 7.51914 391.584 7.78113C391.106 8.0373 390.728 8.39536 390.448 8.85529C390.169 9.30941 390.029 9.82757 390.029 10.4098V18.6013H387.418ZM402.157 18.8721C400.835 18.8721 399.697 18.5897 398.742 18.025C397.793 17.4544 397.06 16.6539 396.542 15.6234C396.029 14.5871 395.773 13.3732 395.773 11.9817C395.773 10.6077 396.029 9.39674 396.542 8.34878C397.06 7.30082 397.782 6.48283 398.707 5.8948C399.639 5.30678 400.728 5.01277 401.974 5.01277C402.73 5.01277 403.464 5.13794 404.174 5.38829C404.885 5.63863 405.522 6.03162 406.087 6.56725C406.652 7.10287 407.097 7.7986 407.423 8.65444C407.749 9.50445 407.912 10.5379 407.912 11.7547V12.6804H397.249V10.7242H405.353C405.353 10.0372 405.214 9.42876 404.934 8.89896C404.655 8.36333 404.262 7.94124 403.755 7.63267C403.254 7.32411 402.666 7.16982 401.991 7.16982C401.258 7.16982 400.617 7.35031 400.07 7.71127C399.528 8.06641 399.109 8.53217 398.812 9.10855C398.521 9.67911 398.376 10.2992 398.376 10.9687V12.497C398.376 13.3936 398.533 14.1562 398.847 14.785C399.167 15.4138 399.613 15.8941 400.183 16.226C400.754 16.552 401.421 16.715 402.183 16.715C402.678 16.715 403.129 16.6451 403.537 16.5054C403.944 16.3599 404.297 16.1444 404.594 15.8592C404.89 15.5739 405.118 15.2217 405.275 14.8025L407.746 15.2479C407.548 15.9756 407.193 16.6131 406.681 17.1604C406.174 17.7018 405.537 18.1239 404.768 18.4267C404.006 18.7236 403.135 18.8721 402.157 18.8721ZM7.57984 39.2319V41.3278H-0.000411902V39.2319H7.57984ZM2.07805 52.6458V37.6774C2.07805 36.8391 2.26144 36.1433 2.62823 35.5903C2.99501 35.0313 3.48115 34.6151 4.08664 34.3414C4.69213 34.062 5.35001 33.9223 6.0603 33.9223C6.58428 33.9223 7.03257 33.9659 7.40518 34.0532C7.77779 34.1348 8.05434 34.2104 8.23482 34.2803L7.62351 36.3937C7.50125 36.3588 7.34405 36.318 7.15193 36.2714C6.9598 36.219 6.72692 36.1928 6.45328 36.1928C5.81869 36.1928 5.36457 36.35 5.09093 36.6644C4.82312 36.9788 4.68922 37.4329 4.68922 38.0268V52.6458H2.07805ZM15.3959 52.9166C14.1383 52.9166 13.0409 52.6284 12.1035 52.052C11.1662 51.4756 10.4384 50.6693 9.92029 49.6329C9.40213 48.5966 9.14305 47.3856 9.14305 46C9.14305 44.6085 9.40213 43.3917 9.92029 42.3496C10.4384 41.3075 11.1662 40.4982 12.1035 39.9218C13.0409 39.3455 14.1383 39.0573 15.3959 39.0573C16.6534 39.0573 17.7509 39.3455 18.6882 39.9218C19.6256 40.4982 20.3533 41.3075 20.8715 42.3496C21.3896 43.3917 21.6487 44.6085 21.6487 46C21.6487 47.3856 21.3896 48.5966 20.8715 49.6329C20.3533 50.6693 19.6256 51.4756 18.6882 52.052C17.7509 52.6284 16.6534 52.9166 15.3959 52.9166ZM15.4046 50.7246C16.2197 50.7246 16.8951 50.5092 17.4307 50.0783C17.9663 49.6475 18.3622 49.074 18.6184 48.3579C18.8804 47.6418 19.0114 46.8529 19.0114 45.9913C19.0114 45.1354 18.8804 44.3495 18.6184 43.6334C18.3622 42.9114 17.9663 42.3321 17.4307 41.8955C16.8951 41.4588 16.2197 41.2405 15.4046 41.2405C14.5837 41.2405 13.9025 41.4588 13.3611 41.8955C12.8255 42.3321 12.4267 42.9114 12.1647 43.6334C11.9085 44.3495 11.7804 45.1354 11.7804 45.9913C11.7804 46.8529 11.9085 47.6418 12.1647 48.3579C12.4267 49.074 12.8255 49.6475 13.3611 50.0783C13.9025 50.5092 14.5837 50.7246 15.4046 50.7246ZM24.5634 52.6458V39.2319H27.0872V41.3628H27.2269C27.4715 40.6408 27.9023 40.0732 28.5194 39.6598C29.1424 39.2407 29.8468 39.0311 30.6328 39.0311C30.7958 39.0311 30.988 39.0369 31.2092 39.0485C31.4363 39.0602 31.6138 39.0747 31.7419 39.0922V41.5898C31.6371 41.5607 31.4508 41.5287 31.183 41.4938C30.9152 41.453 30.6474 41.4326 30.3796 41.4326C29.7624 41.4326 29.2122 41.5636 28.729 41.8256C28.2516 42.0818 27.8732 42.4398 27.5937 42.8998C27.3143 43.3539 27.1745 43.8721 27.1745 44.4543V52.6458H24.5634ZM46.2911 52.9166C44.9695 52.9166 43.8313 52.6342 42.8765 52.0695C41.9275 51.4989 41.1939 50.6984 40.6758 49.6679C40.1634 48.6316 39.9073 47.4177 39.9073 46.0262C39.9073 44.6522 40.1634 43.4412 40.6758 42.3933C41.1939 41.3453 41.9159 40.5273 42.8416 39.9393C43.7731 39.3513 44.8618 39.0573 46.1077 39.0573C46.8646 39.0573 47.5981 39.1824 48.3084 39.4328C49.0187 39.6831 49.6562 40.0761 50.221 40.6117C50.7857 41.1474 51.2311 41.8431 51.5571 42.6989C51.8831 43.5489 52.0462 44.5823 52.0462 45.7991V46.7248H41.3832V44.7687H49.4874C49.4874 44.0817 49.3477 43.4733 49.0682 42.9435C48.7887 42.4078 48.3958 41.9857 47.8892 41.6772C47.3886 41.3686 46.8005 41.2143 46.1252 41.2143C45.3916 41.2143 44.7512 41.3948 44.2039 41.7558C43.6625 42.1109 43.2433 42.5767 42.9464 43.153C42.6553 43.7236 42.5097 44.3436 42.5097 45.0132V46.5415C42.5097 47.438 42.6669 48.2007 42.9813 48.8295C43.3015 49.4583 43.7469 49.9386 44.3174 50.2705C44.888 50.5965 45.5546 50.7595 46.3173 50.7595C46.8122 50.7595 47.2634 50.6896 47.6709 50.5499C48.0785 50.4044 48.4307 50.1889 48.7276 49.9037C49.0245 49.6184 49.2516 49.2662 49.4088 48.847L51.8802 49.2924C51.6823 50.0201 51.3271 50.6576 50.8148 51.2049C50.3083 51.7463 49.6708 52.1684 48.9023 52.4712C48.1396 52.7681 47.2692 52.9166 46.2911 52.9166ZM58.847 52.9428C57.997 52.9428 57.2285 52.7856 56.5415 52.4712C55.8545 52.151 55.3101 51.6881 54.9084 51.0826C54.5125 50.4771 54.3146 49.7348 54.3146 48.8557C54.3146 48.0988 54.4601 47.4759 54.7512 46.9868C55.0423 46.4978 55.4353 46.1106 55.9302 45.8253C56.425 45.5401 56.9781 45.3247 57.5894 45.1791C58.2008 45.0336 58.8237 44.9229 59.4583 44.8473C60.2617 44.7541 60.9138 44.6784 61.4145 44.6202C61.9152 44.5562 62.2791 44.4543 62.5061 44.3145C62.7332 44.1748 62.8467 43.9478 62.8467 43.6334V43.5722C62.8467 42.8095 62.6313 42.2186 62.2005 41.7994C61.7755 41.3802 61.1409 41.1707 60.2967 41.1707C59.4176 41.1707 58.7247 41.3657 58.2182 41.7558C57.7175 42.14 57.3711 42.5679 57.179 43.0395L54.725 42.4806C55.0161 41.6655 55.4411 41.0076 56 40.5069C56.5648 40.0004 57.2139 39.6336 57.9475 39.4066C58.6811 39.1737 59.4525 39.0573 60.2617 39.0573C60.7974 39.0573 61.365 39.1213 61.9647 39.2494C62.5702 39.3717 63.1349 39.5987 63.6589 39.9306C64.1887 40.2624 64.6224 40.7369 64.9601 41.354C65.2978 41.9654 65.4666 42.7601 65.4666 43.7382V52.6458H62.9166V50.8119H62.8118C62.6429 51.1496 62.3897 51.4814 62.052 51.8075C61.7143 52.1335 61.2806 52.4042 60.7508 52.6196C60.221 52.835 59.5864 52.9428 58.847 52.9428ZM59.4146 50.8468C60.1366 50.8468 60.7537 50.7042 61.266 50.4189C61.7842 50.1336 62.1772 49.761 62.445 49.3011C62.7186 48.8353 62.8555 48.3375 62.8555 47.8077V46.0786C62.7623 46.1718 62.5818 46.2591 62.314 46.3406C62.052 46.4163 61.7522 46.4832 61.4145 46.5415C61.0768 46.5939 60.7479 46.6433 60.4277 46.6899C60.1075 46.7307 59.8397 46.7656 59.6242 46.7947C59.1177 46.8588 58.6549 46.9665 58.2357 47.1178C57.8223 47.2692 57.4905 47.4875 57.2401 47.7728C56.9956 48.0523 56.8733 48.4249 56.8733 48.8906C56.8733 49.5369 57.112 50.0259 57.5894 50.3578C58.0668 50.6838 58.6752 50.8468 59.4146 50.8468ZM78.9962 42.5068L76.6296 42.926C76.5306 42.6232 76.3734 42.3351 76.158 42.0614C75.9484 41.7878 75.6631 41.5636 75.3022 41.389C74.9412 41.2143 74.49 41.127 73.9486 41.127C73.2092 41.127 72.592 41.2929 72.0972 41.6248C71.6023 41.9508 71.3549 42.3729 71.3549 42.8911C71.3549 43.3394 71.5208 43.7003 71.8526 43.9739C72.1845 44.2476 72.7201 44.4717 73.4595 44.6464L75.5904 45.1354C76.8246 45.4207 77.7445 45.8603 78.35 46.4541C78.9555 47.048 79.2582 47.8194 79.2582 48.7684C79.2582 49.5718 79.0254 50.2879 78.5596 50.9167C78.0997 51.5397 77.4563 52.0287 76.6296 52.3838C75.8087 52.739 74.8568 52.9166 73.7739 52.9166C72.2718 52.9166 71.0463 52.5963 70.0973 51.9559C69.1483 51.3097 68.5661 50.3927 68.3507 49.205L70.8745 48.8208C71.0317 49.4787 71.3549 49.9764 71.8439 50.3141C72.333 50.646 72.9705 50.8119 73.7564 50.8119C74.6123 50.8119 75.2964 50.6343 75.8087 50.2792C76.321 49.9182 76.5772 49.4787 76.5772 48.9605C76.5772 48.5413 76.42 48.1891 76.1056 47.9038C75.797 47.6185 75.3226 47.4031 74.6821 47.2576L72.4115 46.7598C71.1598 46.4745 70.2341 46.0204 69.6345 45.3974C69.0406 44.7745 68.7437 43.9856 68.7437 43.0308C68.7437 42.239 68.9649 41.5462 69.4074 40.9523C69.8499 40.3585 70.4612 39.8956 71.2413 39.5638C72.0215 39.2261 72.9152 39.0573 73.9224 39.0573C75.372 39.0573 76.5132 39.3717 77.3457 40.0004C78.1782 40.6234 78.7284 41.4588 78.9962 42.5068ZM83.7797 57.676C83.3897 57.676 83.0345 57.644 82.7143 57.58C82.3941 57.5218 82.1554 57.4577 81.9982 57.3879L82.627 55.2483C83.1044 55.3764 83.5294 55.4317 83.902 55.4142C84.2746 55.3967 84.6036 55.257 84.8888 54.995C85.1799 54.733 85.4361 54.3051 85.6573 53.7113L85.9805 52.8205L81.0725 39.2319H83.8671L87.2642 49.6417H87.4039L90.8011 39.2319H93.6044L88.0764 54.4361C87.8202 55.1347 87.4942 55.7257 87.0983 56.2089C86.7024 56.698 86.2308 57.0647 85.6835 57.3093C85.1363 57.5538 84.5017 57.676 83.7797 57.676ZM108.348 52.9166C107.026 52.9166 105.888 52.6342 104.933 52.0695C103.984 51.4989 103.251 50.6984 102.733 49.6679C102.22 48.6316 101.964 47.4177 101.964 46.0262C101.964 44.6522 102.22 43.4412 102.733 42.3933C103.251 41.3453 103.973 40.5273 104.898 39.9393C105.83 39.3513 106.919 39.0573 108.165 39.0573C108.921 39.0573 109.655 39.1824 110.365 39.4328C111.076 39.6831 111.713 40.0761 112.278 40.6117C112.842 41.1474 113.288 41.8431 113.614 42.6989C113.94 43.5489 114.103 44.5823 114.103 45.7991V46.7248H103.44V44.7687H111.544C111.544 44.0817 111.404 43.4733 111.125 42.9435C110.846 42.4078 110.453 41.9857 109.946 41.6772C109.445 41.3686 108.857 41.2143 108.182 41.2143C107.448 41.2143 106.808 41.3948 106.261 41.7558C105.719 42.1109 105.3 42.5767 105.003 43.153C104.712 43.7236 104.567 44.3436 104.567 45.0132V46.5415C104.567 47.438 104.724 48.2007 105.038 48.8295C105.358 49.4583 105.804 49.9386 106.374 50.2705C106.945 50.5965 107.611 50.7595 108.374 50.7595C108.869 50.7595 109.32 50.6896 109.728 50.5499C110.135 50.4044 110.487 50.1889 110.784 49.9037C111.081 49.6184 111.308 49.2662 111.466 48.847L113.937 49.2924C113.739 50.0201 113.384 50.6576 112.872 51.2049C112.365 51.7463 111.728 52.1684 110.959 52.4712C110.196 52.7681 109.326 52.9166 108.348 52.9166ZM128.091 39.2319L123.227 52.6458H120.432L115.559 39.2319H118.362L121.76 49.5543H121.899L125.288 39.2319H128.091ZM134.064 52.9428C133.214 52.9428 132.446 52.7856 131.759 52.4712C131.072 52.151 130.528 51.6881 130.126 51.0826C129.73 50.4771 129.532 49.7348 129.532 48.8557C129.532 48.0988 129.678 47.4759 129.969 46.9868C130.26 46.4978 130.653 46.1106 131.148 45.8253C131.642 45.5401 132.196 45.3247 132.807 45.1791C133.418 45.0336 134.041 44.9229 134.676 44.8473C135.479 44.7541 136.131 44.6784 136.632 44.6202C137.133 44.5562 137.497 44.4543 137.724 44.3145C137.951 44.1748 138.064 43.9478 138.064 43.6334V43.5722C138.064 42.8095 137.849 42.2186 137.418 41.7994C136.993 41.3802 136.358 41.1707 135.514 41.1707C134.635 41.1707 133.942 41.3657 133.436 41.7558C132.935 42.14 132.589 42.5679 132.396 43.0395L129.942 42.4806C130.234 41.6655 130.659 41.0076 131.217 40.5069C131.782 40.0004 132.431 39.6336 133.165 39.4066C133.899 39.1737 134.67 39.0573 135.479 39.0573C136.015 39.0573 136.582 39.1213 137.182 39.2494C137.788 39.3717 138.352 39.5987 138.876 39.9306C139.406 40.2624 139.84 40.7369 140.178 41.354C140.515 41.9654 140.684 42.7601 140.684 43.7382V52.6458H138.134V50.8119H138.029C137.86 51.1496 137.607 51.4814 137.269 51.8075C136.932 52.1335 136.498 52.4042 135.968 52.6196C135.438 52.835 134.804 52.9428 134.064 52.9428ZM134.632 50.8468C135.354 50.8468 135.971 50.7042 136.483 50.4189C137.002 50.1336 137.395 49.761 137.662 49.3011C137.936 48.8353 138.073 48.3375 138.073 47.8077V46.0786C137.98 46.1718 137.799 46.2591 137.531 46.3406C137.269 46.4163 136.97 46.4832 136.632 46.5415C136.294 46.5939 135.965 46.6433 135.645 46.6899C135.325 46.7307 135.057 46.7656 134.842 46.7947C134.335 46.8588 133.872 46.9665 133.453 47.1178C133.04 47.2692 132.708 47.4875 132.458 47.7728C132.213 48.0523 132.091 48.4249 132.091 48.8906C132.091 49.5369 132.329 50.0259 132.807 50.3578C133.284 50.6838 133.893 50.8468 134.632 50.8468ZM146.773 34.7606V52.6458H144.162V34.7606H146.773ZM158.783 47.0829V39.2319H161.403V52.6458H158.836V50.3229H158.696C158.387 51.039 157.892 51.6357 157.211 52.1131C156.536 52.5847 155.695 52.8205 154.687 52.8205C153.826 52.8205 153.063 52.6313 152.399 52.2528C151.742 51.8686 151.223 51.3009 150.845 50.5499C150.472 49.7989 150.286 48.8703 150.286 47.7641V39.2319H152.897V47.4497C152.897 48.3637 153.15 49.0915 153.657 49.6329C154.163 50.1744 154.821 50.4451 155.631 50.4451C156.12 50.4451 156.606 50.3229 157.089 50.0783C157.578 49.8338 157.983 49.4641 158.303 48.9692C158.629 48.4744 158.789 47.8456 158.783 47.0829ZM168.815 52.9428C167.965 52.9428 167.197 52.7856 166.51 52.4712C165.823 52.151 165.278 51.6881 164.877 51.0826C164.481 50.4771 164.283 49.7348 164.283 48.8557C164.283 48.0988 164.428 47.4759 164.72 46.9868C165.011 46.4978 165.404 46.1106 165.898 45.8253C166.393 45.5401 166.946 45.3247 167.558 45.1791C168.169 45.0336 168.792 44.9229 169.427 44.8473C170.23 44.7541 170.882 44.6784 171.383 44.6202C171.883 44.5562 172.247 44.4543 172.474 44.3145C172.701 44.1748 172.815 43.9478 172.815 43.6334V43.5722C172.815 42.8095 172.6 42.2186 172.169 41.7994C171.744 41.3802 171.109 41.1707 170.265 41.1707C169.386 41.1707 168.693 41.3657 168.187 41.7558C167.686 42.14 167.339 42.5679 167.147 43.0395L164.693 42.4806C164.984 41.6655 165.409 41.0076 165.968 40.5069C166.533 40.0004 167.182 39.6336 167.916 39.4066C168.649 39.1737 169.421 39.0573 170.23 39.0573C170.766 39.0573 171.333 39.1213 171.933 39.2494C172.538 39.3717 173.103 39.5987 173.627 39.9306C174.157 40.2624 174.591 40.7369 174.928 41.354C175.266 41.9654 175.435 42.7601 175.435 43.7382V52.6458H172.885V50.8119H172.78C172.611 51.1496 172.358 51.4814 172.02 51.8075C171.683 52.1335 171.249 52.4042 170.719 52.6196C170.189 52.835 169.555 52.9428 168.815 52.9428ZM169.383 50.8468C170.105 50.8468 170.722 50.7042 171.234 50.4189C171.752 50.1336 172.145 49.761 172.413 49.3011C172.687 48.8353 172.824 48.3375 172.824 47.8077V46.0786C172.731 46.1718 172.55 46.2591 172.282 46.3406C172.02 46.4163 171.72 46.4832 171.383 46.5415C171.045 46.5939 170.716 46.6433 170.396 46.6899C170.076 46.7307 169.808 46.7656 169.593 46.7947C169.086 46.8588 168.623 46.9665 168.204 47.1178C167.791 47.2692 167.459 47.4875 167.208 47.7728C166.964 48.0523 166.842 48.4249 166.842 48.8906C166.842 49.5369 167.08 50.0259 167.558 50.3578C168.035 50.6838 168.644 50.8468 169.383 50.8468ZM185.174 39.2319V41.3278H177.847V39.2319H185.174ZM179.812 36.0182H182.423V48.7072C182.423 49.2138 182.499 49.5951 182.651 49.8513C182.802 50.1016 182.997 50.2734 183.236 50.3665C183.48 50.4538 183.745 50.4975 184.03 50.4975C184.24 50.4975 184.423 50.483 184.581 50.4538C184.738 50.4247 184.86 50.4014 184.947 50.384L185.419 52.541C185.268 52.5993 185.052 52.6575 184.773 52.7157C184.493 52.7797 184.144 52.8147 183.725 52.8205C183.038 52.8321 182.397 52.7099 181.803 52.4537C181.21 52.1975 180.729 51.8016 180.363 51.266C179.996 50.7304 179.812 50.0579 179.812 49.2487V36.0182ZM188.063 52.6458V39.2319H190.674V52.6458H188.063ZM189.382 37.1622C188.927 37.1622 188.537 37.0108 188.211 36.7081C187.891 36.3995 187.731 36.0327 187.731 35.6077C187.731 35.1769 187.891 34.8101 188.211 34.5074C188.537 34.1988 188.927 34.0445 189.382 34.0445C189.836 34.0445 190.223 34.1988 190.543 34.5074C190.869 34.8101 191.032 35.1769 191.032 35.6077C191.032 36.0327 190.869 36.3995 190.543 36.7081C190.223 37.0108 189.836 37.1622 189.382 37.1622ZM199.837 52.9166C198.58 52.9166 197.482 52.6284 196.545 52.052C195.607 51.4756 194.88 50.6693 194.362 49.6329C193.843 48.5966 193.584 47.3856 193.584 46C193.584 44.6085 193.843 43.3917 194.362 42.3496C194.88 41.3075 195.607 40.4982 196.545 39.9218C197.482 39.3455 198.58 39.0573 199.837 39.0573C201.095 39.0573 202.192 39.3455 203.129 39.9218C204.067 40.4982 204.795 41.3075 205.313 42.3496C205.831 43.3917 206.09 44.6085 206.09 46C206.09 47.3856 205.831 48.5966 205.313 49.6329C204.795 50.6693 204.067 51.4756 203.129 52.052C202.192 52.6284 201.095 52.9166 199.837 52.9166ZM199.846 50.7246C200.661 50.7246 201.336 50.5092 201.872 50.0783C202.408 49.6475 202.803 49.074 203.06 48.3579C203.322 47.6418 203.453 46.8529 203.453 45.9913C203.453 45.1354 203.322 44.3495 203.06 43.6334C202.803 42.9114 202.408 42.3321 201.872 41.8955C201.336 41.4588 200.661 41.2405 199.846 41.2405C199.025 41.2405 198.344 41.4588 197.802 41.8955C197.267 42.3321 196.868 42.9114 196.606 43.6334C196.35 44.3495 196.222 45.1354 196.222 45.9913C196.222 46.8529 196.35 47.6418 196.606 48.3579C196.868 49.074 197.267 49.6475 197.802 50.0783C198.344 50.5092 199.025 50.7246 199.846 50.7246ZM211.616 44.6813V52.6458H209.005V39.2319H211.511V41.4152H211.677C211.985 40.7049 212.469 40.1343 213.127 39.7035C213.79 39.2727 214.626 39.0573 215.633 39.0573C216.547 39.0573 217.348 39.2494 218.035 39.6336C218.722 40.0121 219.254 40.5768 219.633 41.3278C220.011 42.0789 220.2 43.0075 220.2 44.1137V52.6458H217.589V44.4281C217.589 43.4558 217.336 42.696 216.829 42.1487C216.323 41.5957 215.627 41.3191 214.742 41.3191C214.137 41.3191 213.598 41.4501 213.127 41.7121C212.661 41.9741 212.291 42.3583 212.017 42.8649C211.75 43.3655 211.616 43.971 211.616 44.6813ZM234.114 52.9428C233.264 52.9428 232.496 52.7856 231.809 52.4712C231.122 52.151 230.577 51.6881 230.176 51.0826C229.78 50.4771 229.582 49.7348 229.582 48.8557C229.582 48.0988 229.727 47.4759 230.018 46.9868C230.31 46.4978 230.703 46.1106 231.197 45.8253C231.692 45.5401 232.245 45.3247 232.857 45.1791C233.468 45.0336 234.091 44.9229 234.726 44.8473C235.529 44.7541 236.181 44.6784 236.682 44.6202C237.182 44.5562 237.546 44.4543 237.773 44.3145C238 44.1748 238.114 43.9478 238.114 43.6334V43.5722C238.114 42.8095 237.899 42.2186 237.468 41.7994C237.043 41.3802 236.408 41.1707 235.564 41.1707C234.685 41.1707 233.992 41.3657 233.485 41.7558C232.985 42.14 232.638 42.5679 232.446 43.0395L229.992 42.4806C230.283 41.6655 230.708 41.0076 231.267 40.5069C231.832 40.0004 232.481 39.6336 233.215 39.4066C233.948 39.1737 234.72 39.0573 235.529 39.0573C236.065 39.0573 236.632 39.1213 237.232 39.2494C237.837 39.3717 238.402 39.5987 238.926 39.9306C239.456 40.2624 239.89 40.7369 240.227 41.354C240.565 41.9654 240.734 42.7601 240.734 43.7382V52.6458H238.184V50.8119H238.079C237.91 51.1496 237.657 51.4814 237.319 51.8075C236.982 52.1335 236.548 52.4042 236.018 52.6196C235.488 52.835 234.854 52.9428 234.114 52.9428ZM234.682 50.8468C235.404 50.8468 236.021 50.7042 236.533 50.4189C237.051 50.1336 237.444 49.761 237.712 49.3011C237.986 48.8353 238.123 48.3375 238.123 47.8077V46.0786C238.03 46.1718 237.849 46.2591 237.581 46.3406C237.319 46.4163 237.019 46.4832 236.682 46.5415C236.344 46.5939 236.015 46.6433 235.695 46.6899C235.375 46.7307 235.107 46.7656 234.891 46.7947C234.385 46.8588 233.922 46.9665 233.503 47.1178C233.09 47.2692 232.758 47.4875 232.507 47.7728C232.263 48.0523 232.141 48.4249 232.141 48.8906C232.141 49.5369 232.379 50.0259 232.857 50.3578C233.334 50.6838 233.942 50.8468 234.682 50.8468ZM246.823 44.6813V52.6458H244.212V39.2319H246.718V41.4152H246.884C247.193 40.7049 247.676 40.1343 248.334 39.7035C248.997 39.2727 249.833 39.0573 250.84 39.0573C251.754 39.0573 252.555 39.2494 253.242 39.6336C253.929 40.0121 254.461 40.5768 254.84 41.3278C255.218 42.0789 255.407 43.0075 255.407 44.1137V52.6458H252.796V44.4281C252.796 43.4558 252.543 42.696 252.037 42.1487C251.53 41.5957 250.834 41.3191 249.949 41.3191C249.344 41.3191 248.805 41.4501 248.334 41.7121C247.868 41.9741 247.498 42.3583 247.225 42.8649C246.957 43.3655 246.823 43.971 246.823 44.6813ZM263.931 52.9078C262.848 52.9078 261.882 52.6313 261.032 52.0782C260.187 51.5193 259.524 50.7246 259.04 49.6941C258.563 48.6578 258.324 47.4148 258.324 45.9651C258.324 44.5154 258.566 43.2753 259.049 42.2448C259.538 41.2143 260.208 40.4254 261.058 39.8782C261.908 39.3309 262.871 39.0573 263.948 39.0573C264.781 39.0573 265.45 39.197 265.957 39.4764C266.469 39.7501 266.865 40.0703 267.145 40.4371C267.43 40.8039 267.651 41.127 267.808 41.4064H267.966V34.7606H270.577V52.6458H268.027V50.5586H267.808C267.651 50.8439 267.424 51.17 267.127 51.5367C266.836 51.9035 266.434 52.2237 265.922 52.4974C265.41 52.771 264.746 52.9078 263.931 52.9078ZM264.507 50.6809C265.258 50.6809 265.893 50.483 266.411 50.0871C266.935 49.6853 267.331 49.1293 267.599 48.4191C267.872 47.7088 268.009 46.882 268.009 45.9389C268.009 45.0074 267.875 44.1923 267.607 43.4936C267.34 42.795 266.947 42.2506 266.429 41.8606C265.91 41.4705 265.27 41.2754 264.507 41.2754C263.721 41.2754 263.066 41.4792 262.542 41.8868C262.018 42.2943 261.622 42.8503 261.355 43.5548C261.093 44.2592 260.962 45.0539 260.962 45.9389C260.962 46.8355 261.096 47.6418 261.363 48.3579C261.631 49.074 262.027 49.6417 262.551 50.0609C263.081 50.4742 263.733 50.6809 264.507 50.6809ZM289.868 57.676V50.5586H289.711C289.554 50.8439 289.327 51.17 289.03 51.5367C288.738 51.9035 288.337 52.2237 287.824 52.4974C287.312 52.771 286.648 52.9078 285.833 52.9078C284.75 52.9078 283.784 52.6313 282.934 52.0782C282.09 51.5193 281.426 50.7246 280.943 49.6941C280.465 48.6578 280.227 47.4148 280.227 45.9651C280.227 44.5154 280.468 43.2753 280.952 42.2448C281.441 41.2143 282.11 40.4254 282.96 39.8782C283.81 39.3309 284.774 39.0573 285.851 39.0573C286.683 39.0573 287.353 39.197 287.859 39.4764C288.372 39.7501 288.768 40.0703 289.047 40.4371C289.332 40.8039 289.554 41.127 289.711 41.4064H289.929V39.2319H292.479V57.676H289.868ZM286.41 50.6809C287.161 50.6809 287.795 50.483 288.313 50.0871C288.837 49.6853 289.233 49.1293 289.501 48.4191C289.775 47.7088 289.912 46.882 289.912 45.9389C289.912 45.0074 289.778 44.1923 289.51 43.4936C289.242 42.795 288.849 42.2506 288.331 41.8606C287.813 41.4705 287.172 41.2754 286.41 41.2754C285.624 41.2754 284.969 41.4792 284.445 41.8868C283.921 42.2943 283.525 42.8503 283.257 43.5548C282.995 44.2592 282.864 45.0539 282.864 45.9389C282.864 46.8355 282.998 47.6418 283.266 48.3579C283.534 49.074 283.93 49.6417 284.453 50.0609C284.983 50.4742 285.635 50.6809 286.41 50.6809ZM304.487 47.0829V39.2319H307.107V52.6458H304.539V50.3229H304.4C304.091 51.039 303.596 51.6357 302.915 52.1131C302.24 52.5847 301.398 52.8205 300.391 52.8205C299.53 52.8205 298.767 52.6313 298.103 52.2528C297.445 51.8686 296.927 51.3009 296.549 50.5499C296.176 49.7989 295.99 48.8703 295.99 47.7641V39.2319H298.601V47.4497C298.601 48.3637 298.854 49.0915 299.361 49.6329C299.867 50.1744 300.525 50.4451 301.334 50.4451C301.823 50.4451 302.31 50.3229 302.793 50.0783C303.282 49.8338 303.686 49.4641 304.007 48.9692C304.333 48.4744 304.493 47.8456 304.487 47.0829ZM310.615 52.6458V39.2319H313.227V52.6458H310.615ZM311.934 37.1622C311.48 37.1622 311.09 37.0108 310.764 36.7081C310.444 36.3995 310.284 36.0327 310.284 35.6077C310.284 35.1769 310.444 34.8101 310.764 34.5074C311.09 34.1988 311.48 34.0445 311.934 34.0445C312.388 34.0445 312.775 34.1988 313.096 34.5074C313.422 34.8101 313.585 35.1769 313.585 35.6077C313.585 36.0327 313.422 36.3995 313.096 36.7081C312.775 37.0108 312.388 37.1622 311.934 37.1622ZM322.39 52.9166C321.091 52.9166 319.974 52.6225 319.036 52.0345C318.105 51.4407 317.389 50.6227 316.888 49.5805C316.387 48.5384 316.137 47.3449 316.137 46C316.137 44.6377 316.393 43.4354 316.905 42.3933C317.418 41.3453 318.14 40.5273 319.071 39.9393C320.003 39.3513 321.1 39.0573 322.363 39.0573C323.382 39.0573 324.291 39.2465 325.088 39.6249C325.886 39.9975 326.529 40.5215 327.018 41.1969C327.513 41.8722 327.807 42.6611 327.9 43.5635H325.359C325.219 42.9347 324.899 42.3933 324.398 41.9392C323.903 41.485 323.24 41.258 322.407 41.258C321.679 41.258 321.042 41.4501 320.495 41.8344C319.953 42.2128 319.531 42.7542 319.228 43.4587C318.926 44.1573 318.774 44.9841 318.774 45.9389C318.774 46.917 318.923 47.7612 319.22 48.4715C319.517 49.1817 319.936 49.7319 320.477 50.122C321.024 50.5121 321.668 50.7071 322.407 50.7071C322.902 50.7071 323.35 50.6169 323.752 50.4364C324.16 50.2501 324.5 49.9852 324.774 49.6417C325.053 49.2982 325.248 48.8848 325.359 48.4016H327.9C327.807 49.2691 327.525 50.0434 327.053 50.7246C326.582 51.4057 325.95 51.9414 325.158 52.3314C324.372 52.7215 323.449 52.9166 322.39 52.9166ZM333.094 48.0959L333.077 44.9084H333.531L338.875 39.2319H342.002L335.906 45.6944H335.496L333.094 48.0959ZM330.693 52.6458V34.7606H333.304V52.6458H330.693ZM339.164 52.6458L334.36 46.2707L336.159 44.4455L342.369 52.6458H339.164ZM6.21749 86.9523C5.1346 86.9523 4.16815 86.6758 3.31813 86.1227C2.47394 85.5638 1.81023 84.7691 1.32701 83.7386C0.849601 82.7023 0.610899 81.4593 0.610899 80.0096C0.610899 78.5599 0.852512 77.3198 1.33574 76.2893C1.82479 75.2588 2.49432 74.4699 3.34433 73.9227C4.19435 73.3754 5.15789 73.1018 6.23496 73.1018C7.06751 73.1018 7.73704 73.2415 8.24355 73.5209C8.75589 73.7946 9.15179 74.1148 9.43124 74.4816C9.71652 74.8484 9.93776 75.1715 10.095 75.4509H10.2521V68.8051H12.8633V86.6903H10.3133V84.6031H10.095C9.93776 84.8884 9.7107 85.2144 9.41378 85.5812C9.12268 85.948 8.72096 86.2682 8.20862 86.5419C7.69628 86.8155 7.03257 86.9523 6.21749 86.9523ZM6.79387 84.7254C7.54491 84.7254 8.17951 84.5274 8.69767 84.1316C9.22165 83.7298 9.61755 83.1738 9.88536 82.4635C10.159 81.7533 10.2958 80.9265 10.2958 79.9834C10.2958 79.0519 10.1619 78.2368 9.89409 77.5381C9.62628 76.8395 9.23329 76.2951 8.71514 75.9051C8.19698 75.515 7.55656 75.3199 6.79387 75.3199C6.0079 75.3199 5.35293 75.5237 4.82894 75.9313C4.30496 76.3388 3.90907 76.8948 3.64125 77.5993C3.37926 78.3037 3.24827 79.0984 3.24827 79.9834C3.24827 80.88 3.38218 81.6863 3.64999 82.4024C3.9178 83.1185 4.3137 83.6862 4.83768 84.1054C5.36748 84.5187 6.01955 84.7254 6.79387 84.7254ZM22.3714 86.961C21.0498 86.961 19.9116 86.6787 18.9568 86.1139C18.0078 85.5434 17.2742 84.7429 16.7561 83.7124C16.2437 82.6761 15.9876 81.4622 15.9876 80.0707C15.9876 78.6967 16.2437 77.4857 16.7561 76.4378C17.2742 75.3898 17.9961 74.5718 18.9218 73.9838C19.8534 73.3958 20.9421 73.1018 22.188 73.1018C22.9449 73.1018 23.6784 73.2269 24.3887 73.4773C25.099 73.7276 25.7365 74.1206 26.3012 74.6562C26.866 75.1919 27.3114 75.8876 27.6374 76.7434C27.9634 77.5934 28.1264 78.6268 28.1264 79.8436V80.7693H17.4634V78.8131H25.5677C25.5677 78.1262 25.4279 77.5178 25.1485 76.9879C24.869 76.4523 24.476 76.0302 23.9695 75.7217C23.4688 75.4131 22.8808 75.2588 22.2055 75.2588C21.4719 75.2588 20.8315 75.4393 20.2842 75.8003C19.7427 76.1554 19.3236 76.6212 19.0266 77.1975C18.7355 77.7681 18.59 78.3881 18.59 79.0577V80.5859C18.59 81.4825 18.7472 82.2452 19.0616 82.874C19.3818 83.5028 19.8272 83.9831 20.3977 84.3149C20.9683 84.641 21.6349 84.804 22.3976 84.804C22.8925 84.804 23.3437 84.7341 23.7512 84.5944C24.1587 84.4489 24.511 84.2334 24.8079 83.9482C25.1048 83.6629 25.3319 83.3107 25.4891 82.8915L27.9605 83.3368C27.7626 84.0646 27.4074 84.7021 26.8951 85.2494C26.3886 85.7908 25.7511 86.2129 24.9826 86.5157C24.2199 86.8126 23.3495 86.961 22.3714 86.961ZM36.6739 86.961C35.3756 86.961 34.2577 86.667 33.3204 86.079C32.3889 85.4852 31.6728 84.6672 31.1721 83.625C30.6714 82.5829 30.421 81.3894 30.421 80.0445C30.421 78.6822 30.6772 77.4799 31.1895 76.4378C31.7019 75.3898 32.4238 74.5718 33.3553 73.9838C34.2869 73.3958 35.3843 73.1018 36.6477 73.1018C37.6665 73.1018 38.5748 73.291 39.3724 73.6694C40.17 74.042 40.8133 74.566 41.3024 75.2413C41.7972 75.9167 42.0913 76.7056 42.1844 77.608H39.6431C39.5034 76.9792 39.1832 76.4378 38.6825 75.9837C38.1876 75.5295 37.5239 75.3025 36.6913 75.3025C35.9636 75.3025 35.3261 75.4946 34.7788 75.8789C34.2374 76.2573 33.8153 76.7987 33.5125 77.5032C33.2098 78.2018 33.0584 79.0286 33.0584 79.9834C33.0584 80.9615 33.2069 81.8057 33.5038 82.5159C33.8007 83.2262 34.2199 83.7764 34.7613 84.1665C35.3086 84.5566 35.9519 84.7516 36.6913 84.7516C37.1862 84.7516 37.6345 84.6614 38.0362 84.4809C38.4438 84.2946 38.7844 84.0297 39.058 83.6862C39.3374 83.3427 39.5325 82.9293 39.6431 82.4461H42.1844C42.0913 83.3136 41.8089 84.0879 41.3373 84.7691C40.8657 85.4502 40.234 85.9859 39.4422 86.3759C38.6563 86.766 37.7335 86.961 36.6739 86.961ZM44.9768 86.6903V73.2764H47.588V86.6903H44.9768ZM46.2955 71.2067C45.8414 71.2067 45.4513 71.0553 45.1252 70.7526C44.805 70.444 44.6449 70.0772 44.6449 69.6522C44.6449 69.2214 44.805 68.8546 45.1252 68.5519C45.4513 68.2433 45.8414 68.089 46.2955 68.089C46.7496 68.089 47.1368 68.2433 47.457 68.5519C47.783 68.8546 47.946 69.2214 47.946 69.6522C47.946 70.0772 47.783 70.444 47.457 70.7526C47.1368 71.0553 46.7496 71.2067 46.2955 71.2067ZM61.1525 76.5513L58.7859 76.9705C58.6869 76.6677 58.5297 76.3795 58.3143 76.1059C58.1047 75.8323 57.8194 75.6081 57.4584 75.4335C57.0975 75.2588 56.6463 75.1715 56.1048 75.1715C55.3654 75.1715 54.7483 75.3374 54.2534 75.6693C53.7586 75.9953 53.5111 76.4174 53.5111 76.9356C53.5111 77.3838 53.6771 77.7448 54.0089 78.0184C54.3408 78.2921 54.8764 78.5162 55.6158 78.6909L57.7466 79.1799C58.9809 79.4652 59.9008 79.9048 60.5063 80.4986C61.1118 81.0925 61.4145 81.8639 61.4145 82.8129C61.4145 83.6163 61.1816 84.3324 60.7159 84.9612C60.2559 85.5841 59.6126 86.0732 58.7859 86.4283C57.965 86.7835 57.0131 86.961 55.9302 86.961C54.4281 86.961 53.2026 86.6408 52.2536 86.0004C51.3046 85.3542 50.7224 84.4372 50.507 83.2495L53.0308 82.8653C53.188 83.5232 53.5111 84.0209 54.0002 84.3586C54.4892 84.6905 55.1267 84.8564 55.9127 84.8564C56.7685 84.8564 57.4526 84.6788 57.965 84.3237C58.4773 83.9627 58.7335 83.5232 58.7335 83.005C58.7335 82.5858 58.5763 82.2336 58.2619 81.9483C57.9533 81.663 57.4788 81.4476 56.8384 81.3021L54.5678 80.8043C53.3161 80.519 52.3904 80.0649 51.7907 79.4419C51.1969 78.819 50.9 78.0301 50.9 77.0753C50.9 76.2835 51.1212 75.5907 51.5637 74.9968C52.0061 74.403 52.6174 73.9401 53.3976 73.6083C54.1777 73.2706 55.0714 73.1018 56.0786 73.1018C57.5283 73.1018 58.6694 73.4161 59.502 74.0449C60.3345 74.6679 60.8847 75.5033 61.1525 76.5513ZM64.2855 86.6903V73.2764H66.8967V86.6903H64.2855ZM65.6042 71.2067C65.15 71.2067 64.76 71.0553 64.4339 70.7526C64.1137 70.444 63.9536 70.0772 63.9536 69.6522C63.9536 69.2214 64.1137 68.8546 64.4339 68.5519C64.76 68.2433 65.15 68.089 65.6042 68.089C66.0583 68.089 66.4454 68.2433 66.7657 68.5519C67.0917 68.8546 67.2547 69.2214 67.2547 69.6522C67.2547 70.0772 67.0917 70.444 66.7657 70.7526C66.4454 71.0553 66.0583 71.2067 65.6042 71.2067ZM76.0598 86.961C74.8022 86.961 73.7048 86.6729 72.7674 86.0965C71.8301 85.5201 71.1023 84.7138 70.5842 83.6774C70.066 82.6411 69.8069 81.4301 69.8069 80.0445C69.8069 78.653 70.066 77.4362 70.5842 76.3941C71.1023 75.352 71.8301 74.5427 72.7674 73.9663C73.7048 73.3899 74.8022 73.1018 76.0598 73.1018C77.3173 73.1018 78.4148 73.3899 79.3521 73.9663C80.2895 74.5427 81.0172 75.352 81.5354 76.3941C82.0535 77.4362 82.3126 78.653 82.3126 80.0445C82.3126 81.4301 82.0535 82.6411 81.5354 83.6774C81.0172 84.7138 80.2895 85.5201 79.3521 86.0965C78.4148 86.6729 77.3173 86.961 76.0598 86.961ZM76.0685 84.7691C76.8836 84.7691 77.5589 84.5536 78.0946 84.1228C78.6302 83.692 79.0261 83.1185 79.2823 82.4024C79.5442 81.6863 79.6752 80.8974 79.6752 80.0358C79.6752 79.1799 79.5442 78.394 79.2823 77.6779C79.0261 76.9559 78.6302 76.3766 78.0946 75.94C77.5589 75.5033 76.8836 75.285 76.0685 75.285C75.2476 75.285 74.5664 75.5033 74.025 75.94C73.4894 76.3766 73.0905 76.9559 72.8286 77.6779C72.5724 78.394 72.4443 79.1799 72.4443 80.0358C72.4443 80.8974 72.5724 81.6863 72.8286 82.4024C73.0905 83.1185 73.4894 83.692 74.025 84.1228C74.5664 84.5536 75.2476 84.7691 76.0685 84.7691ZM87.8384 78.7258V86.6903H85.2272V73.2764H87.7336V75.4597H87.8995C88.2081 74.7494 88.6913 74.1788 89.3492 73.748C90.0129 73.3172 90.8484 73.1018 91.8556 73.1018C92.7697 73.1018 93.5702 73.2939 94.2572 73.6781C94.9442 74.0566 95.4769 74.6213 95.8553 75.3723C96.2338 76.1234 96.423 77.052 96.423 78.1582V86.6903H93.8118V78.4726C93.8118 77.5003 93.5585 76.7405 93.052 76.1932C92.5455 75.6402 91.8498 75.3636 90.9648 75.3636C90.3593 75.3636 89.8208 75.4946 89.3492 75.7566C88.8835 76.0186 88.5138 76.4028 88.2401 76.9094C87.9723 77.41 87.8384 78.0155 87.8384 78.7258ZM107.828 78.001V80.2628H99.8987V78.001H107.828ZM111.308 86.6903V73.2764H113.815V75.4597H113.981C114.26 74.7203 114.717 74.1439 115.352 73.7305C115.986 73.3114 116.746 73.1018 117.631 73.1018C118.528 73.1018 119.279 73.3114 119.884 73.7305C120.496 74.1497 120.947 74.7261 121.238 75.4597H121.378C121.698 74.7436 122.207 74.173 122.906 73.748C123.604 73.3172 124.437 73.1018 125.403 73.1018C126.62 73.1018 127.613 73.4831 128.381 74.2458C129.156 75.0085 129.543 76.1583 129.543 77.6953V86.6903H126.932V77.9398C126.932 77.0316 126.684 76.3737 126.189 75.9662C125.695 75.5586 125.104 75.3549 124.417 75.3549C123.567 75.3549 122.906 75.6169 122.434 76.1408C121.963 76.659 121.727 77.3256 121.727 78.1407V86.6903H119.124V77.7739C119.124 77.0462 118.897 76.4611 118.443 76.0186C117.989 75.5761 117.398 75.3549 116.67 75.3549C116.176 75.3549 115.719 75.4859 115.299 75.7479C114.886 76.004 114.551 76.3621 114.295 76.822C114.045 77.282 113.92 77.8147 113.92 78.4202V86.6903H111.308ZM136.946 86.9872C136.096 86.9872 135.328 86.8301 134.641 86.5157C133.954 86.1955 133.409 85.7326 133.008 85.1271C132.612 84.5216 132.414 83.7793 132.414 82.9002C132.414 82.1433 132.559 81.5204 132.851 81.0313C133.142 80.5423 133.535 80.1551 134.03 79.8698C134.524 79.5846 135.077 79.3692 135.689 79.2236C136.3 79.078 136.923 78.9674 137.558 78.8917C138.361 78.7986 139.013 78.7229 139.514 78.6647C140.015 78.6006 140.378 78.4988 140.605 78.359C140.833 78.2193 140.946 77.9922 140.946 77.6779V77.6167C140.946 76.854 140.731 76.2631 140.3 75.8439C139.875 75.4247 139.24 75.2151 138.396 75.2151C137.517 75.2151 136.824 75.4102 136.318 75.8003C135.817 76.1845 135.47 76.6124 135.278 77.084L132.824 76.5251C133.115 75.71 133.54 75.0521 134.099 74.5514C134.664 74.0449 135.313 73.6781 136.047 73.4511C136.78 73.2182 137.552 73.1018 138.361 73.1018C138.897 73.1018 139.464 73.1658 140.064 73.2939C140.67 73.4161 141.234 73.6432 141.758 73.9751C142.288 74.3069 142.722 74.7814 143.059 75.3985C143.397 76.0099 143.566 76.8046 143.566 77.7827V86.6903H141.016V84.8564H140.911C140.742 85.1941 140.489 85.5259 140.151 85.852C139.814 86.178 139.38 86.4487 138.85 86.6641C138.32 86.8795 137.686 86.9872 136.946 86.9872ZM137.514 84.8913C138.236 84.8913 138.853 84.7487 139.365 84.4634C139.884 84.1781 140.277 83.8055 140.544 83.3456C140.818 82.8798 140.955 82.382 140.955 81.8522V80.1231C140.862 80.2163 140.681 80.3036 140.413 80.3851C140.151 80.4608 139.852 80.5277 139.514 80.5859C139.176 80.6383 138.847 80.6878 138.527 80.7344C138.207 80.7752 137.939 80.8101 137.724 80.8392C137.217 80.9032 136.754 81.011 136.335 81.1623C135.922 81.3137 135.59 81.532 135.339 81.8173C135.095 82.0968 134.973 82.4694 134.973 82.9351C134.973 83.5814 135.211 84.0704 135.689 84.4023C136.166 84.7283 136.775 84.8913 137.514 84.8913ZM149.445 82.1404L149.428 78.9529H149.882L155.227 73.2764H158.353L152.257 79.7388H151.847L149.445 82.1404ZM147.044 86.6903V68.8051H149.655V86.6903H147.044ZM155.515 86.6903L150.712 80.3152L152.511 78.49L158.72 86.6903H155.515ZM160.733 86.6903V73.2764H163.344V86.6903H160.733ZM162.052 71.2067C161.597 71.2067 161.207 71.0553 160.881 70.7526C160.561 70.444 160.401 70.0772 160.401 69.6522C160.401 69.2214 160.561 68.8546 160.881 68.5519C161.207 68.2433 161.597 68.089 162.052 68.089C162.506 68.089 162.893 68.2433 163.213 68.5519C163.539 68.8546 163.702 69.2214 163.702 69.6522C163.702 70.0772 163.539 70.444 163.213 70.7526C162.893 71.0553 162.506 71.2067 162.052 71.2067ZM169.468 78.7258V86.6903H166.857V73.2764H169.363V75.4597H169.529C169.838 74.7494 170.321 74.1788 170.979 73.748C171.643 73.3172 172.478 73.1018 173.485 73.1018C174.399 73.1018 175.2 73.2939 175.887 73.6781C176.574 74.0566 177.107 74.6213 177.485 75.3723C177.863 76.1234 178.053 77.052 178.053 78.1582V86.6903H175.441V78.4726C175.441 77.5003 175.188 76.7405 174.682 76.1932C174.175 75.6402 173.479 75.3636 172.594 75.3636C171.989 75.3636 171.45 75.4946 170.979 75.7566C170.513 76.0186 170.143 76.4028 169.87 76.9094C169.602 77.41 169.468 78.0155 169.468 78.7258ZM187.179 92C186.113 92 185.196 91.8603 184.428 91.5808C183.665 91.3014 183.042 90.9317 182.559 90.4717C182.076 90.0118 181.715 89.5082 181.476 88.9609L183.72 88.0352C183.878 88.2914 184.087 88.5621 184.349 88.8474C184.617 89.1385 184.978 89.3859 185.432 89.5897C185.892 89.7935 186.483 89.8953 187.205 89.8953C188.195 89.8953 189.013 89.6537 189.659 89.1705C190.305 88.6931 190.628 87.9304 190.628 86.8825V84.2451H190.462C190.305 84.5304 190.078 84.8477 189.781 85.197C189.49 85.5463 189.088 85.849 188.576 86.1052C188.064 86.3614 187.397 86.4895 186.576 86.4895C185.516 86.4895 184.562 86.242 183.712 85.7472C182.867 85.2465 182.198 84.51 181.703 83.5377C181.214 82.5596 180.969 81.3574 180.969 79.931C180.969 78.5046 181.211 77.282 181.694 76.2631C182.183 75.2443 182.853 74.4641 183.703 73.9227C184.553 73.3754 185.516 73.1018 186.594 73.1018C187.426 73.1018 188.099 73.2415 188.611 73.5209C189.123 73.7946 189.522 74.1148 189.807 74.4816C190.098 74.8484 190.323 75.1715 190.48 75.4509H190.672V73.2764H193.231V86.9872C193.231 88.14 192.963 89.0861 192.427 89.8255C191.892 90.5649 191.167 91.1121 190.253 91.4673C189.344 91.8224 188.32 92 187.179 92ZM187.152 84.3237C187.903 84.3237 188.538 84.149 189.056 83.7997C189.58 83.4446 189.976 82.938 190.244 82.2802C190.518 81.6164 190.654 80.8217 190.654 79.896C190.654 78.9936 190.52 78.1989 190.253 77.5119C189.985 76.8249 189.592 76.2893 189.074 75.9051C188.556 75.515 187.915 75.3199 187.152 75.3199C186.366 75.3199 185.711 75.5237 185.187 75.9313C184.664 76.333 184.268 76.8802 184 77.5731C183.738 78.2659 183.607 79.0402 183.607 79.896C183.607 80.7752 183.741 81.5466 184.009 82.2103C184.276 82.874 184.672 83.3922 185.196 83.7648C185.726 84.1374 186.378 84.3237 187.152 84.3237ZM198.453 86.8563C197.976 86.8563 197.565 86.6874 197.222 86.3497C196.878 86.0062 196.706 85.5929 196.706 85.1097C196.706 84.6322 196.878 84.2247 197.222 83.887C197.565 83.5435 197.976 83.3718 198.453 83.3718C198.93 83.3718 199.341 83.5435 199.684 83.887C200.028 84.2247 200.2 84.6322 200.2 85.1097C200.2 85.4299 200.118 85.7239 199.955 85.9917C199.798 86.2537 199.588 86.4633 199.326 86.6205C199.064 86.7777 198.773 86.8563 198.453 86.8563Z" fill="#CFD9E0"/>
</svg>
